<?xml version="1.0" standalone="no"?>
<!DOCTYPE svg PUBLIC "-//W3C//DTD SVG 20010904//EN"
 "http://www.w3.org/TR/2001/REC-SVG-20010904/DTD/svg10.dtd">
<svg version="1.0" xmlns="http://www.w3.org/2000/svg"
 width="1040.000000pt" height="694.000000pt" viewBox="0 0 1040.000000 694.000000"
 preserveAspectRatio="xMidYMid meet">

<g transform="translate(0.000000,694.000000) scale(0.100000,-0.100000)"
fill="#000000" stroke="none">
<path d="M0 6641 c0 -278 2 -306 25 -417 35 -169 73 -346 80 -369 7 -24 52
-48 61 -33 4 6 31 8 68 4 44 -4 68 -2 86 9 14 8 23 15 20 15 -3 1 -13 3 -23 5
-11 2 -20 5 -22 7 -2 2 -17 86 -34 188 -17 102 -44 271 -62 375 -28 168 -33
233 -38 428 -1 44 -4 49 -31 58 -16 6 -30 15 -30 20 0 5 -22 9 -50 9 l-50 0 0
-299z"/>
<path d="M7760 6926 c0 -9 8 -12 25 -8 28 5 24 22 -6 22 -10 0 -19 -6 -19 -14z"/>
<path d="M7820 6930 c0 -13 11 -13 30 0 12 8 11 10 -7 10 -13 0 -23 -4 -23
-10z"/>
<path d="M7888 6933 c6 -2 18 -2 25 0 6 3 1 5 -13 5 -14 0 -19 -2 -12 -5z"/>
<path d="M9040 6938 c-1 -1 -2 -38 -3 -81 -2 -67 0 -77 16 -77 10 0 17 8 17
20 0 11 5 20 10 20 6 0 10 -9 10 -20 0 -11 6 -20 14 -20 24 0 29 19 11 47 -12
18 -14 28 -6 36 15 15 14 27 -3 21 -8 -3 -17 -15 -22 -27 -5 -17 -8 -12 -13
27 -3 27 -12 51 -18 54 -7 2 -13 2 -13 0z"/>
<path d="M340 6890 c0 -5 5 -10 10 -10 6 0 10 5 10 10 0 6 -4 10 -10 10 -5 0
-10 -4 -10 -10z"/>
<path d="M8712 6829 c4 -85 20 -104 66 -79 49 28 37 107 -15 97 -20 -4 -23 0
-23 24 0 20 -5 29 -15 29 -13 0 -15 -12 -13 -71z m63 -10 c11 -16 -4 -59 -20
-59 -10 0 -15 10 -15 28 0 39 20 56 35 31z"/>
<path d="M8652 6865 c4 -19 1 -25 -12 -25 -40 0 -67 -73 -37 -98 20 -17 90 -3
83 15 -4 8 -6 41 -6 74 0 48 -3 59 -16 59 -12 0 -15 -7 -12 -25z m3 -81 c0
-19 -6 -30 -17 -32 -14 -3 -18 3 -18 26 0 16 3 32 7 36 14 13 28 -1 28 -30z"/>
<path d="M362 6850 c1 -13 9 -25 16 -28 17 -5 15 23 -4 39 -14 11 -15 10 -12
-11z"/>
<path d="M8946 6855 c-19 -19 -21 -56 -4 -73 17 -17 53 -15 69 4 11 13 9 14
-13 9 -21 -5 -27 -2 -33 14 -9 30 3 44 32 36 18 -4 24 -2 21 7 -7 20 -53 21
-72 3z"/>
<path d="M8305 6853 l-31 -4 1 -80 c0 -74 1 -79 20 -77 16 2 19 9 17 36 -3 31
3 37 36 33 6 -1 12 6 12 15 0 12 -6 15 -25 12 -21 -4 -25 -1 -25 18 0 20 5 24
31 24 20 0 29 4 27 13 -5 14 -19 16 -63 10z"/>
<path d="M8837 6853 c-15 -15 -5 -23 21 -17 26 6 26 5 -5 -15 -54 -34 -37 -72
29 -64 36 5 36 6 31 42 -2 20 -6 42 -9 49 -4 13 -56 17 -67 5z m43 -57 c0 -8
-4 -17 -9 -21 -12 -7 -24 12 -16 25 9 15 25 12 25 -4z"/>
<path d="M860 6820 c0 -5 7 -10 16 -10 8 0 12 5 9 10 -3 6 -10 10 -16 10 -5 0
-9 -4 -9 -10z"/>
<path d="M8503 6808 c-31 -41 -18 -88 25 -88 16 0 35 7 42 15 11 13 8 14 -21
9 -32 -5 -33 -5 -15 10 11 9 23 16 28 16 4 0 8 11 8 25 0 21 -5 25 -29 25 -16
0 -33 -6 -38 -12z m42 -18 c-3 -5 -10 -10 -16 -10 -5 0 -9 5 -9 10 0 6 7 10
16 10 8 0 12 -4 9 -10z"/>
<path d="M8397 6792 c-22 -24 -22 -55 1 -74 19 -17 63 -10 70 10 3 9 -3 10
-22 2 -33 -12 -33 -1 1 26 17 14 24 26 20 37 -8 23 -50 22 -70 -1z m43 -11 c0
-6 -4 -13 -10 -16 -5 -3 -10 1 -10 9 0 9 5 16 10 16 6 0 10 -4 10 -9z"/>
<path d="M7859 6773 c-21 -59 -21 -59 -38 -21 -11 26 -22 38 -36 38 -18 0 -20
-7 -20 -80 0 -66 3 -80 15 -78 11 2 14 15 13 43 -2 39 -2 39 9 13 15 -36 33
-35 47 2 13 39 23 38 20 -2 -2 -18 0 -34 4 -35 27 -10 32 0 32 72 0 65 -2 75
-18 75 -10 0 -22 -12 -28 -27z"/>
<path d="M8126 6764 c-11 -28 -6 -42 14 -49 11 -3 20 -11 20 -16 0 -6 -9 -7
-20 -4 -23 7 -28 -12 -6 -21 21 -8 56 14 56 35 0 10 -10 26 -22 34 l-23 16 23
0 c30 1 18 21 -13 21 -12 0 -26 -7 -29 -16z"/>
<path d="M8031 6751 c-8 -15 -7 -23 5 -35 8 -9 20 -16 25 -16 5 0 9 -4 9 -9 0
-5 -17 -9 -37 -8 -21 1 -46 -3 -55 -7 -28 -13 -21 9 7 24 28 15 33 47 9 57
-20 8 -62 -15 -70 -39 -15 -49 29 -82 73 -53 21 14 27 15 34 4 6 -10 15 -11
36 -3 37 13 44 55 11 72 -13 6 -16 11 -8 9 9 -1 17 3 18 8 5 20 -46 17 -57 -4z
m-56 -30 c-3 -6 -11 -11 -17 -11 -6 0 -6 6 2 15 14 17 26 13 15 -4z"/>
<path d="M7598 6683 c7 -3 16 -2 19 1 4 3 -2 6 -13 5 -11 0 -14 -3 -6 -6z"/>
<path d="M9163 6683 c9 -2 23 -2 30 0 6 3 -1 5 -18 5 -16 0 -22 -2 -12 -5z"/>
<path d="M9053 6673 c9 -2 23 -2 30 0 6 3 -1 5 -18 5 -16 0 -22 -2 -12 -5z"/>
<path d="M8953 6663 c9 -2 23 -2 30 0 6 3 -1 5 -18 5 -16 0 -22 -2 -12 -5z"/>
<path d="M8863 6653 c9 -2 23 -2 30 0 6 3 -1 5 -18 5 -16 0 -22 -2 -12 -5z"/>
<path d="M8768 6643 c6 -2 18 -2 25 0 6 3 1 5 -13 5 -14 0 -19 -2 -12 -5z"/>
<path d="M8673 6633 c9 -2 25 -2 35 0 9 3 1 5 -18 5 -19 0 -27 -2 -17 -5z"/>
<path d="M8568 6623 c6 -2 18 -2 25 0 6 3 1 5 -13 5 -14 0 -19 -2 -12 -5z"/>
<path d="M8488 6613 c6 -2 18 -2 25 0 6 3 1 5 -13 5 -14 0 -19 -2 -12 -5z"/>
<path d="M8393 6603 c9 -2 23 -2 30 0 6 3 -1 5 -18 5 -16 0 -22 -2 -12 -5z"/>
<path d="M8303 6593 c9 -2 25 -2 35 0 9 3 1 5 -18 5 -19 0 -27 -2 -17 -5z"/>
<path d="M8223 6583 c9 -2 23 -2 30 0 6 3 -1 5 -18 5 -16 0 -22 -2 -12 -5z"/>
<path d="M8123 6573 c9 -2 25 -2 35 0 9 3 1 5 -18 5 -19 0 -27 -2 -17 -5z"/>
<path d="M8033 6563 c9 -2 25 -2 35 0 9 3 1 5 -18 5 -19 0 -27 -2 -17 -5z"/>
<path d="M7948 6553 c12 -2 30 -2 40 0 9 3 -1 5 -23 4 -22 0 -30 -2 -17 -4z"/>
<path d="M7853 6543 c9 -2 25 -2 35 0 9 3 1 5 -18 5 -19 0 -27 -2 -17 -5z"/>
<path d="M7773 6533 c9 -2 25 -2 35 0 9 3 1 5 -18 5 -19 0 -27 -2 -17 -5z"/>
<path d="M7693 6523 c9 -2 23 -2 30 0 6 3 -1 5 -18 5 -16 0 -22 -2 -12 -5z"/>
<path d="M7613 6513 c9 -2 25 -2 35 0 9 3 1 5 -18 5 -19 0 -27 -2 -17 -5z"/>
<path d="M7533 6503 c9 -2 25 -2 35 0 9 3 1 5 -18 5 -19 0 -27 -2 -17 -5z"/>
<path d="M7458 6493 c6 -2 18 -2 25 0 6 3 1 5 -13 5 -14 0 -19 -2 -12 -5z"/>
<path d="M6720 6370 c0 -11 7 -20 15 -20 17 0 18 2 9 24 -9 23 -24 20 -24 -4z"/>
<path d="M7160 6373 c0 -16 6 -23 20 -23 11 0 20 5 20 12 0 6 -3 8 -7 5 -3 -4
-12 1 -19 11 -12 16 -13 15 -14 -5z"/>
<path d="M9808 6313 c6 -2 18 -2 25 0 6 3 1 5 -13 5 -14 0 -19 -2 -12 -5z"/>
<path d="M9508 6243 l-36 -4 -7 -135 c-4 -75 -4 -211 -1 -302 4 -92 3 -327 -3
-522 -6 -195 -13 -514 -16 -707 l-6 -353 83 1 c46 0 77 3 70 6 -6 2 -10 9 -6
14 3 5 5 66 5 136 0 70 4 146 8 169 4 23 4 49 -1 57 -5 9 -4 18 2 22 18 11 10
24 -17 27 l-28 3 -3 109 c-3 117 3 136 45 136 l25 0 -7 158 c-5 86 -9 308 -10
492 -2 184 -3 341 -4 348 0 6 -9 12 -18 12 -17 1 -17 1 0 14 13 10 17 28 17
77 0 80 -30 250 -45 247 -5 -1 -26 -3 -47 -5z"/>
<path d="M4480 6135 c0 -8 5 -15 10 -15 6 0 10 7 10 15 0 8 -4 15 -10 15 -5 0
-10 -7 -10 -15z"/>
<path d="M4227 6068 c-14 -11 -14 -15 -2 -32 11 -15 17 -17 29 -7 8 6 12 21 9
31 -6 23 -13 25 -36 8z"/>
<path d="M1 5013 l-1 -783 33 0 c17 1 59 7 92 14 43 10 55 15 42 21 -16 7 -16
8 -1 19 15 12 15 15 0 44 -9 17 -16 40 -16 51 0 11 -4 22 -9 26 -10 6 -41 103
-41 128 0 9 5 28 10 43 14 37 31 19 33 -35 1 -22 5 -41 10 -41 4 0 7 -15 7
-32 0 -25 -3 -29 -10 -18 -9 13 -10 13 -10 -1 0 -8 12 -26 27 -39 15 -13 22
-25 17 -27 -12 -4 -6 -50 7 -59 5 -3 9 -15 9 -27 0 -22 0 -22 19 2 12 16 21
20 25 12 10 -16 53 -14 59 3 8 21 -34 269 -70 416 -9 36 -19 92 -23 125 -9 73
-44 254 -74 375 -8 30 -19 82 -26 115 -6 33 -22 94 -35 135 -36 121 -43 151
-58 235 -13 72 -15 5 -16 -702z m45 -193 c4 -22 10 -40 14 -40 4 0 6 -12 3
-27 l-3 -28 11 25 c11 24 12 22 25 -34 10 -40 11 -63 4 -71 -6 -7 -8 -21 -5
-31 3 -11 -2 -4 -11 15 -8 19 -13 43 -11 53 3 10 1 16 -3 13 -9 -6 -26 34 -21
49 1 6 -2 19 -8 30 -13 28 -20 86 -9 86 4 0 11 -18 14 -40z"/>
<path d="M7182 5625 c1 -60 3 -101 6 -91 3 15 6 16 13 5 11 -18 0 160 -12 181
-5 9 -8 -31 -7 -95z"/>
<path d="M2248 5593 c7 -3 16 -2 19 1 4 3 -2 6 -13 5 -11 0 -14 -3 -6 -6z"/>
<path d="M2578 5580 c-1 -5 -16 -11 -31 -12 l-28 -2 7 -71 c3 -38 9 -98 13
-132 7 -57 6 -63 -11 -63 -10 0 -18 -4 -18 -10 0 -5 4 -10 10 -10 5 0 9 -17 8
-37 -3 -69 15 -238 26 -245 6 -4 10 -34 9 -69 -1 -34 1 -67 5 -73 13 -20 59
-321 50 -332 -4 -6 -4 -24 1 -41 5 -16 7 -43 5 -59 -4 -24 -3 -26 5 -9 l10 20
1 -20 c1 -21 2 -27 21 -145 6 -41 13 -100 16 -130 2 -30 5 -61 5 -67 1 -9 22
-13 66 -13 l65 0 -7 63 c-16 144 -187 1352 -202 1425 -7 33 -20 50 -26 32z"/>
<path d="M1750 5560 c0 -5 5 -10 11 -10 5 0 7 5 4 10 -3 6 -8 10 -11 10 -2 0
-4 -4 -4 -10z"/>
<path d="M1823 5563 c15 -2 37 -2 50 0 12 2 0 4 -28 4 -27 0 -38 -2 -22 -4z"/>
<path d="M5835 5348 c-55 -30 -103 -101 -100 -148 6 -94 20 -159 41 -199 13
-25 24 -56 24 -68 0 -20 -35 -56 -62 -65 -12 -4 -8 -19 28 -103 34 -81 68
-166 90 -224 24 -67 42 -88 59 -69 7 7 6 12 -2 15 -8 3 -7 11 3 31 8 15 14 36
14 48 0 38 67 228 105 296 39 72 39 88 -1 88 -23 0 -25 3 -20 36 4 19 14 50
23 67 12 23 16 54 15 114 -3 139 -46 193 -155 193 -23 0 -51 -6 -62 -12z m4
-269 c-16 -10 -23 -4 -14 10 3 6 11 8 17 5 6 -4 5 -9 -3 -15z m-39 -14 c0 -8
-6 -15 -14 -15 -8 0 -16 7 -20 15 -4 10 1 15 14 15 11 0 20 -7 20 -15z"/>
<path d="M7196 5226 c-5 -27 -6 -81 -3 -120 6 -87 -7 -284 -21 -298 -5 -5 -86
-14 -179 -19 -161 -9 -246 -14 -303 -19 -23 -1 -23 -2 -5 -10 17 -7 15 -9 -12
-9 -18 -1 -33 4 -33 9 0 6 -17 10 -37 10 -28 0 -34 -3 -23 -10 13 -8 12 -10
-2 -10 -10 0 -18 5 -18 10 0 6 -7 10 -15 10 -8 0 -15 -7 -15 -15 0 -13 -3 -13
-19 -3 -15 9 -25 9 -43 0 -13 -6 -34 -13 -48 -16 -14 -2 48 -2 137 1 144 5
163 4 169 -11 7 -20 34 -21 34 -2 0 17 44 26 130 26 37 0 122 3 189 7 120 6
123 7 134 32 10 26 10 52 -2 336 -6 127 -8 142 -15 101z m-251 -456 c-11 -5
-49 -8 -85 -8 l-65 1 60 6 c110 11 113 11 90 1z m143 3 c-21 -2 -57 -2 -80 0
-24 2 -7 4 37 4 44 0 63 -2 43 -4z"/>
<path d="M1820 5105 c0 -19 5 -25 21 -25 15 0 19 4 15 16 -3 9 -6 20 -6 25 0
5 -7 9 -15 9 -9 0 -15 -9 -15 -25z"/>
<path d="M4232 5045 c0 -16 2 -22 5 -12 2 9 2 23 0 30 -3 6 -5 -1 -5 -18z"/>
<path d="M9576 4873 c-3 -4 -6 -51 -6 -105 0 -97 0 -99 23 -96 21 3 22 8 25
103 2 93 1 101 -17 102 -10 1 -22 -1 -25 -4z"/>
<path d="M6334 4713 c-60 -93 -125 -173 -189 -236 -71 -70 -108 -92 -133 -78
-15 8 -17 4 -14 -51 l4 -61 -26 7 c-21 5 -37 -1 -73 -29 -46 -35 -82 -42 -90
-18 -3 7 3 10 15 6 11 -2 37 4 58 15 l39 20 -47 -5 -47 -6 -7 42 c-4 22 -11
41 -15 41 -5 0 -30 10 -55 21 -42 20 -100 68 -231 190 -57 54 -64 56 -83 34
-11 -13 -10 -14 2 -10 19 8 58 -157 58 -246 0 -78 13 -121 52 -170 15 -20 28
-41 28 -47 0 -25 305 -26 555 -2 50 5 189 12 310 15 121 4 225 8 231 10 7 2 9
15 7 30 -4 18 -2 25 8 23 7 -2 15 5 17 16 2 12 0 16 -7 11 -9 -5 -10 23 -5
105 l6 111 -28 30 c-35 36 -107 59 -189 59 l-61 0 -23 90 c-13 49 -21 101 -19
115 8 40 -7 30 -48 -32z m-504 -513 c0 -5 -7 -10 -16 -10 -8 0 -12 5 -9 10 3
6 10 10 16 10 5 0 9 -4 9 -10z"/>
<path d="M5368 4713 c7 -3 16 -2 19 1 4 3 -2 6 -13 5 -11 0 -14 -3 -6 -6z"/>
<path d="M5425 4710 c3 -5 8 -10 11 -10 2 0 4 5 4 10 0 6 -5 10 -11 10 -5 0
-7 -4 -4 -10z"/>
<path d="M5308 4703 c7 -3 16 -2 19 1 4 3 -2 6 -13 5 -11 0 -14 -3 -6 -6z"/>
<path d="M6738 4693 c7 -3 16 -2 19 1 4 3 -2 6 -13 5 -11 0 -14 -3 -6 -6z"/>
<path d="M7399 4668 c-56 -59 -149 -340 -149 -452 l0 -49 61 7 c34 3 79 6 99
6 l37 0 7 148 c3 81 9 191 12 246 5 77 4 100 -7 107 -22 14 -37 11 -60 -13z"/>
<path d="M5158 4673 c7 -3 16 -2 19 1 4 3 -2 6 -13 5 -11 0 -14 -3 -6 -6z"/>
<path d="M4610 4650 c0 -5 5 -10 10 -10 6 0 10 -10 10 -22 0 -27 5 -21 14 15
5 23 3 27 -14 27 -11 0 -20 -4 -20 -10z"/>
<path d="M7785 4571 c-38 -9 -116 -54 -140 -81 -15 -17 -17 -31 -10 -102 4
-46 4 -80 0 -76 -10 10 -48 -39 -41 -51 4 -5 -4 -11 -16 -13 -15 -2 -23 -10
-24 -24 -1 -12 -5 -27 -9 -34 -7 -11 34 -12 220 -7 126 4 266 7 312 7 l84 0
-7 63 c-10 94 -41 207 -69 248 -42 65 -184 98 -300 70z"/>
<path d="M111 4555 c1 -19 18 -51 18 -35 0 8 -4 22 -9 30 -5 8 -9 11 -9 5z"/>
<path d="M5708 4515 c20 -40 92 -95 124 -95 7 0 -6 10 -30 21 -23 12 -56 38
-73 58 -17 20 -26 27 -21 16z"/>
<path d="M6027 4469 c-25 -19 -26 -19 -21 -2 5 14 1 12 -18 -7 -18 -18 -21
-26 -11 -28 15 -4 83 38 83 51 0 10 -1 9 -33 -14z"/>
<path d="M3813 4401 c-130 -35 -187 -77 -187 -134 1 -56 15 -162 23 -176 7
-11 55 -12 264 -6 l255 7 -4 37 c-30 227 -35 243 -81 265 -57 28 -181 31 -270
7z"/>
<path d="M160 4190 c-12 -8 -9 -10 13 -10 15 0 27 5 27 10 0 13 -20 13 -40 0z"/>
<path d="M6698 4183 c7 -3 16 -2 19 1 4 3 -2 6 -13 5 -11 0 -14 -3 -6 -6z"/>
<path d="M7128 4082 c2 -15 5 -45 6 -67 1 -22 5 -46 9 -52 5 -8 4 -13 -2 -13
-7 0 -11 -27 -11 -70 l0 -70 45 0 45 0 0 145 c0 131 -2 145 -17 146 -10 1 -32
3 -49 5 -29 3 -31 2 -26 -24z m45 -159 c-7 -2 -19 -2 -25 0 -7 3 -2 5 12 5 14
0 19 -2 13 -5z m24 -26 c0 -9 -10 -12 -31 -8 -31 4 -31 5 -6 12 36 10 37 10
37 -4z m0 -43 c-3 -3 -12 -4 -19 -1 -8 3 -5 6 6 6 11 1 17 -2 13 -5z"/>
<path d="M9470 4090 c0 -12 34 -12 70 0 20 7 16 8 -22 9 -27 1 -48 -3 -48 -9z"/>
<path d="M9490 4045 c0 -8 9 -15 20 -15 11 0 20 7 20 15 0 8 -9 15 -20 15 -11
0 -20 -7 -20 -15z"/>
<path d="M1560 4040 c0 -5 14 -10 30 -10 17 0 30 5 30 10 0 6 -13 10 -30 10
-16 0 -30 -4 -30 -10z"/>
<path d="M2658 4008 c-3 -7 -1 -49 3 -93 4 -44 8 -95 8 -112 1 -33 1 -33 49
-32 26 1 36 4 21 6 -30 5 -34 20 -45 161 -5 55 -11 82 -19 82 -7 0 -15 -6 -17
-12z"/>
<path d="M5290 3970 c0 -5 5 -10 10 -10 6 0 10 5 10 10 0 6 -4 10 -10 10 -5 0
-10 -4 -10 -10z"/>
<path d="M1147 3854 c-4 -4 -33 -11 -65 -14 -31 -4 -83 -19 -115 -34 -46 -21
-73 -26 -133 -26 -79 0 -135 -19 -214 -75 -54 -38 -59 -44 -66 -73 -9 -36 -30
-59 -61 -67 -14 -3 -30 -12 -37 -18 -47 -52 -49 -57 -53 -144 -3 -49 -6 -99
-7 -113 -2 -14 -4 -32 -4 -42 -1 -9 -14 -21 -29 -26 -29 -10 -25 -15 30 -26
31 -7 48 -38 67 -126 15 -69 44 -134 84 -184 35 -46 59 -85 85 -142 11 -23 24
-45 30 -48 18 -12 12 -32 -11 -43 -21 -9 -17 -12 35 -27 75 -22 266 -27 376
-10 47 7 88 11 93 8 20 -12 159 -10 170 3 15 18 51 16 144 -11 127 -36 255
-134 319 -244 33 -57 52 -62 73 -20 19 39 1 94 -46 143 -44 46 -65 60 -110 70
-23 5 -32 12 -30 23 2 14 -4 16 -33 14 -31 -3 -40 1 -58 27 -15 21 -29 29 -49
29 -15 -1 -42 7 -60 16 -26 13 -44 15 -102 8 -39 -5 -73 -5 -76 0 -5 8 73 46
136 67 19 6 48 22 65 35 27 22 29 28 27 85 -1 33 1 61 6 61 9 0 13 26 14 83 0
27 -6 42 -23 55 -12 11 -20 23 -17 28 4 5 87 6 208 1 111 -5 204 -6 207 -4 2
3 -7 23 -21 45 -58 92 -141 146 -278 181 -65 17 -72 21 -100 64 -26 40 -30 56
-34 139 -2 51 -10 115 -17 141 -27 99 -102 154 -213 158 -49 2 -61 5 -60 18 1
17 -34 27 -47 15z m414 -675 c-9 -23 -10 -22 -10 11 -1 23 2 31 9 24 7 -7 7
-19 1 -35z"/>
<path d="M9780 3835 c-23 -13 -20 -14 45 -13 41 1 55 3 35 6 -29 4 -32 6 -15
12 17 7 15 9 -10 9 -16 0 -41 -6 -55 -14z"/>
<path d="M7963 3833 c9 -2 25 -2 35 0 9 3 1 5 -18 5 -19 0 -27 -2 -17 -5z"/>
<path d="M7745 3820 c-12 -5 52 -8 160 -8 164 1 171 2 80 8 -137 10 -216 10
-240 0z"/>
<path d="M2856 3789 c-59 -14 -56 -19 12 -19 50 0 60 3 56 15 -7 17 -12 17
-68 4z"/>
<path d="M1783 3773 c32 -2 81 -2 110 0 29 2 3 3 -58 3 -60 0 -84 -1 -52 -3z"/>
<path d="M6614 3698 c12 -78 17 -378 7 -378 -6 0 -11 -14 -11 -32 l0 -32 32
32 31 33 -7 106 c-4 80 -10 109 -21 116 -20 11 -22 153 -2 160 9 4 8 8 -3 16
-25 18 -31 13 -26 -21z"/>
<path d="M3385 3635 c-16 -8 -42 -14 -57 -15 -28 0 -49 -8 -108 -40 -24 -13
-29 -19 -16 -20 15 0 16 -3 6 -15 -7 -8 -16 -13 -20 -10 -4 3 -13 -1 -19 -8
-8 -11 -4 -13 21 -9 23 4 29 1 26 -9 -4 -10 -19 -13 -52 -12 -40 3 -46 0 -46
-17 0 -17 -7 -20 -41 -20 -39 0 -119 -34 -119 -51 0 -4 -9 -10 -20 -14 -25 -8
-61 -66 -73 -119 -20 -90 -20 -135 2 -185 17 -40 19 -60 14 -115 -3 -36 -9
-66 -12 -66 -13 0 11 -168 40 -285 16 -66 30 -127 30 -135 1 -30 22 -71 43
-82 28 -15 69 -25 204 -48 97 -16 129 -18 217 -10 147 14 227 1 338 -55 48
-25 91 -44 95 -44 20 3 35 -4 77 -41 26 -22 51 -38 56 -34 5 3 23 7 39 9 16 2
47 9 70 15 23 6 59 12 81 12 21 0 43 6 49 13 13 16 89 18 108 2 13 -10 14 -9
7 2 -8 14 61 14 430 -4 267 -13 308 -14 282 -5 -15 4 -116 11 -225 15 -324 11
-566 31 -603 50 -21 11 -46 15 -69 12 -34 -4 -38 -2 -48 27 -7 18 -12 55 -12
82 l0 49 131 -3 c74 -2 129 1 125 6 -3 5 -54 9 -113 11 -132 2 -140 5 -148 41
-7 33 18 90 40 90 7 0 17 5 20 10 4 6 -7 10 -25 10 -17 0 -29 -4 -25 -9 3 -6
-10 -13 -30 -17 -20 -3 -40 -14 -45 -24 -5 -10 -17 -17 -27 -16 -17 3 -19 16
-26 236 0 19 2 47 6 63 7 27 8 27 100 29 l92 2 -75 3 -75 4 3 60 4 61 33 -4
c36 -4 66 25 47 44 -6 6 -8 17 -5 26 4 10 -7 27 -33 49 -34 29 -36 33 -17 33
12 0 27 9 33 19 14 27 13 41 -5 41 -11 0 -14 10 -11 40 3 30 -2 49 -19 74 -13
19 -26 43 -29 54 -8 24 -53 56 -81 57 -11 0 -19 5 -18 12 4 19 -82 103 -105
103 -11 0 -26 7 -33 17 -25 30 -72 43 -114 32 -26 -8 -41 -7 -48 0 -16 16 -24
14 -30 -8 -3 -14 -11 -18 -26 -14 -12 3 -21 1 -21 -6 0 -18 -25 -13 -45 9 -10
11 -25 20 -34 20 -9 0 -23 5 -31 10 -13 9 -13 11 0 20 21 14 0 11 -35 -5z m85
-65 c0 -5 -7 -7 -15 -4 -8 4 -15 8 -15 10 0 2 7 4 15 4 8 0 15 -4 15 -10z
m544 -235 l17 -30 -20 24 c-12 13 -21 28 -21 34 0 12 0 11 24 -28z m17 -112
c13 -16 12 -17 -3 -4 -10 7 -18 15 -18 17 0 8 8 3 21 -13z m-41 -320 c-11 -17
-11 -17 -6 0 3 10 6 24 7 30 0 9 2 9 5 0 3 -7 0 -20 -6 -30z m7 -385 c-3 -8
-6 -5 -6 6 -1 11 2 17 5 13 3 -3 4 -12 1 -19z m-132 -103 c0 -10 -4 -20 -10
-22 -5 -1 -10 8 -10 22 0 14 5 24 10 22 6 -2 10 -12 10 -22z"/>
<path d="M5743 3643 c9 -2 23 -2 30 0 6 3 -1 5 -18 5 -16 0 -22 -2 -12 -5z"/>
<path d="M5750 3585 c0 -8 9 -15 20 -15 11 0 20 7 20 15 0 8 -9 15 -20 15 -11
0 -20 -7 -20 -15z"/>
<path d="M6128 3593 c7 -3 16 -2 19 1 4 3 -2 6 -13 5 -11 0 -14 -3 -6 -6z"/>
<path d="M7730 3570 c0 -5 5 -10 10 -10 6 0 10 5 10 10 0 6 -4 10 -10 10 -5 0
-10 -4 -10 -10z"/>
<path d="M9908 3553 c7 -3 16 -2 19 1 4 3 -2 6 -13 5 -11 0 -14 -3 -6 -6z"/>
<path d="M9830 3363 c-175 -13 -344 -47 -433 -87 -31 -15 -59 -26 -64 -27 -17
-2 -76 -81 -89 -120 -8 -22 -17 -67 -21 -99 l-6 -58 54 -6 c30 -3 275 -8 544
-11 270 -3 511 -8 538 -11 l47 -6 0 200 0 201 -52 5 c-87 10 -380 26 -428 24
-25 -1 -65 -3 -90 -5z"/>
<path d="M2256 3343 c-26 -3 -40 -10 -43 -22 -3 -10 -16 -24 -29 -32 -28 -15
-27 -30 10 -134 l21 -60 85 -7 c132 -10 550 -9 550 1 0 5 -23 30 -52 56 -68
61 -287 170 -383 190 -70 15 -85 15 -159 8z"/>
<path d="M7458 3283 c12 -2 32 -2 45 0 12 2 2 4 -23 4 -25 0 -35 -2 -22 -4z"/>
<path d="M7878 3273 c23 -2 61 -2 85 0 23 2 4 4 -43 4 -47 0 -66 -2 -42 -4z"/>
<path d="M8676 3263 c-6 -14 -5 -15 5 -6 7 7 10 15 7 18 -3 3 -9 -2 -12 -12z"/>
<path d="M8298 3263 c34 -2 90 -2 125 0 34 2 6 3 -63 3 -69 0 -97 -1 -62 -3z"/>
<path d="M8758 3253 c34 -2 90 -2 125 0 34 2 6 3 -63 3 -69 0 -97 -1 -62 -3z"/>
<path d="M2050 3239 c-13 -6 -28 -15 -32 -22 -10 -15 1 -118 15 -135 12 -15
97 -6 110 12 8 11 3 54 -14 119 -11 40 -29 46 -79 26z"/>
<path d="M9253 3243 c9 -2 23 -2 30 0 6 3 -1 5 -18 5 -16 0 -22 -2 -12 -5z"/>
<path d="M5760 3091 c-129 -42 -150 -55 -150 -94 l1 -32 38 43 39 42 181 0
c100 0 181 3 181 8 0 4 -26 19 -58 35 -74 34 -122 34 -232 -2z"/>
<path d="M7514 3050 c-12 -5 -57 -8 -100 -7 -68 1 -86 -3 -134 -27 -76 -40
-220 -173 -220 -204 0 -14 -15 -45 -33 -71 -39 -54 -57 -93 -57 -124 -1 -12
-16 -44 -35 -72 -35 -51 -34 -68 5 -80 17 -5 31 -46 31 -90 0 -11 0 -73 -1
-137 l0 -118 -72 -2 -73 -1 60 -6 c71 -7 124 -45 110 -78 -4 -10 -9 -23 -11
-30 -3 -16 20 -35 37 -31 15 3 15 -7 5 -114 -3 -31 -9 -65 -14 -75 -6 -10 -18
-37 -28 -61 -17 -42 -26 -47 -30 -14 -12 102 -16 112 -37 116 -39 8 -311 16
-334 10 -17 -5 -24 -18 -33 -58 -21 -93 -47 -310 -40 -340 7 -37 22 -41 166
-51 146 -9 197 -18 202 -32 2 -8 -5 -13 -19 -13 -18 0 -20 -3 -11 -12 18 -18
-43 -58 -90 -58 -75 0 -38 -23 112 -68 72 -22 80 -28 80 -61 0 -16 7 -34 14
-41 13 -10 15 -7 13 17 -2 26 0 28 34 25 23 -2 40 2 49 12 17 21 113 22 129 2
7 -8 26 -18 42 -21 16 -4 29 -10 29 -13 -1 -24 -55 -54 -120 -68 -27 -5 -31
-8 -17 -13 10 -4 18 -10 18 -14 -4 -34 0 -37 40 -32 l42 5 -7 -30 c-5 -28 -4
-30 14 -20 10 5 22 10 26 10 13 0 -4 -81 -28 -128 -31 -64 -56 -66 -163 -12
-68 35 -95 43 -156 48 -41 2 -71 1 -66 -4 4 -4 -6 -13 -23 -20 -16 -7 -30 -18
-30 -25 0 -7 8 -5 20 6 25 23 116 27 129 6 6 -9 10 -10 16 -2 9 15 38 6 95
-28 25 -15 64 -35 87 -44 41 -16 43 -16 70 7 16 13 48 65 72 115 45 94 71 116
71 60 0 -16 4 -28 9 -25 13 8 21 -19 21 -67 0 -31 -3 -38 -10 -27 -8 12 -10 9
-10 -12 0 -18 -11 -37 -30 -55 -22 -19 -27 -29 -18 -34 20 -13 -27 -55 -80
-72 -26 -9 -78 -18 -117 -20 -38 -3 -77 -7 -85 -10 -8 -3 -35 -8 -59 -11 -52
-8 -96 -29 -136 -66 -31 -28 -81 -44 -91 -29 -3 5 0 18 6 30 11 20 11 20 -14
4 -14 -10 -23 -21 -20 -27 3 -5 0 -16 -8 -25 -8 -11 -13 -45 -13 -102 0 -99
14 -89 -150 -116 -55 -10 -116 -22 -135 -27 -19 -5 -51 -13 -71 -17 l-37 -8 1
46 c1 32 -7 62 -25 99 -45 87 -58 146 -58 261 1 106 12 260 25 316 6 29 6 29
-10 10 -8 -11 -21 -36 -27 -56 -6 -20 -21 -49 -35 -63 -21 -23 -31 -26 -92
-26 -75 0 -731 79 -906 109 -60 11 -152 25 -203 32 -51 6 -95 16 -98 21 -16
26 -4 89 23 122 15 19 30 32 33 27 3 -4 25 -8 50 -8 38 -1 40 0 15 6 -24 6
-13 9 50 14 83 8 145 25 145 40 0 4 4 6 9 3 5 -3 14 1 21 9 7 8 24 15 39 15
18 0 22 3 12 9 -9 6 -5 10 15 14 38 8 164 43 187 52 9 4 17 11 17 15 0 10 -62
-3 -168 -36 -13 -4 -33 -1 -47 6 -25 14 -51 8 -155 -35 -53 -22 -58 -23 -160
-10 -58 8 -107 14 -110 15 -3 0 7 8 23 16 41 22 33 34 -23 34 -27 0 -50 -4
-50 -8 0 -10 -90 -32 -131 -32 -22 0 -29 -5 -29 -20 0 -19 -25 -25 -97 -23 -7
0 -11 -4 -10 -11 1 -6 -10 -12 -25 -14 -16 -2 -28 -7 -28 -11 0 -4 -8 -8 -17
-9 -61 -7 -134 -35 -148 -56 -12 -19 -21 -54 -55 -207 -9 -42 -10 -97 -1 -240
7 -119 7 -209 1 -254 -11 -79 -13 -255 -4 -279 4 -11 11 -13 23 -7 24 13 34 4
66 -57 l27 -52 3014 0 3014 0 0 154 0 154 -37 6 c-21 3 -67 8 -103 11 -89 8
-560 65 -587 71 -28 5 -46 40 -66 124 -55 231 -108 351 -194 438 -18 18 -33
36 -33 41 0 7 -90 76 -100 76 -3 0 -21 10 -41 23 -20 12 -40 22 -44 22 -5 0
-16 6 -24 14 -9 8 -41 23 -71 34 -53 18 -55 20 -52 51 2 18 -14 87 -38 161
-51 160 -70 247 -70 325 -1 91 -26 239 -46 271 -31 48 -88 114 -99 114 -5 0
-23 28 -39 63 -15 34 -35 69 -43 78 -8 10 -22 38 -31 65 -14 37 -24 50 -47 57
-16 6 -39 22 -49 36 -11 14 -46 51 -78 82 -32 31 -58 62 -58 68 0 7 -19 11
-49 11 -62 0 -81 17 -81 74 0 37 -6 47 -50 91 -27 27 -50 55 -50 63 0 19 -59
74 -110 102 -25 13 -60 34 -78 46 -18 13 -50 28 -70 35 -20 6 -58 22 -84 35
-97 49 -302 79 -364 54z m1126 -980 c0 -5 -4 -10 -10 -10 -5 0 -10 5 -10 10 0
6 5 10 10 10 6 0 10 -4 10 -10z m-1967 -257 c-13 -2 -35 -2 -50 0 -16 2 -5 4
22 4 28 0 40 -2 28 -4z m-13 -103 c0 -5 -9 -10 -19 -10 -11 0 -23 5 -26 10 -4
6 5 10 19 10 14 0 26 -4 26 -10z m100 0 c0 -5 -11 -10 -25 -10 -14 0 -25 5
-25 10 0 6 11 10 25 10 14 0 25 -4 25 -10z m95 0 c17 -7 14 -9 -13 -9 -20 -1
-31 3 -27 9 7 12 13 12 40 0z m-110 -190 c3 -6 -5 -10 -19 -10 -14 0 -28 5
-31 10 -3 6 5 10 19 10 14 0 28 -4 31 -10z m-2158 -336 c-3 -3 -12 -4 -19 -1
-8 3 -5 6 6 6 11 1 17 -2 13 -5z m126 -70 c3 -3 2 -14 -3 -23 -5 -9 -12 -34
-15 -55 -4 -26 -9 -35 -15 -26 -4 7 -32 15 -61 17 -55 4 -74 12 -51 20 7 3 21
13 30 23 28 30 101 58 115 44z m2567 -47 c0 -29 -21 -75 -38 -82 -9 -3 -12 5
-9 28 6 60 47 107 47 54z m-2526 -317 c3 -69 2 -91 -3 -65 -5 22 -11 87 -14
145 -4 68 -3 91 3 65 4 -22 11 -87 14 -145z m197 138 c34 1 36 -7 44 -173 3
-66 8 -156 10 -200 3 -44 0 -87 -5 -95 -7 -12 -10 -8 -10 16 0 46 -39 77 -41
32 -2 -54 -19 41 -23 127 -2 50 -9 126 -16 170 -10 70 -10 80 5 91 9 7 12 15
6 18 -5 3 -12 0 -14 -6 -3 -7 -6 -3 -6 10 -1 15 3 21 10 16 7 -4 24 -7 40 -6z
m2380 -281 c-6 -15 -14 -27 -19 -27 -11 0 -10 -83 2 -91 11 -8 -48 -95 -73
-109 -16 -8 -23 -4 -43 23 -14 17 -27 40 -31 50 -3 9 -11 17 -17 17 -7 0 -8
-6 0 -19 21 -40 14 -44 -56 -38 -51 5 -69 11 -85 29 -14 17 -17 18 -13 5 6
-16 0 -15 -47 7 -118 53 -134 66 -84 66 16 0 25 6 25 16 0 9 -5 13 -12 9 -7
-4 -4 1 7 10 54 46 179 63 192 28 3 -10 15 -27 26 -37 19 -19 19 -19 12 5 -4
13 -13 27 -19 31 -16 10 -6 15 52 21 32 4 52 2 52 -4 0 -6 5 -7 12 -3 6 4 25
8 41 10 16 1 41 11 56 22 30 22 36 16 22 -21z m-2564 -79 c-3 -7 -5 -2 -5 12
0 14 2 19 5 13 2 -7 2 -19 0 -25z m2013 -57 c0 -5 -7 -14 -16 -22 -15 -12 -44
-61 -44 -75 0 -11 59 60 65 78 10 28 82 28 133 -1 l43 -23 -68 -35 c-37 -19
-82 -45 -99 -58 -17 -13 -43 -27 -57 -30 -25 -7 -25 -6 -25 54 0 52 4 66 26
91 26 30 42 38 42 21z m-2003 -33 c-3 -7 -5 -2 -5 12 0 14 2 19 5 13 2 -7 2
-19 0 -25z m193 -9 c0 -22 -4 -38 -9 -35 -5 4 -8 14 -6 24 2 9 4 25 4 35 2 35
11 16 11 -24z m2010 -33 c0 -3 -4 -8 -10 -11 -5 -3 -10 -1 -10 4 0 6 5 11 10
11 6 0 10 -2 10 -4z m140 -21 c10 -13 9 -15 -12 -15 -13 0 -33 7 -44 15 -18
14 -17 14 12 15 17 0 37 -7 44 -15z m-2153 -27 c-3 -7 -5 -2 -5 12 0 14 2 19
5 13 2 -7 2 -19 0 -25z m1979 -3 c-22 -16 -46 -20 -46 -7 0 15 13 22 39 22 25
-1 25 -1 7 -15z"/>
<path d="M4941 605 c0 -33 3 -66 7 -73 5 -7 7 16 4 50 -5 85 -10 96 -11 23z"/>
<path d="M4970 530 c0 -5 5 -10 10 -10 6 0 10 5 10 10 0 6 -4 10 -10 10 -5 0
-10 -4 -10 -10z"/>
<path d="M7138 583 c7 -3 16 -2 19 1 4 3 -2 6 -13 5 -11 0 -14 -3 -6 -6z"/>
<path d="M7120 515 c0 -5 5 -17 10 -25 5 -8 10 -10 10 -5 0 6 -5 17 -10 25 -5
8 -10 11 -10 5z"/>
<path d="M7 2983 c7 -2 19 -2 26 0 6 3 1 5 -13 5 -14 0 -19 -2 -13 -5z"/>
<path d="M298 2973 c23 -2 59 -2 80 0 20 2 1 4 -43 4 -44 0 -61 -2 -37 -4z"/>
<path d="M1643 2933 c26 -2 68 -2 95 0 26 2 4 3 -48 3 -52 0 -74 -1 -47 -3z"/>
<path d="M2398 2913 c45 -2 119 -2 165 0 45 1 8 3 -83 3 -91 0 -128 -2 -82 -3z"/>
<path d="M4398 2873 c45 -2 119 -2 165 0 45 1 8 3 -83 3 -91 0 -128 -2 -82 -3z"/>
<path d="M4813 2863 c42 -2 112 -2 155 0 42 1 7 3 -78 3 -85 0 -120 -2 -77 -3z"/>
<path d="M5198 2853 c45 -2 119 -2 165 0 45 1 8 3 -83 3 -91 0 -128 -2 -82 -3z"/>
<path d="M5492 2853 c-8 -3 -10 -9 -4 -16 5 -7 12 -77 15 -157 16 -364 18
-388 41 -395 14 -4 16 -8 8 -12 -7 -3 -19 0 -26 6 -11 9 -19 6 -35 -15 -12
-15 -21 -35 -21 -45 0 -16 -9 -19 -57 -21 -57 -2 -57 -2 -10 -5 26 -2 47 -7
47 -10 0 -4 -14 -31 -32 -62 -17 -31 -34 -72 -38 -93 l-7 -36 38 20 c32 16 51
19 123 15 79 -5 136 -24 120 -40 -4 -4 -20 3 -36 14 -16 12 -31 19 -34 16 -3
-2 11 -14 31 -25 19 -12 35 -26 35 -32 0 -5 5 -10 11 -10 5 0 7 5 3 12 -4 7
-3 8 5 4 6 -4 9 -11 6 -16 -3 -4 -1 -18 3 -30 l8 -21 27 22 c16 11 26 26 24
33 -4 13 9 26 46 46 34 17 57 57 57 97 l0 28 -16 -32 c-9 -18 -20 -33 -25 -33
-5 0 -9 -7 -9 -15 0 -9 -6 -12 -15 -9 -8 4 -15 2 -15 -4 0 -5 -13 -12 -30 -14
-25 -4 -30 -1 -35 24 -4 16 -22 41 -40 55 -26 21 -33 33 -29 49 3 12 1 25 -5
28 -5 4 -8 13 -4 21 3 8 0 15 -6 15 -6 0 -11 -4 -11 -10 0 -5 -8 -10 -17 -9
-11 0 -13 3 -5 6 6 2 10 9 6 14 -3 5 1 9 9 9 7 0 20 11 27 25 11 20 10 71 -4
307 -9 156 -16 290 -16 298 -1 12 -3 11 -11 -2 -12 -21 -29 -24 -29 -5 0 14
-42 20 -68 10z m88 -63 c0 -5 -2 -10 -4 -10 -3 0 -8 5 -11 10 -3 6 -1 10 4 10
6 0 11 -4 11 -10z m3 -657 c-13 -2 -33 -2 -45 0 -13 2 -3 4 22 4 25 0 35 -2
23 -4z m-148 -42 c-3 -6 -11 -11 -17 -11 -6 0 -6 6 2 15 14 17 26 13 15 -4z
m198 -18 c-7 -2 -19 -2 -25 0 -7 3 -2 5 12 5 14 0 19 -2 13 -5z m21 -35 c-5
-7 -2 -9 7 -6 10 4 15 -1 15 -12 0 -18 -18 -17 -44 3 -9 7 -9 13 -1 23 13 16
33 8 23 -8z"/>
<path d="M1960 2730 c0 -5 5 -10 10 -10 6 0 10 5 10 10 0 6 -4 10 -10 10 -5 0
-10 -4 -10 -10z"/>
<path d="M2084 2700 c-11 -4 -25 -24 -32 -46 -20 -67 -23 -68 -124 -75 l-93
-6 83 -1 c77 -2 82 -3 82 -23 0 -12 -13 -44 -30 -71 -16 -26 -30 -56 -30 -66
0 -10 -4 -22 -10 -28 -5 -5 -11 -22 -12 -37 -2 -20 -8 -27 -24 -27 -27 0 -48
-24 -37 -43 34 -57 82 -110 124 -137 27 -17 49 -35 49 -40 0 -19 103 -110 124
-110 12 0 39 -18 61 -40 21 -22 43 -40 47 -40 15 0 8 58 -7 64 -23 8 -18 25 9
32 22 5 66 81 71 123 1 9 5 23 9 32 4 9 6 20 4 25 -1 5 3 19 10 32 8 13 10 36
7 56 -7 34 9 81 24 72 4 -3 49 -6 99 -7 51 -1 94 -4 96 -8 2 -3 33 -4 68 -2
101 6 29 20 -142 27 -80 3 -149 10 -155 15 -5 6 -10 59 -10 119 0 84 -3 113
-15 124 -12 11 -214 98 -223 95 -1 0 -11 -4 -23 -9z"/>
<path d="M6022 2678 c6 -18 28 -21 28 -4 0 9 -7 16 -16 16 -9 0 -14 -5 -12
-12z"/>
<path d="M6522 2659 c2 -6 8 -10 13 -10 5 0 11 4 13 10 2 6 -4 11 -13 11 -9 0
-15 -5 -13 -11z"/>
<path d="M4183 2653 c9 -2 23 -2 30 0 6 3 -1 5 -18 5 -16 0 -22 -2 -12 -5z"/>
<path d="M5850 2640 c0 -5 5 -10 10 -10 6 0 10 5 10 10 0 6 -4 10 -10 10 -5 0
-10 -4 -10 -10z"/>
<path d="M4098 2633 c7 -3 16 -2 19 1 4 3 -2 6 -13 5 -11 0 -14 -3 -6 -6z"/>
<path d="M4175 2630 c3 -5 15 -10 26 -10 10 0 19 5 19 10 0 6 -12 10 -26 10
-14 0 -23 -4 -19 -10z"/>
<path d="M6070 2630 c0 -5 5 -10 10 -10 6 0 10 5 10 10 0 6 -4 10 -10 10 -5 0
-10 -4 -10 -10z"/>
<path d="M6570 2610 c0 -5 5 -10 10 -10 6 0 10 5 10 10 0 6 -4 10 -10 10 -5 0
-10 -4 -10 -10z"/>
<path d="M6715 2610 c-3 -5 1 -10 9 -10 9 0 16 5 16 10 0 6 -4 10 -9 10 -6 0
-13 -4 -16 -10z"/>
<path d="M5990 2590 c0 -6 7 -10 15 -10 8 0 15 2 15 4 0 2 -7 6 -15 10 -8 3
-15 1 -15 -4z"/>
<path d="M6065 2590 c-3 -5 1 -10 9 -10 9 0 16 5 16 10 0 6 -4 10 -9 10 -6 0
-13 -4 -16 -10z"/>
<path d="M9595 2531 c-3 -5 -1 -12 5 -16 12 -7 30 2 30 16 0 12 -27 12 -35 0z"/>
<path d="M10250 2520 c-12 -7 -12 -12 -2 -22 9 -9 15 -9 24 0 16 16 -2 34 -22
22z"/>
<path d="M9370 2491 c0 -6 5 -13 10 -16 6 -3 10 1 10 9 0 9 -4 16 -10 16 -5 0
-10 -4 -10 -9z"/>
<path d="M10190 2460 c0 -5 5 -10 10 -10 6 0 10 5 10 10 0 6 -4 10 -10 10 -5
0 -10 -4 -10 -10z"/>
<path d="M169 2411 c-26 -14 -37 -29 -47 -65 -13 -45 -14 -46 -52 -46 -76 0
-70 41 -69 -484 1 -276 5 -454 10 -431 4 22 15 72 24 110 10 41 14 88 11 113
-4 27 -2 41 4 37 6 -3 10 5 10 20 0 14 7 42 15 62 8 19 15 47 15 62 0 14 10
66 22 115 15 65 18 91 10 94 -16 5 -15 33 1 29 7 -1 13 12 15 33 2 19 7 39 12
45 4 5 13 44 19 85 7 41 19 110 27 153 9 43 14 80 12 83 -2 2 -20 -5 -39 -15z"/>
<path d="M9558 2423 c7 -3 16 -2 19 1 4 3 -2 6 -13 5 -11 0 -14 -3 -6 -6z"/>
<path d="M9650 2419 c0 -5 5 -7 10 -4 6 3 10 8 10 11 0 2 -4 4 -10 4 -5 0 -10
-5 -10 -11z"/>
<path d="M10198 2403 c6 -2 18 -2 25 0 6 3 1 5 -13 5 -14 0 -19 -2 -12 -5z"/>
<path d="M10290 2400 c0 -5 6 -10 14 -10 8 0 18 5 21 10 3 6 -3 10 -14 10 -12
0 -21 -4 -21 -10z"/>
<path d="M10 2350 c-13 -8 -13 -10 2 -10 9 0 20 5 23 10 8 13 -5 13 -25 0z"/>
<path d="M2870 2330 c-13 -8 -12 -10 3 -10 9 0 17 5 17 10 0 12 -1 12 -20 0z"/>
<path d="M0 2320 c0 -5 4 -10 9 -10 6 0 13 5 16 10 3 6 -1 10 -9 10 -9 0 -16
-4 -16 -10z"/>
<path d="M4290 2219 c0 -5 5 -7 10 -4 6 3 10 8 10 11 0 2 -4 4 -10 4 -5 0 -10
-5 -10 -11z"/>
<path d="M4240 2210 c-9 -6 -10 -10 -3 -10 6 0 15 5 18 10 8 12 4 12 -15 0z"/>
<path d="M5178 2203 c7 -3 16 -2 19 1 4 3 -2 6 -13 5 -11 0 -14 -3 -6 -6z"/>
<path d="M5258 2203 c7 -3 16 -2 19 1 4 3 -2 6 -13 5 -11 0 -14 -3 -6 -6z"/>
<path d="M9975 2173 c-22 -8 -71 -21 -110 -28 l-70 -14 120 6 c119 5 145 13
145 39 0 17 -32 16 -85 -3z"/>
<path d="M6084 2113 c-32 -38 -86 -98 -120 -134 -63 -69 -80 -101 -60 -118 16
-13 309 -56 329 -48 22 8 22 27 0 28 -16 0 -15 2 2 10 11 6 42 40 68 75 27 36
56 68 65 71 26 9 82 65 82 81 0 8 8 21 18 28 33 24 -5 41 -134 58 -190 25
-182 27 -250 -51z m-41 -240 c-7 -2 -21 -2 -30 0 -10 3 -4 5 12 5 17 0 24 -2
18 -5z m65 -10 c-10 -2 -26 -2 -35 0 -10 3 -2 5 17 5 19 0 27 -2 18 -5z m70
-10 c-10 -2 -26 -2 -35 0 -10 3 -2 5 17 5 19 0 27 -2 18 -5z"/>
<path d="M6058 2163 c7 -3 16 -2 19 1 4 3 -2 6 -13 5 -11 0 -14 -3 -6 -6z"/>
<path d="M5745 2140 c-3 -5 -2 -15 1 -24 8 -21 43 -21 51 1 6 15 7 15 15 -3 8
-19 8 -19 5 1 -1 13 -13 21 -35 26 -18 4 -35 3 -37 -1z"/>
<path d="M6558 2133 c18 -2 45 -2 60 0 15 2 0 4 -33 4 -33 0 -45 -2 -27 -4z"/>
<path d="M6723 2123 c15 -2 39 -2 55 0 15 2 2 4 -28 4 -30 0 -43 -2 -27 -4z"/>
<path d="M1475 2027 c6 -76 23 -216 30 -253 l7 -30 -70 -17 c-39 -9 -77 -14
-86 -11 -23 9 -20 -24 7 -78 21 -42 22 -50 14 -173 -8 -121 -7 -130 12 -156
25 -34 26 -60 5 -159 -17 -82 -16 -89 15 -170 16 -41 20 -72 18 -127 -2 -40
-7 -77 -13 -83 -6 -6 -28 -7 -54 -2 -35 6 -45 12 -50 31 -9 38 -33 48 -58 23
-23 -23 -37 -27 -46 -14 -3 5 6 15 19 22 51 27 17 63 -38 42 -35 -13 -52 0
-37 29 8 13 3 19 -19 29 -24 9 -35 9 -60 -4 -17 -9 -31 -12 -31 -6 0 6 -18 7
-47 3 -47 -6 -93 -22 -65 -23 25 0 1 -20 -26 -21 -15 0 -21 -3 -15 -6 10 -3 9
-8 -2 -20 -11 -11 -25 -13 -48 -8 -18 4 -66 9 -107 10 -128 6 -134 9 -208 97
-37 44 -101 104 -142 135 -82 60 -245 143 -327 166 l-53 15 0 -618 0 -618 48
-13 c37 -10 370 -14 1550 -16 928 -2 1502 0 1502 6 0 16 -102 111 -175 163
-121 86 -239 143 -620 304 l-80 33 -6 148 c-3 81 -2 184 2 228 5 49 5 104 -1
140 -5 33 -7 81 -4 107 l6 47 -33 5 c-19 3 -87 10 -152 15 -65 6 -122 13 -128
17 -6 3 -14 16 -19 28 -7 19 -23 26 -97 40 -48 10 -95 19 -103 20 -8 0 -26 11
-39 23 -22 20 -24 29 -29 161 -3 89 -1 141 5 145 6 4 28 -5 49 -20 48 -32 120
-64 128 -56 10 10 7 43 -4 43 -11 0 -28 37 -67 143 -26 72 -30 77 -52 72 -33
-8 -57 17 -76 82 -9 30 -22 56 -30 60 -8 3 -15 13 -15 22 -1 19 -23 51 -36 51
-5 0 -14 10 -19 22 -20 44 -34 32 -30 -25z m-1330 -1117 c8 -13 -15 -13 -35 0
-12 8 -11 10 7 10 12 0 25 -4 28 -10z m520 -330 c-24 -10 -85 -13 -68 -2 6 4
29 8 50 9 29 1 33 0 18 -7z"/>
<path d="M8973 1989 c7 -4 93 -10 192 -13 165 -4 169 -4 55 4 -198 14 -261 16
-247 9z"/>
<path d="M9428 1963 c23 -2 61 -2 85 0 23 2 4 4 -43 4 -47 0 -66 -2 -42 -4z"/>
<path d="M9670 1950 c63 -4 194 -10 290 -13 l175 -6 -205 14 c-113 7 -243 13
-290 12 -82 0 -81 -1 30 -7z"/>
<path d="M10161 1926 c2 -2 58 -6 124 -8 75 -4 101 -3 70 2 -51 8 -202 13
-194 6z"/>
<path d="M2155 1502 c-11 -2 -34 -15 -52 -28 -17 -13 -45 -24 -61 -24 -15 0
-50 -7 -76 -16 -35 -12 -51 -13 -59 -5 -18 18 -47 13 -47 -7 0 -21 47 -45 120
-62 25 -6 54 -13 65 -15 11 -3 31 -13 45 -24 34 -24 130 -45 144 -31 6 6 10
32 8 58 -1 26 -2 64 -3 85 0 20 -4 37 -8 37 -3 0 -26 -25 -50 -55 -41 -52 -47
-55 -87 -55 -54 0 -56 13 -6 39 33 17 102 96 91 104 -2 2 -13 1 -24 -1z"/>
<path d="M4390 1295 c0 -3 18 -17 40 -32 37 -24 42 -25 57 -11 14 14 12 17
-16 23 -17 3 -33 11 -36 16 -6 9 -45 13 -45 4z"/>
<path d="M1200 913 c0 -8 15 -13 40 -13 26 0 40 5 40 13 0 9 -14 13 -40 12
-25 0 -40 -5 -40 -12z"/>
<path d="M6771 774 c0 -11 3 -14 6 -6 3 7 2 16 -1 19 -3 4 -6 -2 -5 -13z"/>
<path d="M6791 704 c-2 -20 46 -55 75 -55 38 -1 133 27 114 34 -8 3 -22 7 -31
10 -9 3 -35 -1 -58 -9 -43 -15 -84 -7 -94 18 -3 7 -6 8 -6 2z"/>
</g>
</svg>
