<?xml version="1.0" standalone="no"?>
<!DOCTYPE svg PUBLIC "-//W3C//DTD SVG 20010904//EN"
 "http://www.w3.org/TR/2001/REC-SVG-20010904/DTD/svg10.dtd">
<svg version="1.0" xmlns="http://www.w3.org/2000/svg"
 width="1280.000000pt" height="874.000000pt" viewBox="0 0 1280.000000 874.000000"
 preserveAspectRatio="xMidYMid meet">

<g transform="translate(0.000000,874.000000) scale(0.100000,-0.100000)"
fill="#000000" stroke="none">
<path d="M2606 8703 c4 -21 7 -52 7 -70 -1 -22 3 -30 12 -27 8 4 15 -5 19 -23
14 -72 27 -186 30 -268 2 -49 9 -111 15 -138 6 -26 11 -82 10 -125 0 -42 6
-117 14 -167 9 -49 18 -121 21 -160 3 -38 10 -88 15 -110 6 -22 11 -82 11
-133 0 -52 4 -91 9 -88 13 9 20 -18 26 -97 3 -40 11 -95 17 -123 7 -35 7 -69
1 -108 -6 -31 -6 -59 -2 -62 4 -2 8 -17 7 -32 -1 -41 13 -195 19 -212 4 -8 5
-19 4 -24 -1 -5 4 -13 11 -17 10 -6 13 -40 12 -129 -1 -95 2 -118 12 -109 10
8 14 -4 19 -54 10 -97 7 -103 -37 -72 -20 13 -53 29 -75 34 -21 5 -64 16 -95
24 -59 16 -154 12 -113 -4 16 -6 14 -8 -12 -8 -17 -1 -35 -6 -38 -11 -5 -8
-11 -7 -20 0 -19 16 -101 16 -120 0 -8 -7 -15 -19 -15 -27 0 -9 -14 -31 -30
-50 -28 -32 -30 -39 -26 -91 10 -125 54 -296 87 -343 18 -26 20 -34 10 -56 -9
-20 -9 -28 0 -34 8 -4 10 -20 6 -43 -3 -20 -3 -36 1 -36 4 0 15 -22 25 -50 11
-31 24 -50 34 -50 13 0 13 -3 3 -15 -11 -13 -9 -19 9 -34 11 -10 21 -24 21
-32 0 -7 -12 -1 -28 14 -16 15 -31 25 -34 22 -8 -8 -58 16 -60 29 0 6 -2 22
-4 36 -11 89 -28 110 -63 78 -11 -10 -12 -10 -7 -1 5 9 2 11 -8 7 -9 -3 -13
-10 -10 -15 3 -5 -10 -9 -30 -9 -43 0 -151 -71 -175 -115 -9 -16 -19 -31 -23
-33 -4 -2 -4 -10 -1 -18 3 -8 1 -14 -4 -14 -6 0 -15 -10 -21 -22 -7 -14 -11
-17 -11 -8 -1 8 8 30 19 48 11 17 16 32 11 32 -12 0 -44 -45 -65 -90 -9 -19
-13 -25 -11 -13 5 18 -1 24 -37 37 -24 8 -52 16 -62 18 -17 3 -20 11 -19 53 1
35 -4 56 -16 70 -27 30 -81 115 -81 126 0 5 -6 12 -14 15 -8 3 -11 15 -8 30 4
23 12 28 40 25 7 -1 15 6 18 16 3 10 12 30 20 45 9 17 11 29 4 33 -5 3 -10 2
-10 -4 0 -15 -46 -62 -54 -54 -3 3 1 17 10 31 19 29 28 72 15 72 -5 0 -12 20
-15 45 -4 25 -11 45 -17 45 -5 0 -9 6 -9 13 0 8 -11 24 -25 37 -14 13 -25 28
-25 33 0 20 -57 54 -205 123 -28 14 -102 29 -190 41 -48 6 -159 -19 -216 -48
-49 -25 -121 -94 -145 -140 -11 -22 -20 -70 -25 -134 -6 -84 -4 -109 11 -155
19 -55 17 -66 -10 -72 -21 -4 -39 -29 -40 -55 0 -16 -11 -28 -38 -42 -49 -25
-198 -181 -217 -228 -8 -20 -15 -48 -15 -63 0 -22 -7 -31 -35 -44 -39 -19 -85
-61 -86 -79 -3 -54 -22 -79 -122 -159 -26 -21 -37 -40 -47 -85 -7 -32 -14 -66
-15 -76 -4 -43 -23 -33 -121 62 -79 76 -111 100 -143 108 l-41 11 0 -467 0
-468 35 -119 c90 -301 116 -520 96 -814 -16 -245 -14 -280 15 -394 56 -213 81
-233 330 -262 71 -9 145 31 179 97 19 37 61 158 69 201 7 37 10 39 68 52 32 7
58 -1 58 -19 0 -14 57 -31 67 -21 3 3 1 59 -5 123 -6 65 -16 186 -22 268 -6
83 -15 184 -20 225 -5 41 -17 179 -25 305 -9 127 -25 325 -35 440 -48 514 -21
700 131 906 75 102 140 139 244 139 131 0 263 -72 439 -239 55 -53 93 -85 84
-71 -36 53 -98 162 -98 173 0 6 8 2 18 -9 28 -31 112 -142 112 -149 0 -7 57
-92 100 -150 17 -22 39 -57 50 -77 l20 -38 -38 -25 c-22 -14 -54 -48 -71 -75
-19 -29 -40 -50 -50 -50 -21 0 -113 -120 -167 -217 -20 -36 -43 -95 -50 -132
-12 -58 -19 -71 -59 -107 -25 -22 -45 -47 -45 -56 0 -9 -5 -18 -11 -20 -7 -2
-8 -17 -4 -40 5 -27 11 -35 22 -31 13 5 15 0 9 -30 -4 -21 0 -71 9 -118 22
-117 19 -199 -10 -304 -32 -116 -42 -274 -20 -309 12 -19 16 -57 17 -185 0
-88 2 -161 4 -161 10 0 54 24 54 30 0 10 64 7 72 -4 4 -6 12 -5 21 2 8 7 32
12 53 12 64 -1 109 13 109 35 0 10 7 21 15 23 13 5 13 3 1 -11 -12 -15 -10
-17 23 -17 20 0 53 7 73 15 43 18 154 19 237 1 l60 -12 -22 -22 c-12 -12 -31
-22 -42 -22 -33 0 -23 -29 16 -45 l37 -15 -7 -87 c-11 -126 -15 -142 -45 -157
-36 -18 -375 -146 -388 -146 -6 0 -14 25 -18 55 -5 40 -11 55 -22 55 -13 0
-15 11 -11 60 2 33 0 60 -5 60 -5 0 -6 12 -3 26 4 15 3 23 -2 20 -17 -10 -35
21 -23 41 6 10 11 12 11 6 0 -7 7 -13 15 -13 8 0 14 3 14 8 -5 30 2 42 24 38
12 -3 43 -8 68 -11 38 -5 55 -15 92 -51 43 -42 49 -45 84 -38 67 12 143 88
143 143 0 22 -32 48 -65 52 -11 2 -58 -3 -105 -9 -47 -7 -105 -13 -130 -14
-41 -3 -45 -5 -42 -27 2 -13 -1 -21 -6 -17 -19 11 -141 16 -147 6 -9 -15 -25
-12 -25 4 0 9 -12 14 -32 15 -18 0 -42 2 -53 3 -15 2 -19 -2 -17 -17 1 -11 5
-42 8 -69 5 -50 37 -126 53 -126 10 0 35 -58 34 -77 0 -7 2 -12 6 -11 19 2 20
-5 6 -33 -9 -16 -24 -38 -33 -48 -9 -10 -35 -37 -57 -61 -35 -37 -37 -43 -22
-51 9 -6 17 -17 17 -25 0 -27 -40 -103 -59 -114 -27 -14 -28 -13 -35 15 -4 14
-13 25 -21 25 -8 0 -15 5 -15 11 0 6 -9 9 -20 6 -18 -5 -18 -4 -3 19 9 15 11
24 4 24 -6 0 -21 10 -32 21 -24 24 -57 31 -76 16 -20 -15 -132 -25 -137 -13
-2 8 -7 7 -16 -1 -16 -14 -82 -5 -93 14 -10 17 -27 7 -27 -16 0 -10 -15 -24
-35 -34 -41 -20 -74 -68 -68 -100 3 -13 17 -32 33 -42 37 -25 27 -38 -46 -61
-30 -9 -54 -21 -54 -26 0 -5 -4 -7 -9 -3 -5 3 -33 -4 -63 -16 -63 -26 -110
-44 -243 -94 -137 -51 -178 -70 -213 -100 -36 -31 -59 -102 -43 -134 11 -19 9
-21 -14 -21 -14 0 -39 -7 -54 -15 -32 -16 -73 -89 -64 -114 6 -17 63 -71 76
-71 4 0 6 -6 5 -12 -2 -9 15 -14 52 -16 43 -2 65 3 100 21 39 20 47 30 59 73
8 27 16 75 18 106 4 48 8 58 26 64 12 4 38 17 57 29 19 12 67 33 105 48 93 34
425 132 500 147 33 7 65 16 70 20 6 4 21 10 35 14 184 53 240 59 240 27 0 -10
-4 -31 -10 -47 -18 -54 -51 -387 -41 -420 8 -29 8 -30 -20 -26 -24 3 -36 -3
-64 -32 -20 -21 -37 -52 -41 -73 -6 -32 -3 -40 20 -59 14 -13 26 -26 26 -29 0
-17 36 -39 78 -47 42 -7 53 -5 109 23 58 30 143 112 143 139 0 6 -13 13 -30
16 -29 6 -30 8 -30 64 0 31 3 60 7 64 4 3 8 14 9 22 1 9 6 23 10 32 4 9 6 29
5 45 -2 15 3 27 9 27 7 0 9 -9 6 -22 -3 -13 2 -6 11 14 12 30 21 38 41 38 14
0 34 8 44 17 16 14 21 15 27 4 6 -9 14 -10 22 -5 8 5 22 10 32 11 44 7 127 64
127 87 0 6 22 27 49 47 l49 37 201 11 c352 19 401 16 401 -29 0 -55 160 -51
190 5 7 13 22 26 35 29 12 3 39 19 60 36 21 16 47 30 59 30 13 0 16 -3 10 -8
-7 -4 -18 -26 -25 -50 -7 -26 -24 -51 -40 -63 -38 -26 -69 -80 -69 -117 0 -30
1 -31 35 -25 20 3 41 1 49 -6 9 -8 28 -10 49 -6 40 8 55 -6 32 -28 -8 -9 -15
-22 -15 -30 0 -8 -10 -21 -22 -29 -20 -13 -175 -76 -353 -143 -307 -116 -335
-131 -359 -202 -9 -26 -16 -57 -16 -70 0 -16 -8 -27 -27 -34 -38 -14 -62 -37
-84 -81 -28 -55 -24 -74 27 -125 39 -41 48 -45 64 -35 16 9 18 9 14 -2 -7 -17
45 -31 78 -21 66 21 148 96 122 113 -6 4 -10 38 -9 76 l0 69 65 35 c94 49 151
70 270 99 58 13 112 25 120 27 9 1 20 5 25 8 6 3 28 9 50 12 29 5 34 4 20 -3
-14 -7 -15 -10 -5 -10 27 -1 60 11 54 20 -3 5 2 9 11 9 8 0 18 -6 21 -14 3 -8
11 -13 17 -11 7 2 30 6 52 9 22 2 66 7 97 11 46 6 60 5 73 -9 9 -9 13 -21 9
-27 -8 -14 -8 -124 1 -138 3 -6 43 -11 93 -12 126 -1 136 -6 142 -59 3 -25 1
-76 -3 -113 -12 -92 -3 -135 28 -143 14 -3 25 -10 25 -15 0 -14 -23 -11 -49 7
-21 15 -24 15 -52 -12 -40 -39 -59 -79 -59 -128 0 -54 49 -107 114 -126 81
-22 151 4 138 52 -2 10 0 18 6 18 26 0 33 53 47 351 2 52 11 129 19 170 8 40
17 94 21 119 7 53 19 70 45 63 23 -6 26 7 8 26 -11 10 -9 11 6 5 17 -6 18 -4
12 19 -3 15 -3 27 1 27 5 0 42 28 83 61 l75 61 190 -6 c213 -8 450 -29 508
-46 27 -8 37 -16 33 -26 -7 -17 6 -18 22 -2 9 9 12 9 12 1 0 -7 -4 -14 -9 -17
-13 -9 -19 -54 -8 -65 5 -5 12 -24 16 -43 5 -22 13 -32 22 -29 8 2 31 9 51 14
33 10 40 9 52 -8 14 -20 15 -20 13 0 -2 17 7 21 55 29 55 9 58 11 64 43 12 62
-1 175 -25 214 -24 40 -54 57 -118 66 -24 3 -46 10 -49 14 -3 5 -17 8 -32 8
-21 -1 -22 -2 -7 -6 39 -9 33 -18 -13 -20 -29 -2 -42 1 -33 6 11 7 11 9 0 14
-9 4 -7 6 6 8 11 1 0 5 -25 9 -25 4 -85 15 -133 24 -48 9 -92 14 -97 11 -5 -3
-11 -1 -15 5 -3 5 -18 10 -33 10 -58 0 -61 22 -7 51 17 9 29 21 28 27 -2 6 6
14 17 17 24 8 25 18 5 39 -9 9 -11 17 -5 21 5 3 10 1 10 -4 0 -21 47 -11 70
14 15 16 30 23 42 19 14 -4 18 0 18 23 0 41 -12 54 -59 60 -36 5 -41 9 -41 32
0 14 -9 40 -20 58 -12 21 -15 35 -9 39 6 3 51 3 100 -1 78 -6 93 -5 109 10 11
10 20 25 20 34 -1 13 -4 12 -16 -4 -12 -14 -18 -16 -21 -7 -3 7 -11 19 -19 26
-8 8 -14 20 -14 26 0 7 -9 2 -20 -11 -21 -26 -26 -20 -10 11 5 10 7 25 4 34
-6 16 -12 13 -57 -30 -12 -12 -35 -25 -52 -28 -30 -7 -30 -7 -9 10 18 15 20
23 12 63 -4 25 -13 50 -20 56 -8 7 -9 6 -4 -2 4 -7 3 -20 -2 -29 -7 -13 -11
-8 -17 22 -8 43 -34 94 -48 94 -5 0 -6 -10 -2 -22 37 -116 39 -135 23 -160
-26 -39 -169 -83 -259 -79 -45 2 -51 34 -42 231 l8 175 100 6 c62 4 111 12
129 22 19 10 35 13 45 7 10 -5 36 3 81 25 36 18 91 38 123 45 31 6 57 16 57
22 0 5 -6 8 -14 5 -24 -10 -111 -20 -104 -12 3 4 24 13 45 20 27 10 32 14 16
15 -13 0 -23 3 -23 8 0 15 -52 30 -90 25 -45 -6 -130 -73 -130 -102 0 -10 -12
-23 -26 -30 -35 -16 -114 -26 -113 -15 0 5 26 30 59 57 32 26 112 109 177 184
65 75 130 145 144 155 16 12 50 22 88 25 85 8 104 31 100 123 -4 80 13 108 79
129 54 18 67 33 52 60 -14 27 -40 27 -40 1 0 -14 -7 -20 -21 -20 -16 0 -19 4
-14 18 4 9 7 25 7 34 0 10 9 25 21 33 12 8 18 15 15 15 -15 0 -78 -34 -78 -42
0 -4 -9 -8 -20 -8 -11 0 -20 4 -20 10 0 9 35 44 76 75 16 12 17 14 2 15 -9 0
-18 5 -20 11 -2 6 -15 12 -28 13 -27 1 -28 3 -16 59 10 44 27 47 54 10 l20
-28 7 27 c9 37 0 58 -25 58 -12 0 -18 4 -15 10 3 6 -3 10 -14 10 -14 0 -23 11
-32 38 -16 52 -86 169 -107 181 -12 7 -14 14 -7 24 41 57 76 116 123 207 30
58 58 107 62 110 4 3 7 34 6 70 -1 56 -5 69 -29 94 -15 16 -27 33 -27 37 0 5
-8 6 -17 2 -10 -3 -15 -3 -11 2 4 4 2 15 -5 23 -10 13 -9 15 7 9 15 -6 17 -4
12 15 -4 13 -11 52 -16 88 -14 96 -25 135 -49 176 -12 19 -19 40 -15 45 12 19
-19 97 -40 103 -36 10 -43 7 -69 -31 -13 -21 -52 -67 -86 -103 -36 -39 -60
-74 -61 -87 0 -13 -5 -23 -11 -23 -6 0 -33 -23 -60 -51 -56 -58 -55 -48 -18
-234 30 -152 40 -179 67 -183 12 -2 20 -8 16 -13 -3 -5 -10 -7 -15 -4 -15 10
-10 -40 15 -148 47 -201 57 -293 58 -523 1 -186 -1 -226 -16 -264 -10 -25 -26
-74 -37 -110 -11 -36 -24 -72 -28 -81 -5 -8 -12 -46 -16 -82 -4 -37 -11 -70
-16 -73 -5 -2 -21 2 -37 10 -16 8 -72 26 -126 40 -54 13 -101 27 -104 31 -4 4
-10 149 -13 323 -6 297 -8 324 -33 427 -15 61 -40 166 -55 235 -54 233 -162
562 -216 655 -55 93 -160 162 -291 190 -33 7 -70 18 -81 24 -12 6 -63 16 -114
22 -52 6 -105 13 -119 15 -99 14 -247 24 -372 25 -82 0 -148 4 -148 8 0 5 60
11 133 14 128 6 239 -1 362 -23 74 -13 305 -50 315 -50 4 0 10 69 13 153 4 83
9 170 13 192 6 33 4 38 -7 29 -16 -12 -109 -37 -115 -31 -20 20 73 77 126 77
32 0 39 14 15 28 -10 5 -13 15 -9 25 7 18 24 23 24 7 0 -5 4 -10 9 -10 6 0 7
15 5 33 -4 20 1 43 11 62 l17 30 -6 -32 c-3 -20 -1 -33 5 -33 6 0 7 -5 3 -12
-4 -7 -8 -22 -9 -35 -1 -19 6 -23 52 -29 29 -3 56 -10 59 -15 3 -5 17 -9 32
-9 40 0 123 -27 154 -50 15 -11 38 -20 50 -20 72 0 239 -180 307 -332 22 -49
51 -153 51 -185 0 -2 11 4 24 12 28 19 47 61 71 163 13 52 28 86 52 114 19 23
38 49 43 58 11 21 96 65 121 63 20 -2 25 10 25 55 -1 31 1 33 27 28 15 -3 27
-1 27 4 0 6 -11 10 -25 10 -22 0 -24 3 -18 33 3 17 15 52 26 77 30 68 33 245
6 375 -12 55 -30 116 -40 135 -23 42 -54 80 -67 80 -5 0 -25 14 -43 31 l-34
30 31 -15 c17 -8 35 -12 38 -8 4 3 11 0 16 -8 8 -12 12 -11 30 7 21 23 27 38
10 28 -5 -3 -10 -1 -10 4 0 16 16 13 34 -5 16 -15 20 -35 16 -86 -4 -60 6 -68
76 -68 43 0 64 4 64 12 0 8 3 8 9 3 9 -10 11 -29 32 -335 16 -238 17 -295 2
-295 -6 0 -15 -3 -19 -8 -4 -4 2 -7 14 -7 12 0 22 -5 22 -11 0 -9 20 -10 68
-5 98 9 106 11 110 27 3 12 2 12 -6 0 -7 -9 -12 -10 -16 -2 -4 6 -18 11 -32
11 -13 0 -24 5 -24 10 0 6 16 10 36 10 l37 0 -7 83 c-3 45 -15 233 -26 417
-11 184 -29 454 -39 600 -12 171 -15 267 -8 271 18 13 532 27 544 16 5 -5 12
-120 23 -357 36 -783 53 -1075 61 -1078 5 -2 9 -10 9 -18 0 -19 20 -18 35 3 7
9 17 13 24 9 7 -5 37 -10 67 -12 41 -3 55 -1 52 9 -3 7 -27 13 -61 15 -32 2
-57 8 -57 14 0 6 16 9 38 7 l37 -4 -5 60 c-3 33 -3 96 0 140 l5 80 8 -50 c5
-27 20 -74 33 -103 13 -29 24 -71 24 -96 0 -26 10 -62 25 -92 14 -27 25 -42
25 -33 0 29 39 105 62 122 166 119 222 157 231 157 4 0 28 20 55 45 26 25 53
45 60 45 7 0 21 15 32 33 11 17 20 28 20 24 0 -5 18 10 40 33 22 23 40 46 40
51 0 4 14 16 32 25 31 16 32 16 57 -15 14 -17 31 -31 38 -31 7 0 10 -7 7 -15
-4 -8 -1 -15 5 -15 6 0 11 5 11 10 0 6 9 10 20 10 13 0 18 -5 14 -15 -7 -18 9
-19 39 -4 16 9 22 9 25 0 5 -16 22 -14 22 4 0 8 6 15 13 15 6 0 21 14 32 30
11 16 24 30 28 30 4 0 30 -11 56 -25 27 -13 65 -26 85 -28 19 -2 64 -22 98
-44 35 -23 97 -60 138 -83 41 -24 82 -49 91 -57 14 -12 17 -8 22 39 10 77 8
123 -4 155 -11 28 -11 28 -20 6 -10 -28 -35 -30 -44 -4 -3 10 -27 35 -53 55
-26 19 -52 40 -59 46 -6 5 -44 19 -84 30 -42 11 -77 27 -83 37 -5 9 -26 36
-48 59 -21 22 -38 45 -38 50 0 5 11 36 24 69 57 145 76 317 42 383 -9 18 -21
32 -27 32 -6 0 -17 7 -26 16 -12 11 -13 18 -4 27 18 18 13 24 -23 31 -24 5
-37 14 -45 34 -19 43 -46 71 -74 74 -28 4 -107 56 -107 71 0 15 -63 -1 -73
-18 -9 -17 -33 -20 -42 -5 -3 5 -3 20 0 33 6 24 8 24 193 36 368 22 345 25
318 -41 -10 -22 -15 -78 -17 -157 -2 -107 -5 -123 -21 -132 -14 -8 -18 -6 -18
9 0 30 -20 80 -35 85 -8 4 -12 -2 -11 -17 0 -13 6 -22 11 -19 6 2 16 -17 23
-42 10 -38 16 -45 31 -40 23 7 28 -16 30 -144 1 -52 6 -101 10 -110 15 -30 33
-146 33 -216 l0 -71 37 -11 c20 -6 44 -15 54 -18 15 -7 17 2 18 96 l2 104 12
-115 c7 -63 13 -104 14 -90 1 14 1 277 1 585 -1 1311 -4 1883 -9 1935 -6 53
-7 54 -14 20 -10 -48 -21 -264 -14 -283 3 -8 8 -230 11 -494 l5 -479 -32 -10
c-62 -18 -93 -140 -47 -188 43 -47 25 -56 -118 -56 -59 0 -179 -4 -267 -10
-88 -5 -190 -11 -226 -13 l-67 -3 -6 236 c-3 129 -8 291 -11 360 -3 69 -8 292
-11 495 -5 316 -4 374 9 398 8 16 17 25 20 20 3 -4 10 -116 17 -248 7 -132 14
-242 17 -245 2 -2 3 91 1 208 -2 117 0 212 3 212 19 0 17 35 -2 56 -12 12 -19
29 -16 36 4 10 6 10 6 1 1 -7 5 -13 10 -13 5 0 12 25 16 55 3 30 10 55 14 55
5 0 48 7 97 15 49 9 109 18 134 21 25 3 47 8 50 11 3 3 -10 4 -27 1 -18 -2
-33 -1 -33 4 0 11 67 10 72 0 3 -8 194 6 331 23 l47 6 0 -78 c1 -77 1 -78 15
-44 20 44 22 285 3 278 -7 -2 -13 -18 -13 -35 0 -18 -3 -32 -7 -32 -5 0 -8 13
-8 29 l0 30 -52 -18 c-29 -10 -93 -22 -143 -26 -49 -4 -103 -9 -120 -10 -16
-2 -86 -10 -155 -19 -69 -8 -144 -16 -167 -16 -23 0 -45 -5 -49 -12 -5 -7 -10
-3 -16 12 -5 12 -6 25 -3 28 3 3 5 0 5 -6 0 -7 4 -12 10 -12 9 0 5 74 -6 113
-3 9 -2 17 3 17 4 0 8 14 8 30 0 31 -9 40 -18 18 -4 -10 -6 -10 -6 0 -1 6 -8
12 -16 12 -12 0 -15 -14 -15 -65 0 -48 -4 -65 -14 -65 -9 0 -13 15 -13 55 0
30 4 55 8 55 5 0 9 5 9 10 0 6 -21 10 -46 10 l-47 0 5 -105 c4 -64 2 -108 -4
-111 -15 -10 -197 -34 -255 -34 -28 0 -54 -4 -57 -8 -3 -5 -20 -8 -38 -6 -18
1 -62 -2 -98 -6 -36 -5 -93 -12 -127 -15 l-63 -6 0 48 c0 26 -3 92 -7 146 l-6
97 -85 0 -85 0 5 -150 c6 -172 10 -164 -82 -173 -30 -3 -151 -18 -268 -32
-117 -15 -216 -25 -219 -22 -3 3 -9 64 -14 134 -5 70 -11 144 -14 163 -2 19
-4 45 -5 58 0 21 -3 22 -91 22 l-92 0 7 -87 c4 -49 9 -139 12 -200 l6 -113
-35 0 c-20 0 -39 -5 -42 -11 -4 -6 -13 -8 -21 -5 -13 5 -84 -3 -289 -33 -38
-6 -84 -13 -102 -16 l-31 -6 -6 53 c-3 29 -10 112 -16 183 -6 72 -13 154 -17
183 l-5 52 -95 0 -94 0 6 -62 c10 -103 14 -159 21 -238 3 -41 9 -77 13 -80 4
-3 5 -26 3 -51 -3 -39 -8 -49 -30 -59 -25 -12 -26 -13 -7 -21 18 -7 18 -8 -4
-8 -42 -1 -92 -24 -86 -39 3 -8 0 -10 -6 -6 -6 4 -16 0 -21 -7 -7 -11 -11 -11
-15 -1 -2 6 -9 12 -14 12 -6 0 -7 -4 -4 -10 3 -5 1 -10 -4 -10 -6 0 -11 6 -11
13 0 7 -5 5 -11 -5 -5 -10 -16 -15 -24 -11 -9 3 -21 0 -29 -6 -14 -12 -46 -5
-46 10 0 5 -4 9 -10 9 -5 0 -9 -6 -7 -12 1 -8 -9 -13 -28 -13 -16 -1 -41 -4
-55 -7 -14 -4 -55 -9 -92 -12 l-68 -5 0 34 c0 36 20 55 59 55 13 0 21 6 21 18
0 19 -28 349 -35 402 -2 19 -4 52 -4 73 l-1 37 -99 0 -99 0 0 -39 c-1 -28 4
-41 16 -46 14 -5 14 -7 2 -15 -9 -6 -10 -10 -3 -10 8 0 10 -11 6 -35 -3 -21
-1 -41 7 -50 9 -10 9 -15 1 -15 -12 0 -15 -29 -5 -55 6 -13 9 -14 16 -3 6 8 7
1 3 -20 -4 -20 -2 -38 5 -47 8 -10 10 -31 7 -58 -4 -26 -3 -35 2 -22 6 15 9 5
12 -38 2 -31 0 -57 -5 -57 -5 0 -4 -6 2 -13 6 -7 14 -42 17 -78 3 -35 8 -90
11 -121 4 -40 3 -58 -5 -58 -15 0 -14 -27 1 -32 10 -4 17 -36 31 -158 2 -14
-1 -31 -7 -38 -7 -9 -6 -16 3 -22 9 -5 12 -20 9 -39 -2 -17 -1 -31 3 -31 5 0
8 -19 8 -42 1 -24 2 -68 4 -98 2 -30 0 -57 -3 -60 -12 -9 5 -131 19 -139 9 -6
10 -10 2 -16 -6 -3 -11 -22 -9 -40 1 -19 6 -32 10 -29 4 3 7 -12 6 -33 -2 -48
10 -202 18 -225 4 -12 -5 -23 -28 -37 -49 -29 -60 -41 -53 -59 3 -9 3 -13 -1
-10 -17 17 -63 -61 -57 -95 4 -20 1 -27 -10 -27 -21 0 -28 -36 -22 -121 2 -41
7 -114 10 -164 3 -49 9 -91 14 -93 11 -4 2 -42 -9 -42 -5 0 -17 -3 -27 -7 -16
-6 -16 -5 -4 10 12 15 11 17 -10 17 -13 0 -37 -8 -54 -18 -50 -31 -74 -33 -80
-9 -10 49 -26 249 -21 263 5 12 1 14 -15 9 -14 -5 -19 -3 -15 3 4 7 -3 8 -24
2 -22 -6 -30 -5 -30 5 0 7 -9 15 -20 18 -12 3 -20 14 -20 26 0 17 8 21 50 27
48 6 51 8 46 33 -3 14 -10 73 -16 131 -6 58 -17 157 -25 220 -15 119 -35 303
-60 565 -8 83 -18 161 -21 175 -5 24 -15 141 -16 190 -1 58 1 62 22 57 27 -7
87 22 69 34 -8 4 -16 4 -19 -2 -4 -5 -33 -8 -65 -5 -32 2 -70 0 -85 -4 -35
-10 -45 -3 -53 37 -8 42 8 53 73 53 l30 0 -4 58 c-3 31 -10 86 -15 122 -6 36
-13 94 -16 130 -3 36 -10 116 -16 178 l-11 112 -95 0 -94 0 7 -37z m2073 -218
l0 -20 -9 20 c-5 11 -9 27 -9 35 -1 13 0 13 9 0 5 -8 9 -24 9 -35z m1655 -176
c-3 -5 -10 -7 -15 -3 -5 3 -7 10 -3 15 3 5 10 7 15 3 5 -3 7 -10 3 -15z m-123
-51 c0 -29 2 -62 4 -73 7 -39 26 -528 20 -533 -3 -3 -5 3 -6 14 0 10 -2 33 -5
49 -2 17 -7 68 -12 113 -5 46 -13 87 -19 90 -5 4 -16 39 -22 77 -7 39 -16 79
-21 90 -9 20 -14 49 -26 157 -7 61 -5 64 59 67 26 1 27 -1 28 -51z m-1056 32
c-4 -7 7 -8 32 -4 21 3 83 6 138 7 l100 2 12 -215 c6 -118 14 -276 18 -350 18
-363 23 -428 35 -450 8 -16 9 -25 3 -27 -12 -4 -6 -218 12 -450 3 -36 1 -53
-9 -56 -15 -6 -192 -15 -409 -22 -81 -2 -152 -7 -157 -10 -13 -8 -13 1 2 24 9
15 9 54 -1 173 -7 84 -17 157 -22 163 -5 5 -9 -2 -10 -20 0 -17 -4 -39 -9 -50
-7 -16 -9 -14 -10 15 0 19 -5 53 -10 74 -5 22 -12 109 -16 195 -6 141 -5 154
9 143 9 -8 18 -26 20 -40 2 -15 5 13 6 61 1 67 -2 88 -11 85 -7 -3 -14 -17
-16 -32 -2 -18 0 -26 7 -21 6 3 11 2 11 -3 0 -6 -7 -12 -15 -16 -24 -9 -20 59
5 84 18 18 19 30 15 113 -2 50 -7 108 -10 127 -7 49 -25 323 -25 391 l0 57 43
5 c47 5 95 15 117 23 8 4 39 8 69 10 30 2 59 8 65 14 13 13 19 13 11 0z m582
-192 c-3 -90 -1 -246 4 -347 11 -197 8 -234 -18 -229 -20 4 -19 -3 -33 221 -6
100 -13 202 -15 227 -2 25 -6 98 -10 162 l-6 117 28 4 c15 2 34 5 42 6 12 1
13 -26 8 -161z m-1074 90 c4 -18 9 -91 13 -162 l7 -129 -24 8 c-30 9 -74 14
-161 18 -38 2 -73 9 -83 17 -9 8 -33 13 -53 13 -39 -1 -141 18 -184 35 -24 10
-27 18 -33 76 -4 36 -5 72 -2 79 5 13 69 25 237 43 51 5 257 30 271 33 4 1 9
-14 12 -31z m-727 -148 c-2 -17 -5 -32 -7 -34 -7 -6 -89 33 -89 43 0 11 23 18
67 20 31 1 32 -1 29 -29z m-241 -35 c16 -15 19 -165 4 -165 -8 0 -5 -5 5 -13
13 -10 18 -31 21 -87 3 -41 7 -92 11 -112 6 -37 6 -37 -28 -35 -19 1 -35 6
-36 12 -1 5 -3 57 -6 115 -3 58 -9 145 -15 194 -6 49 -8 93 -5 98 7 11 35 6
49 -7z m190 -49 c37 -16 40 -23 50 -123 5 -48 3 -63 -7 -63 -9 0 -10 -2 -1 -8
6 -4 14 -29 18 -57 4 -27 12 -55 17 -62 5 -7 7 -17 3 -22 -11 -19 6 -81 24
-82 14 -1 13 -2 -2 -6 -12 -3 -15 -11 -11 -29 4 -14 2 -24 -5 -24 -6 0 -11 9
-11 20 0 13 -5 18 -15 14 -15 -6 -22 20 -7 29 4 2 1 2 -5 1 -7 -2 -13 4 -13
14 0 14 -2 15 -10 2 -8 -13 -9 -13 -14 0 -2 8 -5 22 -5 30 -7 86 -10 111 -15
150 -6 42 -9 56 -21 120 -10 51 -16 110 -10 110 3 0 21 -6 40 -14z m1772 -63
c-3 -10 -5 -4 -5 12 0 17 2 24 5 18 2 -7 2 -21 0 -30z m-1394 5 c12 -9 14 -17
7 -28 -8 -12 -12 -13 -19 -2 -7 11 -9 11 -14 -2 -11 -29 -44 -19 -49 14 -4 28
-2 30 27 30 17 0 39 -6 48 -12z m182 -28 c3 -5 1 -10 -4 -10 -6 0 -11 5 -11
10 0 6 2 10 4 10 3 0 8 -4 11 -10z m45 -27 c0 -8 -4 -11 -10 -8 -5 3 -10 -1
-10 -9 0 -22 27 -20 33 2 3 9 5 -3 5 -28 0 -34 -2 -40 -8 -25 -8 18 -9 17 -9
-7 -1 -17 4 -28 13 -28 15 0 25 -67 32 -200 2 -41 5 -84 6 -95 3 -16 -4 -20
-43 -23 l-47 -3 -6 43 c-3 24 -9 103 -12 177 -6 108 -4 135 7 142 19 12 32 11
24 -1 -3 -5 -1 -18 4 -27 9 -15 10 -12 11 15 0 35 -26 55 -40 31 -5 -7 -12
-11 -15 -7 -4 3 3 16 14 27 12 12 21 28 21 36 0 9 6 12 15 9 8 -4 15 -13 15
-21z m-251 -24 c-19 -9 -36 -15 -39 -12 -3 3 1 8 8 10 7 3 18 11 25 18 7 7 18
10 26 7 9 -3 2 -11 -20 -23z m201 21 c0 -5 -4 -10 -10 -10 -5 0 -10 5 -10 10
0 6 5 10 10 10 6 0 10 -4 10 -10z m-160 -44 c0 -2 -7 -17 -15 -32 -12 -24 -15
-25 -15 -9 0 15 -3 17 -9 7 -7 -11 -9 -11 -14 2 -5 11 -1 16 13 16 11 0 20 5
20 10 0 6 5 10 10 10 6 0 10 -2 10 -4z m1590 -36 c0 -5 -5 -10 -11 -10 -5 0
-7 5 -4 10 3 6 8 10 11 10 2 0 4 -4 4 -10z m-1200 -4 c0 -3 -4 -8 -10 -11 -5
-3 -10 -1 -10 4 0 6 5 11 10 11 6 0 10 -2 10 -4z m-440 -31 c0 -8 -4 -15 -10
-15 -5 0 -10 7 -10 15 0 8 5 15 10 15 6 0 10 -7 10 -15z m30 -5 c0 -5 -4 -10
-10 -10 -5 0 -10 5 -10 10 0 6 5 10 10 10 6 0 10 -4 10 -10z m417 4 c-3 -3
-12 -4 -19 -1 -8 3 -5 6 6 6 11 1 17 -2 13 -5z m-395 -26 c-8 -8 -7 -14 4 -25
8 -8 14 -31 14 -51 1 -20 3 -54 6 -74 5 -30 2 -38 -10 -38 -9 0 -16 -4 -16
-10 0 -5 7 -7 15 -4 11 5 15 -1 15 -26 0 -30 -1 -31 -37 -28 l-38 3 0 60 c-1
33 -4 67 -7 75 -4 8 -7 22 -7 30 -1 8 -4 32 -7 53 l-6 37 36 0 c21 0 36 5 36
12 0 6 3 8 7 5 4 -4 2 -12 -5 -19z m412 -96 c7 -101 9 -172 4 -177 -16 -16
-26 28 -32 142 -6 114 -5 132 7 127 10 -4 16 -30 21 -92z m81 87 c-4 -5 1 -19
10 -29 10 -11 19 -41 21 -72 2 -29 7 -70 9 -91 4 -29 2 -37 -7 -31 -11 6 -11
5 0 -8 7 -8 15 -51 18 -94 3 -44 9 -122 14 -174 14 -168 19 -297 9 -275 -7 16
-8 13 -5 -12 3 -18 1 -35 -4 -38 -6 -3 -10 -16 -11 -28 0 -21 -1 -21 -8 -2 -5
11 -6 26 -4 33 3 6 1 12 -4 12 -5 0 -15 89 -22 198 -8 108 -15 215 -16 237
-13 162 -15 385 -5 385 6 0 8 -5 5 -11z m-692 -223 c-4 -29 -1 -46 8 -51 9 -6
11 -4 6 8 -3 9 -2 19 2 21 5 3 11 -13 14 -37 3 -23 2 -43 -4 -45 -5 -2 -9 -8
-9 -13 0 -6 4 -8 9 -5 5 3 11 -5 13 -19 4 -20 1 -26 -19 -31 -13 -4 -25 -5
-27 -3 -2 2 -7 51 -11 108 -5 75 -4 102 4 97 6 -4 11 -2 11 3 0 6 2 11 4 11 2
0 1 -20 -1 -44z m-178 -72 c19 -46 20 -44 -15 -44 -25 0 -30 -4 -30 -24 0 -27
16 -44 22 -24 3 8 11 5 24 -8 11 -11 18 -26 16 -34 -3 -7 0 -10 7 -6 6 4 11
21 11 38 0 26 2 29 15 18 13 -11 13 -16 -1 -48 -8 -21 -19 -38 -24 -40 -6 -2
-10 -10 -10 -18 0 -7 -11 -33 -24 -56 -17 -30 -30 -42 -43 -40 -10 2 -26 4
-35 5 -26 2 -22 14 7 21 24 6 36 26 15 26 -5 0 -10 7 -10 15 0 8 5 15 10 15 6
0 10 7 10 16 0 8 5 12 11 8 8 -4 8 0 0 15 -7 11 -18 21 -26 21 -19 0 -18 10 0
34 19 25 19 40 0 32 -8 -3 -15 -1 -15 3 0 5 8 12 17 15 15 6 14 8 -4 21 -11 7
-32 17 -46 20 -45 12 -32 32 27 45 68 14 75 12 91 -26z m255 27 c0 -5 6 -16
13 -23 16 -15 31 -108 18 -108 -5 0 -8 -7 -7 -16 0 -9 -5 -19 -13 -22 -10 -3
-12 1 -8 17 3 11 2 23 -2 26 -4 2 -9 30 -10 61 -1 32 -4 61 -7 66 -3 4 0 8 5
8 6 0 11 -4 11 -9z m-793 -63 c-3 -8 -6 -5 -6 6 -1 11 2 17 5 13 3 -3 4 -12 1
-19z m13 -28 c0 -5 -4 -10 -10 -10 -5 0 -10 5 -10 10 0 6 5 10 10 10 6 0 10
-4 10 -10z m400 -10 c0 -11 6 -19 12 -17 7 1 14 -8 16 -20 3 -17 -3 -24 -25
-29 -15 -4 -32 -9 -38 -12 -5 -3 -20 -7 -33 -8 -18 -2 -22 1 -18 12 3 9 6 24
6 35 0 12 7 19 20 19 10 0 24 9 30 20 6 11 15 20 20 20 6 0 10 -9 10 -20z
m402 -132 c3 -29 2 -57 -1 -63 -7 -12 -18 36 -20 83 -2 54 17 36 21 -20z
m1350 4 c-6 -2 -8 -10 -5 -18 4 -10 0 -12 -11 -8 -10 4 -16 18 -16 40 l0 34
22 -22 c13 -13 17 -23 10 -26z m-1411 3 c5 14 7 5 7 -30 0 -27 -3 -40 -5 -27
-5 23 -22 31 -24 10 -1 -7 -5 3 -9 22 -6 24 -5 37 3 42 8 5 13 -1 16 -15 3
-21 4 -21 12 -2z m1454 -23 c0 -9 -6 -26 -12 -37 -9 -16 -14 -18 -24 -7 -10 9
-10 12 -1 12 7 0 12 13 12 30 0 20 4 28 13 24 8 -3 13 -13 12 -22z m-1365 2
c0 -8 -5 -12 -10 -9 -6 4 -8 11 -5 16 9 14 15 11 15 -7z m324 -37 c3 3 6 -17
6 -46 0 -43 -3 -52 -15 -47 -9 3 -15 0 -15 -9 0 -8 7 -15 15 -15 20 0 19 -19
-1 -27 -13 -5 -13 -7 -2 -14 10 -7 10 -9 1 -9 -8 0 -13 -16 -14 -42 l-1 -43
-8 35 c-5 19 -5 40 0 45 5 6 5 17 0 25 -12 19 -24 136 -15 149 4 7 12 8 24 1
10 -5 21 -6 25 -3z m-680 -104 c-1 -15 -3 -31 -3 -35 -1 -5 -10 -8 -21 -8 -24
0 -26 26 -4 58 19 28 30 22 28 -15z m186 17 c0 -5 -2 -10 -4 -10 -3 0 -8 5
-11 10 -3 6 -1 10 4 10 6 0 11 -4 11 -10z m67 -57 c-3 -10 -5 -4 -5 12 0 17 2
24 5 18 2 -7 2 -21 0 -30z m1871 22 c43 3 52 1 53 -13 2 -40 10 -55 61 -114
29 -34 65 -88 79 -121 26 -59 60 -90 86 -80 7 3 21 2 31 -3 23 -10 29 -11 52
-13 24 -1 27 -29 4 -38 -9 -3 -29 1 -44 11 -40 23 -47 21 -54 -20 -7 -34 -30
-44 -31 -13 -1 13 -5 13 -49 1 -13 -3 -17 -1 -14 9 3 8 16 14 29 14 15 0 24 6
24 15 0 8 4 21 9 28 6 10 2 11 -16 7 -19 -4 -28 3 -52 35 -15 23 -30 40 -31
38 -2 -2 1 -25 6 -52 11 -58 -3 -83 -19 -37 -15 42 -24 39 -21 -7 3 -34 -22
-82 -42 -82 -3 0 -12 19 -19 43 -23 76 -35 97 -52 97 -10 0 -18 5 -18 10 0 20
-19 9 -22 -12 -3 -20 -6 -18 -25 18 -31 59 -73 106 -89 100 -8 -3 -26 1 -41 9
-16 8 -45 17 -65 20 -58 9 -50 35 25 89 61 44 162 80 182 65 6 -4 34 -6 63 -4z
m236 -69 c10 -75 4 -86 -46 -86 -25 0 -28 4 -30 33 -3 59 1 79 19 94 17 13 16
13 -4 3 -20 -9 -23 -8 -23 10 0 18 5 21 38 18 l37 -3 9 -69z m-2169 54 c3 -5
1 -10 -4 -10 -6 0 -11 5 -11 10 0 6 2 10 4 10 3 0 8 -4 11 -10z m-19 -47 c9 9
46 -12 39 -23 -7 -11 -65 8 -65 21 0 5 -6 9 -14 9 -19 0 -29 17 -20 32 5 7 15
2 30 -17 13 -16 26 -26 30 -22z m-183 -43 c4 -16 -1 -34 -13 -50 l-18 -24 -19
22 c-10 13 -29 28 -42 35 -41 20 -34 33 21 43 59 11 63 9 71 -26z m124 34 c-3
-3 -12 -4 -19 -1 -8 3 -5 6 6 6 11 1 17 -2 13 -5z m560 -46 c-3 -7 -5 -2 -5
12 0 14 2 19 5 13 2 -7 2 -19 0 -25z m-397 -16 c0 -10 5 -23 11 -29 20 -20 -1
-36 -22 -17 -14 13 -16 20 -8 30 6 7 8 18 4 24 -3 5 -1 10 4 10 6 0 11 -8 11
-18z m-57 -24 c-5 -10 -33 10 -33 23 0 5 9 4 19 -3 11 -7 17 -16 14 -20z
m-133 -44 c0 -8 -7 -14 -15 -14 -8 0 -15 9 -15 20 0 13 5 18 15 14 8 -4 15
-12 15 -20z m235 16 c3 -5 1 -10 -4 -10 -6 0 -11 5 -11 10 0 6 2 10 4 10 3 0
8 -4 11 -10z m-419 -15 c10 -26 -1 -35 -13 -10 -6 14 -7 25 -2 25 5 0 12 -7
15 -15z m-236 -5 c0 -5 -7 -7 -15 -4 -8 4 -15 8 -15 10 0 2 7 4 15 4 8 0 15
-4 15 -10z m80 0 c0 -5 -4 -10 -9 -10 -6 0 -13 5 -16 10 -3 6 1 10 9 10 9 0
16 -4 16 -10z m420 -12 c0 -6 -7 -7 -16 -4 -9 3 -18 6 -20 6 -3 0 -3 4 1 10 7
11 35 2 35 -12z m2864 -17 c3 -4 3 -11 0 -14 -8 -8 -34 3 -34 14 0 11 27 12
34 0z m-154 -10 c0 -4 -11 -6 -25 -3 -14 2 -25 6 -25 8 0 2 11 4 25 4 14 0 25
-4 25 -9z m66 0 c-3 -5 -17 -8 -31 -8 -14 0 -25 3 -25 8 0 5 14 9 31 9 16 0
28 -4 25 -9z m39 -11 c3 -6 -4 -10 -17 -10 -18 0 -20 2 -8 10 19 12 18 12 25
0z m-3135 -10 c12 -7 12 -12 2 -22 -10 -10 -15 -10 -22 2 -19 29 -9 39 20 20z
m188 -18 c6 -18 -15 -14 -22 4 -4 10 -1 14 6 12 6 -2 14 -10 16 -16z m76 12
c13 -5 14 -9 5 -20 -9 -11 -15 -11 -25 -3 -8 6 -11 15 -8 20 6 11 8 11 28 3z
m-139 -14 c3 -5 1 -10 -4 -10 -6 0 -11 5 -11 10 0 6 2 10 4 10 3 0 8 -4 11
-10z m2081 -77 c3 -13 3 -30 0 -40 -6 -14 -9 -14 -22 6 -9 12 -18 41 -21 64
l-5 42 21 -25 c12 -14 24 -35 27 -47z m-1423 50 c-13 -2 -33 -2 -45 0 -13 2
-3 4 22 4 25 0 35 -2 23 -4z m700 0 c-7 -2 -19 -2 -25 0 -7 3 -2 5 12 5 14 0
19 -2 13 -5z m-786 -9 c-3 -3 -12 -4 -19 -1 -8 3 -5 6 6 6 11 1 17 -2 13 -5z
m-1150 -36 c-3 -7 -5 -2 -5 12 0 14 2 19 5 13 2 -7 2 -19 0 -25z m1193 12 c0
-13 -11 -13 -30 0 -12 8 -11 10 8 10 12 0 22 -4 22 -10z m60 -15 c0 -8 8 -16
18 -18 9 -3 -1 -5 -22 -4 -24 1 -41 8 -44 16 -3 10 0 12 13 7 12 -4 16 -2 12
8 -4 10 -1 13 9 9 7 -3 14 -11 14 -18z m-770 0 c0 -8 -7 -15 -15 -15 -8 0 -15
7 -15 15 0 8 7 15 15 15 8 0 15 -7 15 -15z m120 0 c0 -12 -19 -12 -23 0 -4 9
-1 12 9 8 7 -3 14 -7 14 -8z m-270 -5 c0 -5 -2 -10 -4 -10 -3 0 -8 5 -11 10
-3 6 -1 10 4 10 6 0 11 -4 11 -10z m214 -6 c9 -24 7 -27 -9 -10 -17 17 -19 26
-6 26 5 0 12 -7 15 -16z m-154 -4 c0 -5 -2 -10 -4 -10 -3 0 -8 5 -11 10 -3 6
-1 10 4 10 6 0 11 -4 11 -10z m2950 -34 c0 -2 -9 -6 -20 -9 -11 -3 -18 -1 -14
4 5 9 34 13 34 5z m511 -74 c1 -34 -1 -65 -4 -69 -4 -3 -7 27 -7 67 0 88 9 90
11 2z m-3441 32 c0 -9 -5 -14 -12 -12 -18 6 -21 28 -4 28 9 0 16 -7 16 -16z
m80 -4 c0 -11 -2 -20 -5 -20 -2 0 -9 9 -15 20 -9 16 -8 20 5 20 8 0 15 -9 15
-20z m2194 -21 c-7 -13 -24 7 -24 29 0 10 4 10 16 -2 8 -9 12 -21 8 -27z
m-2116 12 c3 -8 -1 -12 -9 -9 -7 2 -15 10 -17 17 -3 8 1 12 9 9 7 -2 15 -10
17 -17z m37 9 c3 -5 1 -10 -4 -10 -6 0 -11 5 -11 10 0 6 2 10 4 10 3 0 8 -4
11 -10z m920 -29 c3 -5 1 -12 -5 -16 -5 -3 -10 1 -10 9 0 18 6 21 15 7z
m-1518 -53 c-3 -8 -6 -5 -6 6 -1 11 2 17 5 13 3 -3 4 -12 1 -19z m2353 -119
c0 -131 -13 -165 -24 -61 -20 188 -19 215 9 192 12 -10 15 -38 15 -131z
m-1851 118 c6 -8 8 -16 5 -20 -10 -9 -34 4 -34 19 0 18 14 18 29 1z m71 -1 c0
-8 -4 -18 -10 -21 -5 -3 -10 3 -10 14 0 12 5 21 10 21 6 0 10 -6 10 -14z m50
-12 c0 -8 -4 -12 -10 -9 -5 3 -10 10 -10 16 0 5 5 9 10 9 6 0 10 -7 10 -16z
m2074 -34 c3 -18 12 -30 21 -30 16 0 18 -12 9 -47 -8 -31 -20 -29 -28 5 -3 15
-10 44 -15 65 -5 20 -5 37 -1 37 4 0 10 -13 14 -30z m-2024 -35 c0 -14 -4 -25
-9 -25 -4 0 -6 11 -3 25 2 14 6 25 8 25 2 0 4 -11 4 -25z m-156 -11 c4 -9 4
-19 1 -22 -7 -8 -35 19 -29 29 8 14 21 11 28 -7z m72 7 c-4 -5 0 -12 6 -14 8
-3 6 -6 -4 -6 -18 -1 -24 10 -11 22 9 10 15 8 9 -2z m48 -6 c3 -8 1 -15 -4
-15 -6 0 -10 7 -10 15 0 8 2 15 4 15 2 0 6 -7 10 -15z m-1453 -15 c-23 -20
-61 -27 -61 -12 0 17 25 32 55 32 l30 -1 -24 -19z m986 -40 c9 -12 21 -16 40
-12 25 5 27 4 14 -11 -12 -15 -11 -17 10 -17 17 0 20 -3 12 -11 -8 -8 -17 -7
-34 5 -16 11 -34 14 -61 10 -29 -5 -38 -3 -38 7 0 11 -14 14 -57 12 -52 -2
-56 -1 -40 12 11 7 25 11 32 9 7 -3 16 -1 19 4 10 17 90 11 103 -8z m488 -3
c-5 -20 1 -27 45 -51 38 -21 55 -25 63 -17 18 18 27 13 27 -15 0 -14 5 -34 10
-44 13 -25 -2 -34 -46 -26 -20 4 -34 13 -34 21 0 8 5 15 10 15 6 0 10 3 10 8
0 4 -17 7 -39 7 l-38 0 4 -40 5 -40 -20 35 c-14 25 -17 39 -9 48 8 10 5 19
-12 35 -19 19 -24 20 -34 7 -14 -17 -63 -28 -53 -11 4 6 4 11 -1 11 -13 0 -32
-50 -27 -68 5 -15 4 -15 -9 0 -8 10 -17 15 -20 11 -4 -3 -12 -1 -20 5 -7 6
-35 12 -61 14 -27 2 -51 8 -53 14 -4 12 8 12 76 0 61 -11 92 6 85 48 l-5 31
19 -22 c23 -26 50 -30 58 -8 4 10 13 13 25 10 14 -5 19 -1 19 13 0 17 7 25 28
31 1 1 0 -9 -3 -22z m345 -53 c12 -37 7 -84 -10 -84 -6 0 -10 12 -10 28 0 48
-2 67 -13 80 -7 8 -5 12 6 12 9 0 20 -15 27 -36z m159 9 c0 -16 2 -45 6 -65 5
-24 4 -38 -3 -38 -11 0 -21 83 -14 113 6 26 12 21 11 -10z m225 -9 c3 -8 2
-12 -4 -9 -6 3 -10 -5 -10 -19 0 -14 5 -26 10 -26 6 0 10 -10 10 -22 -1 -22
-1 -23 -15 -4 -8 11 -15 37 -15 58 0 39 13 51 24 22z m-1124 -44 c0 -5 -2 -10
-4 -10 -3 0 -8 5 -11 10 -3 6 -1 10 4 10 6 0 11 -4 11 -10z m687 -17 c4 -10
-74 -40 -81 -32 -2 2 -6 13 -10 24 -5 19 -2 21 41 19 26 -1 49 -6 50 -11z
m1862 -38 c14 -27 33 -57 42 -65 19 -17 32 -97 17 -106 -5 -3 -21 -7 -35 -9
-31 -3 -53 -29 -53 -62 0 -16 -6 -23 -20 -23 -27 0 -25 20 10 85 32 59 38 109
19 164 -6 17 -17 31 -24 31 -18 0 -30 -39 -16 -53 17 -17 13 -26 -9 -20 -24 6
-25 15 -3 71 21 55 38 52 72 -13z m-2319 16 c0 -6 -4 -13 -10 -16 -5 -3 -10 1
-10 9 0 9 5 16 10 16 6 0 10 -4 10 -9z m-125 -11 c11 -17 -5 -32 -21 -19 -8 6
-14 15 -14 20 0 12 27 11 35 -1z m34 -56 c-12 -14 -14 -14 -21 6 -5 13 -3 26
5 35 18 20 35 -19 16 -41z m161 -23 c-14 -5 -40 -16 -58 -25 -19 -10 -36 -15
-39 -13 -7 8 78 45 102 45 16 0 14 -1 -5 -7z m2426 -38 c-18 -33 -21 -26 -6
13 6 15 13 24 16 21 3 -3 -1 -18 -10 -34z m-26 -26 c0 -4 -7 -18 -15 -30 -9
-15 -11 -27 -5 -37 8 -12 10 -11 11 5 0 11 3 14 6 7 3 -7 -1 -19 -7 -27 -15
-18 -34 -20 -24 -3 5 7 2 9 -7 6 -11 -4 -14 6 -16 40 -2 57 10 76 38 59 10 -6
19 -15 19 -20z m-3732 -89 c2 -9 -5 -18 -14 -22 -22 -8 -24 -5 -17 22 6 25 26
25 31 0z m472 -33 c0 -45 -17 -95 -32 -95 -4 0 -8 6 -8 14 0 9 -9 14 -20 13
-11 -1 -20 -7 -20 -14 0 -13 -60 -33 -102 -33 -18 0 -28 5 -28 15 0 8 -11 17
-25 21 -14 3 -22 10 -19 15 3 5 -5 13 -18 18 -28 11 -55 78 -32 78 8 0 14 -3
14 -7 0 -4 11 -5 23 -3 14 3 31 -2 41 -13 17 -16 20 -16 59 4 51 26 60 20 21
-13 -21 -18 -24 -25 -13 -25 9 0 19 -7 23 -15 8 -22 23 -19 48 10 12 14 27 25
33 25 6 0 18 11 25 25 20 37 30 30 30 -20z m1860 -29 c-7 -7 -10 1 -9 25 0 32
1 33 10 10 6 -16 6 -28 -1 -35z m-2305 14 c-4 -14 -2 -20 8 -20 8 0 17 10 20
21 5 20 7 20 21 6 19 -18 20 -37 5 -71 -20 -44 -50 -44 -82 -1 -16 23 -16 25
-1 25 10 0 14 5 10 16 -3 8 0 21 7 29 17 20 19 18 12 -5z m3224 -58 c9 -37 11
-84 6 -160 -10 -142 -24 -174 -24 -57 -1 50 -4 135 -7 190 -7 108 3 118 25 27z
m-4207 -54 c-6 -6 -15 -8 -19 -4 -4 4 -1 11 7 16 19 12 27 3 12 -12z m1378 3
c0 -10 -7 -21 -15 -25 -9 -3 -15 0 -15 10 0 8 5 12 10 9 6 -3 10 1 10 9 0 9 2
16 5 16 3 0 5 -9 5 -19z m830 -20 c0 -10 -7 -32 -16 -47 l-16 -29 6 34 c3 18
6 40 6 47 0 8 5 14 10 14 6 0 10 -8 10 -19z m-1477 -97 c-7 -3 -10 -11 -8 -17
3 -7 -4 -23 -15 -37 -11 -14 -20 -19 -20 -12 0 9 -7 11 -22 6 -19 -6 -17 -1
12 29 19 19 42 35 50 35 9 0 10 -1 3 -4z m2166 -21 c34 -20 49 -49 33 -65 -7
-7 -18 -2 -35 16 -13 14 -26 23 -29 21 -3 -3 -21 -6 -41 -7 -20 -1 -34 -5 -31
-9 2 -4 -5 -14 -17 -23 -12 -8 -19 -21 -17 -28 8 -19 -9 -58 -24 -58 -8 0 -14
17 -16 46 -3 40 1 49 33 81 29 29 40 34 63 29 20 -5 23 -4 12 4 -27 18 36 12
69 -7z m-2785 -50 c-13 -10 -22 -8 -45 9 -16 12 -29 25 -29 29 0 17 47 13 67
-6 20 -18 21 -21 7 -32z m4626 -3 c0 -5 -4 -10 -10 -10 -5 0 -10 5 -10 10 0 6
5 10 10 10 6 0 10 -4 10 -10z m-4095 -30 c-5 -16 -10 -19 -18 -11 -7 7 -6 15
3 26 17 20 24 13 15 -15z m2244 13 c18 18 13 -14 -6 -35 -15 -17 -15 -19 0
-36 26 -29 20 -35 -13 -15 -27 16 -32 16 -40 3 -14 -22 -12 -28 13 -33 19 -4
18 -4 -6 -6 -35 -1 -44 20 -22 52 11 17 13 27 6 32 -6 3 -11 14 -11 25 0 15 5
17 34 10 22 -5 39 -3 45 3z m-3399 -17 c0 -8 -7 -16 -15 -20 -15 -5 -21 14 -8
27 11 12 23 8 23 -7z m1948 -51 c26 -54 27 -68 7 -85 -13 -10 -19 -10 -35 5
-15 14 -20 31 -20 72 0 67 18 70 48 8z m724 3 c-9 -9 -12 -7 -12 12 0 19 3 21
12 12 9 -9 9 -15 0 -24z m-874 -43 c-2 -24 -18 -37 -18 -15 0 6 -3 9 -7 9 -22
-4 -24 3 -8 21 22 24 35 17 33 -15z m-268 4 c0 -11 4 -18 8 -15 4 2 14 0 22
-6 12 -8 12 -9 -2 -4 -11 3 -18 0 -19 -7 0 -9 -2 -9 -6 1 -2 6 -9 12 -14 12
-6 0 -7 -4 -4 -10 3 -5 2 -10 -3 -10 -11 0 -23 40 -16 52 10 16 34 8 34 -13z
m1758 -26 c-6 -7 -14 -13 -18 -13 -14 0 -20 32 -9 46 10 12 14 11 24 -3 10
-13 10 -22 3 -30z m95 -20 c-7 -2 -19 -2 -25 0 -7 3 -2 5 12 5 14 0 19 -2 13
-5z m-2426 -25 c-3 -8 -6 -5 -6 6 -1 11 2 17 5 13 3 -3 4 -12 1 -19z m777 -5
c4 -4 17 -8 29 -8 19 0 22 -5 21 -42 l0 -43 68 5 c249 18 251 18 259 -48 3
-33 1 -51 -8 -59 -15 -12 -173 -4 -236 13 -37 10 -40 8 -97 -37 -49 -40 -59
-54 -64 -88 -4 -23 -15 -65 -24 -93 -20 -61 -14 -59 -184 -68 -59 -3 -115 -8
-125 -11 -15 -5 -16 -4 -3 5 8 6 31 11 51 11 48 0 64 16 83 81 8 30 28 73 44
95 42 57 124 137 158 154 57 28 58 30 18 71 -23 24 -34 43 -31 53 7 17 28 21
41 9z m1623 -9 c-3 -3 -12 -4 -19 -1 -8 3 -5 6 6 6 11 1 17 -2 13 -5z m50 0
c-3 -3 -12 -4 -19 -1 -8 3 -5 6 6 6 11 1 17 -2 13 -5z m-2447 -70 c0 -8 -7
-14 -15 -14 -17 0 -18 2 -9 24 7 18 24 12 24 -10z m3 -31 c-7 -2 -19 -2 -25 0
-7 3 -2 5 12 5 14 0 19 -2 13 -5z m-5 -135 c-2 -12 -10 -23 -18 -26 -12 -3
-12 -2 -3 8 6 7 9 19 6 26 -3 8 0 14 7 14 6 0 10 -10 8 -22z m-4 -143 c3 -9 0
-15 -9 -15 -8 0 -15 7 -15 15 0 8 4 15 9 15 5 0 11 -7 15 -15z m333 -101 c-3
-3 -12 -4 -19 -1 -8 3 -5 6 6 6 11 1 17 -2 13 -5z m703 -24 c0 -5 -5 -10 -11
-10 -5 0 -7 5 -4 10 3 6 8 10 11 10 2 0 4 -4 4 -10z m247 4 c-3 -3 -12 -4 -19
-1 -8 3 -5 6 6 6 11 1 17 -2 13 -5z m-250 -24 c13 0 23 6 24 13 0 6 2 7 5 2 4
-10 53 -11 84 -3 8 3 12 3 8 1 -22 -13 -3 -24 32 -20 22 2 40 2 40 -2 0 -3 26
-7 57 -9 32 -1 62 -7 67 -12 14 -14 -55 -12 -149 5 -44 8 -110 15 -147 15 -57
0 -68 3 -68 17 0 13 3 14 12 5 7 -7 22 -12 35 -12z m284 -1 c-16 -6 -28 -6
-35 1 -7 7 1 10 25 9 32 0 33 -1 10 -10z m89 -3 c0 -3 -4 -8 -10 -11 -5 -3
-10 -1 -10 4 0 6 5 11 10 11 6 0 10 -2 10 -4z m90 -16 c0 -5 9 -10 19 -10 29
0 33 -26 6 -40 -17 -9 -28 -9 -41 -1 -17 9 -16 10 9 11 15 0 27 5 27 11 0 6
-9 8 -22 3 -13 -3 -20 -3 -16 1 4 5 3 14 -3 22 -9 10 -8 13 5 13 9 0 16 -4 16
-10z m1003 -277 c-22 -17 -82 -28 -94 -16 -5 5 4 14 24 21 19 7 40 24 48 38
l14 26 12 -28 c10 -24 9 -31 -4 -41z m387 -188 c-7 -8 -17 -15 -22 -15 -6 0
-5 7 2 15 7 8 17 15 22 15 6 0 5 -7 -2 -15z m-3423 -377 c-3 -7 -5 -2 -5 12 0
14 2 19 5 13 2 -7 2 -19 0 -25z m3178 1 c31 -14 45 -27 45 -44 0 -6 -3 -5 -8
1 -13 20 -56 38 -60 25 -2 -6 -10 -11 -18 -11 -8 0 -11 6 -8 15 4 11 2 13 -9
10 -8 -4 -17 1 -20 9 -7 19 31 16 78 -5z m199 -476 c-21 -15 -30 -3 -20 23 5
14 9 14 22 3 14 -12 14 -14 -2 -26z m-19 -103 c-3 -5 -16 -15 -28 -21 -22 -12
-22 -12 -3 10 19 21 43 30 31 11z m11 -66 c-10 -14 -20 -23 -23 -20 -3 3 2 17
11 32 10 14 20 23 23 20 3 -3 -2 -17 -11 -32z m-99 -230 c-3 -3 -12 -4 -19 -1
-8 3 -5 6 6 6 11 1 17 -2 13 -5z m-170 -321 c-9 -9 -20 -13 -24 -9 -4 4 -1 11
7 16 25 16 35 11 17 -7z m-2410 -410 c-4 -3 -2 -12 4 -19 14 -17 -17 -26 -56
-16 l-30 9 30 16 c30 16 64 23 52 10z m-970 -115 c42 -15 42 -25 -2 -44 -19
-8 -35 -20 -36 -27 0 -9 -2 -9 -5 0 -3 7 -12 9 -20 6 -18 -7 -18 -4 1 41 17
41 17 40 62 24z m124 -7 c-7 -5 -10 -14 -7 -20 4 -6 0 -11 -8 -11 -21 0 -20
27 1 39 21 11 34 4 14 -8z m2789 13 c0 -3 -7 -13 -16 -21 -20 -20 -12 -82 13
-100 9 -7 15 -15 12 -17 -2 -2 -63 -33 -135 -68 l-131 -64 -6 77 c-4 51 -2 85
6 102 15 32 107 76 180 87 72 10 77 11 77 4z m-2845 -53 c-6 -5 -25 10 -25 20
0 5 6 4 14 -3 8 -7 12 -15 11 -17z m2230 -102 c-4 -13 -2 -25 5 -29 9 -5 -1
-17 -30 -36 -37 -25 -54 -29 -109 -29 -36 0 -95 6 -131 14 -36 7 -83 16 -105
20 l-40 7 40 12 c55 15 88 18 102 9 7 -4 39 1 71 12 33 11 88 24 123 29 35 5
68 10 72 11 5 0 5 -9 2 -20z m-1730 -39 c-3 -5 -11 -10 -16 -10 -6 0 -7 5 -4
10 3 6 11 10 16 10 6 0 7 -4 4 -10z m-20 -110 c8 0 17 -9 20 -21 8 -25 -26
-61 -63 -65 -31 -4 -37 -10 -25 -26 5 -7 10 -25 11 -39 1 -20 -4 -28 -21 -33
-12 -3 -25 -2 -29 2 -3 4 5 45 19 92 14 47 28 97 30 112 l5 28 20 -25 c11 -14
26 -25 33 -25z m2530 1 c-13 -22 -84 -71 -89 -62 -3 5 13 23 36 40 41 30 65
40 53 22z m-3670 -16 c-22 -8 -44 -15 -50 -14 -18 0 50 27 70 28 11 0 2 -6
-20 -14z m-185 -75 c0 -10 74 -5 91 6 5 3 9 2 9 -3 0 -4 -21 -18 -46 -29 -45
-21 -47 -21 -51 -3 -5 20 -28 26 -37 10 -5 -8 -56 -22 -56 -15 0 5 73 43 83
44 4 0 7 -4 7 -10z m2557 -17 c3 -7 -8 -15 -24 -19 -15 -4 -34 -11 -40 -17
-10 -7 -13 -4 -13 11 0 36 67 57 77 25z m1743 -113 c0 -5 -5 -10 -11 -10 -5 0
-7 5 -4 10 3 6 8 10 11 10 2 0 4 -4 4 -10z m-28 -10 c2 -5 19 -12 38 -14 19
-3 69 -12 110 -20 41 -9 79 -16 83 -16 5 0 6 -4 3 -8 -3 -5 -29 -5 -58 -1 -29
4 -93 13 -142 18 -90 11 -141 31 -77 31 19 0 30 4 26 10 -3 6 -2 10 4 10 5 0
11 -4 13 -10z m-3209 -67 c-7 -2 -19 -2 -25 0 -7 3 -2 5 12 5 14 0 19 -2 13
-5z m-1279 -19 c9 -3 16 -10 16 -15 0 -7 -18 -7 -48 0 -4 1 8 21 13 21 2 0 10
-3 19 -6z m2582 -153 c-3 -4 -22 -8 -43 -9 -24 -2 -34 0 -28 7 19 18 82 20 71
2z m-111 -26 c-35 -17 -114 -45 -135 -49 -8 -1 -23 -6 -33 -10 -10 -5 -20 -6
-23 -3 -3 3 16 13 43 22 55 20 78 28 113 43 14 6 34 11 45 11 15 0 13 -3 -10
-14z m-1225 2 c0 -2 -14 -16 -31 -33 -23 -22 -29 -25 -23 -9 11 27 26 44 42
45 6 0 12 -1 12 -3z m-60 -11 c0 -11 -19 -15 -25 -6 -3 5 1 10 9 10 9 0 16 -2
16 -4z m3527 -52 c-9 -9 -28 6 -21 18 4 6 10 6 17 -1 6 -6 8 -13 4 -17z
m-2457 -11 c-8 -3 -37 -17 -64 -30 -26 -13 -45 -19 -41 -13 9 15 84 50 105 49
13 -1 13 -1 0 -6z m890 -65 c0 -12 -3 -18 -7 -14 -11 10 -12 36 -2 36 5 0 9
-10 9 -22z m374 -165 c-3 -40 -11 -74 -20 -83 -12 -13 -14 -11 -13 15 2 32 27
135 34 135 2 0 1 -30 -1 -67z m-1419 37 l20 -9 -20 0 c-11 0 -27 4 -35 9 -13
9 -13 10 0 9 8 0 24 -4 35 -9z m-17 -97 c-9 -10 -18 -25 -21 -33 -5 -13 -6
-13 -6 0 -1 19 29 64 37 56 3 -3 -2 -14 -10 -23z m1364 -65 c-17 -8 -26 -8
-34 0 -9 9 -4 12 23 11 32 0 33 -1 11 -11z m-2 -148 c0 -5 -8 -10 -17 -10 -15
0 -16 2 -3 10 19 12 20 12 20 0z m-17 -39 c-21 -18 -31 -41 -17 -41 3 0 19 14
34 30 38 41 59 38 24 -3 -16 -18 -37 -44 -47 -57 -17 -24 -18 -24 -14 -3 3 12
1 23 -4 25 -5 2 -10 14 -11 27 -2 19 3 26 22 32 37 10 37 10 13 -10z"/>
<path d="M4877 7306 c-6 -15 1 -26 15 -26 11 0 10 27 -1 34 -5 3 -11 0 -14 -8z"/>
<path d="M4890 7211 c0 -5 5 -13 10 -16 6 -3 10 -2 10 4 0 5 -4 13 -10 16 -5
3 -10 2 -10 -4z"/>
<path d="M4902 7115 c0 -16 2 -22 5 -12 2 9 2 23 0 30 -3 6 -5 -1 -5 -18z"/>
<path d="M3871 7844 c0 -11 3 -14 6 -6 3 7 2 16 -1 19 -3 4 -6 -2 -5 -13z"/>
<path d="M3920 7707 c0 -14 -4 -29 -10 -32 -5 -3 -10 -12 -9 -18 0 -8 2 -8 6
1 4 10 8 10 20 0 13 -10 14 -7 9 27 -8 47 -16 58 -16 22z"/>
<path d="M4444 7730 c3 -14 6 -33 6 -42 0 -10 4 -18 10 -18 13 0 5 59 -10 73
-10 10 -11 7 -6 -13z"/>
<path d="M3870 7180 c0 -5 5 -10 10 -10 6 0 10 5 10 10 0 6 -4 10 -10 10 -5 0
-10 -4 -10 -10z"/>
<path d="M6011 6984 c0 -11 3 -14 6 -6 3 7 2 16 -1 19 -3 4 -6 -2 -5 -13z"/>
<path d="M2545 5870 c-8 -26 4 -48 16 -29 12 19 11 49 0 49 -5 0 -12 -9 -16
-20z"/>
<path d="M2230 5645 c-7 -9 -10 -18 -7 -21 3 -3 10 4 17 15 13 25 8 27 -10 6z"/>
<path d="M3136 8733 c-3 -3 -2 -12 1 -20 3 -8 7 -22 8 -31 4 -33 18 -82 23
-82 8 0 42 42 42 52 0 5 -4 6 -10 3 -6 -3 -7 1 -4 9 3 9 2 16 -3 16 -5 0 -9
12 -8 27 0 22 -5 28 -22 29 -12 1 -24 -1 -27 -3z"/>
<path d="M7080 8700 c0 -29 4 -40 15 -40 11 0 15 11 15 40 0 29 -4 40 -15 40
-11 0 -15 -11 -15 -40z"/>
<path d="M5200 8660 c0 -11 5 -20 10 -20 6 0 10 9 10 20 0 11 -4 20 -10 20 -5
0 -10 -9 -10 -20z"/>
<path d="M3760 8200 c0 -5 7 -10 15 -10 8 0 15 5 15 10 0 6 -7 10 -15 10 -8 0
-15 -4 -15 -10z"/>
<path d="M3658 8173 c7 -3 16 -2 19 1 4 3 -2 6 -13 5 -11 0 -14 -3 -6 -6z"/>
<path d="M3180 8088 c0 -4 11 -8 25 -8 14 0 25 4 25 10 0 5 -11 9 -25 8 -14
-1 -25 -6 -25 -10z"/>
<path d="M3240 8090 c0 -5 5 -10 10 -10 6 0 10 5 10 10 0 6 -4 10 -10 10 -5 0
-10 -4 -10 -10z"/>
<path d="M10155 7792 c-38 -4 -58 -22 -25 -22 30 0 17 -13 -27 -28 -34 -11
-42 -5 -20 17 10 10 -1 11 -52 6 -68 -6 -74 -9 -145 -72 -56 -50 -70 -99 -42
-154 19 -37 21 -82 5 -110 -8 -16 -7 -25 7 -40 12 -14 15 -28 10 -58 -7 -46 8
-119 35 -172 11 -20 19 -44 19 -54 0 -9 9 -19 20 -22 20 -5 20 -14 3 -78 -3
-10 -7 -36 -8 -56 -4 -42 -21 -79 -37 -79 -6 0 -4 10 6 25 29 44 17 51 -18 10
-19 -22 -37 -38 -40 -35 -3 3 13 27 35 53 22 26 38 47 35 47 -13 0 -81 -41
-81 -48 0 -18 -75 -73 -103 -75 -18 -1 -29 -7 -28 -16 1 -8 -5 -16 -12 -18 -7
-3 -10 1 -6 11 3 9 4 16 0 16 -3 0 -15 -21 -27 -47 -30 -67 -35 -150 -14 -263
10 -52 20 -123 22 -156 5 -53 2 -65 -16 -83 -22 -22 -29 -75 -10 -86 21 -14
31 -62 30 -149 0 -48 4 -96 9 -105 5 -9 5 -23 1 -30 -11 -17 -101 77 -101 105
0 12 -7 28 -17 35 -15 13 -15 11 -8 -26 4 -22 11 -56 14 -75 11 -64 54 -103
129 -115 41 -7 55 -19 30 -28 -7 -2 2 -12 21 -21 27 -14 41 -16 72 -8 22 5 39
6 39 1 0 -5 -11 -11 -24 -15 -22 -5 -54 -60 -42 -72 5 -4 71 15 100 30 26 14
44 -6 25 -28 -8 -9 -13 -19 -11 -21 1 -1 -1 -2 -5 0 -5 1 -7 6 -5 10 5 16 -27
18 -56 3 -16 -8 -62 -23 -102 -32 l-72 -16 5 -34 c4 -21 2 -34 -5 -34 -6 0 -8
-3 -4 -7 14 -14 121 -13 174 3 29 8 61 23 71 33 35 35 66 51 98 51 22 0 33 5
33 15 0 19 31 35 69 35 16 0 32 4 35 8 3 5 30 8 61 6 60 -3 66 -6 168 -104 31
-30 57 -61 57 -70 0 -15 23 -65 45 -100 27 -41 43 -111 34 -143 -5 -17 -9 -47
-9 -65 0 -18 -3 -31 -8 -28 -4 2 -7 -14 -7 -37 1 -26 -5 -48 -14 -58 -34 -35
-61 -70 -61 -79 0 -6 -4 -10 -9 -10 -5 0 -12 -13 -16 -29 -3 -16 -12 -32 -20
-35 -9 -3 -12 -16 -10 -33 2 -15 4 -41 4 -56 1 -21 6 -28 19 -26 40 4 82 -2
82 -11 0 -5 -10 -10 -21 -10 -21 0 -20 -1 5 -21 33 -26 33 -42 -1 -59 -31 -15
-54 -14 -65 3 -4 7 -8 10 -8 7 -1 -3 -3 -24 -5 -47 -3 -40 -1 -43 20 -43 32 0
40 17 13 26 -23 7 -22 7 5 15 42 11 81 -3 85 -31 2 -13 11 -30 20 -37 16 -11
15 -12 -3 -14 -11 -1 -24 -1 -30 0 -5 1 13 -18 40 -43 28 -25 44 -46 38 -46
-22 0 -14 -24 18 -55 20 -18 27 -31 19 -33 -7 -3 -15 0 -19 6 -4 7 -12 8 -21
2 -12 -7 -12 -12 3 -28 25 -28 34 -163 13 -185 -9 -9 -16 -20 -16 -26 0 -6 -7
-11 -16 -11 -11 0 -15 -6 -11 -19 3 -12 -3 -27 -14 -37 -20 -18 -27 -6 -7 14
6 6 9 15 5 18 -11 11 -39 -5 -44 -26 -7 -28 -22 -25 -17 3 3 12 -3 5 -13 -15
-12 -26 -26 -39 -46 -44 -42 -9 -45 3 -6 20 47 20 75 104 64 194 -4 34 -10 62
-14 62 -3 0 -19 11 -34 25 -20 19 -27 36 -27 63 -1 30 -3 34 -11 20 -33 -57
-80 43 -49 103 6 11 21 19 35 19 20 0 25 5 25 25 0 14 -4 25 -10 25 -5 0 -10
-4 -10 -8 0 -4 -16 -14 -35 -21 -19 -7 -41 -18 -48 -26 -30 -29 -119 -66 -154
-63 -30 3 -39 9 -60 48 -14 25 -31 51 -38 59 -11 11 -12 8 -10 -18 1 -17 5
-34 9 -38 11 -11 7 -25 -6 -17 -7 5 -9 2 -6 -7 34 -90 33 -87 8 -114 -45 -48
-82 -64 -166 -71 -58 -4 -98 -1 -149 11 -38 9 -88 19 -111 22 -26 3 -46 12
-55 26 -23 35 -101 117 -131 138 -19 14 -33 17 -44 11 -15 -8 -15 -10 0 -15
30 -12 16 -24 -34 -30 -28 -3 -63 -14 -79 -23 -41 -24 -68 -13 -136 55 -36 36
-62 56 -66 49 -6 -10 -26 -9 -113 4 -14 2 -21 -4 -26 -22 -3 -14 -13 -26 -22
-28 -22 -4 -33 30 -14 44 24 17 19 29 -12 30 -53 3 -172 72 -172 100 0 6 10
19 23 27 16 12 18 16 6 16 -22 1 -63 60 -66 96 -6 58 -4 87 6 99 6 7 6 17 1
26 -15 23 -12 38 12 60 27 25 22 25 -29 2 -34 -15 -38 -20 -26 -31 12 -11 12
-16 -1 -37 -17 -25 -22 -69 -7 -60 11 7 21 -18 28 -71 6 -53 -7 -55 -43 -7
-21 27 -27 47 -28 86 -1 32 -6 53 -14 56 -9 3 -11 -7 -6 -40 7 -55 24 -108 32
-108 15 0 54 -89 46 -102 -5 -7 -10 -33 -11 -58 -1 -24 -6 -46 -12 -48 -5 -2
-8 -9 -5 -17 3 -7 1 -16 -4 -19 -6 -3 -13 2 -16 11 -6 15 -8 15 -17 3 -7 -10
-8 4 -3 45 11 86 10 108 -2 112 -6 2 -17 -18 -24 -44 -10 -35 -11 -48 -2 -51
21 -7 13 -31 -12 -38 -26 -6 -56 -43 -56 -69 0 -13 -11 -39 -28 -65 -2 -2 -7
2 -12 10 -6 9 -5 17 3 22 8 5 6 8 -7 8 -15 0 -17 -5 -11 -27 3 -16 15 -37 26
-49 10 -11 19 -23 19 -27 0 -11 64 -66 72 -61 4 2 -4 30 -18 60 -22 50 -23 61
-13 93 14 46 27 59 34 39 4 -9 -1 -30 -9 -47 -16 -30 -22 -60 -9 -48 3 4 12
-1 19 -11 9 -12 11 -59 9 -177 -4 -152 -3 -158 10 -110 l15 50 -5 -65 c-3 -36
-10 -66 -15 -68 -13 -5 -13 -52 0 -52 6 0 10 -5 10 -11 0 -6 -6 -9 -14 -6 -15
6 -44 -48 -32 -60 3 -3 1 -12 -5 -20 -9 -10 -8 -13 5 -13 11 0 25 18 38 50 11
28 27 50 34 50 8 0 14 5 14 10 0 6 -4 10 -10 10 -5 0 -10 4 -10 10 0 5 7 7 15
4 23 -9 24 64 2 78 -11 7 -2 12 16 9 12 -2 8 17 -5 21 -19 7 -1 52 41 103 26
31 47 74 65 129 25 79 28 83 79 114 55 33 87 43 52 16 -19 -16 -19 -16 5 -9
52 16 54 15 10 -6 -25 -12 -52 -30 -61 -40 -9 -11 -21 -19 -28 -19 -16 0 -14
-11 7 -26 16 -12 16 -14 -1 -31 -18 -17 -19 -17 -33 2 -15 19 -15 19 -10 -7 2
-15 0 -30 -5 -34 -16 -10 -61 -105 -55 -119 2 -7 -1 -18 -7 -24 -8 -8 -8 -11
0 -11 6 0 19 22 29 50 18 52 36 67 52 47 12 -14 4 -69 -9 -61 -5 3 -9 0 -9 -5
0 -6 -7 -11 -16 -11 -10 0 -13 -6 -9 -19 3 -10 0 -31 -6 -45 -9 -19 -9 -30 -2
-37 8 -8 3 -23 -18 -54 -16 -24 -29 -46 -29 -50 0 -4 -7 -22 -16 -41 -11 -24
-15 -51 -12 -89 3 -39 1 -56 -9 -59 -10 -4 -13 7 -14 42 -1 26 0 52 1 57 11
55 12 77 2 71 -7 -4 -12 -1 -12 6 0 8 -5 5 -11 -5 -6 -10 -9 -27 -6 -38 3 -10
2 -19 -1 -19 -4 0 -12 -11 -19 -25 -6 -14 -7 -25 -3 -25 5 0 5 -13 0 -30 -5
-19 -5 -30 1 -30 6 0 5 -8 -1 -20 -6 -12 -9 -31 -6 -43 3 -12 3 -15 -1 -7 -7
16 -28 -52 -43 -140 -5 -30 -13 -69 -19 -87 -5 -17 -7 -34 -4 -36 2 -3 -3 -19
-12 -36 -9 -18 -14 -35 -12 -39 3 -4 -1 -34 -8 -67 -7 -37 -9 -69 -3 -84 5
-15 4 -32 -6 -51 -7 -16 -12 -41 -10 -57 3 -18 2 -22 -3 -11 -7 14 -11 14 -26
3 -15 -11 -16 -19 -8 -53 5 -23 7 -42 5 -44 -1 -2 -5 -15 -8 -28 -3 -14 -8
-35 -12 -48 -5 -17 -2 -22 13 -22 10 0 24 -5 31 -12 7 -7 12 -9 12 -6 0 4 -7
14 -16 22 -14 15 -14 16 0 16 12 0 15 6 10 25 -3 14 -2 25 3 25 5 0 9 8 10 18
1 9 7 42 12 72 7 38 7 56 0 61 -8 5 -8 8 0 13 6 4 11 4 11 -1 0 -4 5 -1 11 7
7 11 8 6 3 -19 -11 -58 -19 -167 -14 -186 2 -5 -2 -23 -9 -40 -10 -25 -10 -31
5 -42 23 -16 44 -17 45 0 0 6 4 3 9 -8 l9 -20 1 20 c1 17 3 16 16 -7 19 -36
27 -35 19 2 -5 22 -3 30 7 30 11 0 11 2 0 9 -10 6 -2 18 32 46 26 21 49 35 53
32 3 -4 19 3 34 14 31 22 36 47 17 78 -6 10 -8 26 -5 35 8 20 37 21 37 0 0 -9
-5 -12 -11 -8 -7 4 -10 1 -7 -6 2 -8 9 -15 15 -17 16 -6 24 24 13 53 -10 25
-12 25 -33 11 -16 -11 -22 -25 -22 -51 0 -25 -5 -36 -14 -36 -12 0 -11 -3 2
-12 30 -23 4 -42 -56 -39 -24 1 -27 4 -21 26 5 20 2 25 -12 27 -11 0 -25 2
-31 2 -22 2 -63 76 -43 76 6 0 10 -6 10 -14 0 -40 65 -61 91 -30 12 15 11 16
-11 10 l-25 -7 23 17 c12 9 22 25 22 35 0 11 5 19 12 19 6 0 8 3 5 6 -4 4 3
19 13 35 13 17 17 30 10 34 -6 4 -10 3 -9 -2 4 -15 -13 -43 -23 -37 -5 3 -4
12 4 22 10 12 10 14 1 8 -18 -10 -16 4 4 26 16 18 16 19 -3 13 -16 -6 -17 -5
-4 7 8 7 16 20 18 28 2 8 9 18 15 22 6 4 9 10 5 13 -3 3 -13 -1 -21 -10 -19
-18 -34 -20 -18 -2 6 8 15 45 21 83 13 94 13 117 -2 109 -7 -4 -6 0 3 7 10 8
18 33 20 60 4 41 2 45 -13 37 -23 -12 -49 -12 -29 0 11 7 11 9 0 14 -11 4 -10
9 5 21 11 9 22 13 25 10 3 -3 -1 -9 -9 -14 -8 -6 -10 -10 -5 -10 22 0 32 18
44 85 17 98 43 185 52 179 4 -2 11 1 15 7 4 8 3 9 -4 5 -8 -5 -12 2 -12 21 0
21 3 24 10 13 5 -8 12 -11 16 -8 3 4 -2 21 -13 38 -18 28 -19 36 -7 68 7 20
13 45 14 54 0 9 5 29 11 45 14 37 19 136 7 144 -13 8 7 47 40 77 13 13 27 20
31 17 3 -4 -1 -12 -10 -18 -9 -7 -14 -17 -12 -24 2 -6 -1 -14 -6 -18 -15 -9
-14 -48 2 -64 10 -11 10 -13 0 -7 -7 4 -13 2 -13 -4 0 -18 33 -7 36 12 1 10
-5 22 -14 28 -10 5 -12 10 -4 10 6 0 12 7 12 15 0 9 10 15 26 15 14 0 23 -4
19 -10 -11 -18 5 -30 28 -20 49 19 62 23 72 21 5 -2 7 1 2 5 -4 4 5 13 20 20
l28 12 -27 1 c-15 1 -29 -3 -33 -9 -4 -6 -16 -5 -33 1 -18 7 -28 7 -30 0 -2
-6 -7 -11 -12 -11 -15 0 6 55 21 55 8 1 25 7 37 14 32 17 38 7 13 -18 -19 -19
-19 -25 2 -22 4 1 24 4 45 7 20 3 39 10 40 15 2 5 8 7 12 4 5 -3 6 -13 3 -22
-4 -11 -3 -14 5 -9 7 4 12 13 12 21 0 9 16 13 55 14 30 0 55 -4 55 -8 0 -5 15
-11 33 -14 77 -13 170 -38 208 -58 45 -22 59 -20 34 5 -9 9 -15 24 -13 34 4
23 43 23 42 0 -1 -10 2 -18 7 -18 5 0 9 6 10 13 0 6 5 1 10 -13 6 -13 8 -35 4
-47 -4 -16 1 -25 16 -34 18 -9 21 -9 16 3 -3 8 3 22 14 31 10 9 19 13 19 8 0
-5 14 -12 30 -16 17 -4 30 -12 30 -18 0 -6 6 -3 13 8 18 24 32 3 17 -25 -15
-27 -46 -42 -73 -34 -21 6 -21 5 -4 -12 20 -22 98 -28 90 -7 -3 7 -9 13 -15
13 -5 0 -6 5 -3 10 3 6 17 10 30 10 13 0 27 5 31 11 4 7 9 8 13 1 4 -7 25 -7
63 0 48 8 60 7 73 -6 13 -12 50 -15 93 -7 1 1 -2 10 -8 21 -10 18 -8 20 29 20
25 0 41 -5 45 -15 3 -8 18 -15 33 -15 16 0 39 -7 52 -16 13 -9 44 -22 70 -28
55 -14 62 -35 36 -102 -15 -40 -21 -45 -71 -60 -30 -9 -92 -18 -137 -20 -45
-3 -118 -7 -163 -10 -93 -6 -153 8 -251 59 -69 36 -175 98 -183 106 -13 15
-92 52 -98 47 -3 -4 4 -9 16 -13 12 -3 22 -9 22 -14 0 -5 5 -9 10 -9 6 0 23
-11 38 -24 63 -56 120 -96 165 -118 91 -44 33 -61 -98 -28 -52 13 -97 19 -115
15 -20 -4 -53 1 -96 15 -36 12 -68 20 -71 17 -2 -3 24 -19 59 -35 53 -25 84
-32 198 -41 74 -7 169 -16 210 -20 44 -5 82 -4 93 1 10 5 35 8 55 6 32 -3 39
-7 49 -38 19 -55 16 -187 -7 -274 -11 -42 -22 -100 -26 -129 -5 -48 -17 -102
-31 -152 -6 -20 -5 -20 16 -1 11 11 21 25 21 33 0 8 4 12 9 9 4 -3 19 6 31 19
20 21 21 25 7 25 -9 0 -17 7 -17 15 0 8 -5 15 -10 15 -15 0 0 50 21 73 9 10
32 20 51 20 28 2 33 -1 32 -21 -1 -22 0 -22 31 8 17 16 37 30 44 30 8 0 4 -7
-9 -18 -19 -15 -22 -32 -30 -142 -5 -69 -10 -135 -10 -147 0 -13 -6 -23 -13
-23 -7 0 -17 -10 -22 -22 -9 -21 -17 -23 -108 -25 -54 -1 -105 -4 -113 -7 -21
-8 -18 23 7 63 25 42 19 49 -20 22 -25 -18 -29 -27 -25 -51 4 -16 0 -40 -9
-57 -36 -68 -38 -78 -28 -106 7 -17 7 -27 1 -27 -6 0 -10 -9 -10 -20 0 -11 5
-20 11 -20 8 0 8 -4 2 -12 -14 -18 -26 -201 -13 -193 6 3 10 14 10 25 0 10 7
21 16 24 12 5 14 1 8 -17 -4 -12 -7 -30 -6 -39 0 -10 -3 -18 -7 -18 -9 0 -62
-86 -102 -162 -13 -27 -27 -48 -31 -48 -5 0 -8 -10 -7 -22 0 -13 3 -17 6 -10
2 6 14 12 25 12 17 0 18 -2 8 -15 -18 -21 -4 -32 17 -14 25 20 84 48 108 52
11 2 29 8 40 14 11 6 24 11 28 11 8 -1 80 20 180 53 31 10 57 14 57 9 0 -6 4
-10 10 -10 5 0 9 5 7 11 -1 6 8 15 21 20 18 7 22 5 22 -11 0 -11 5 -20 10 -20
6 0 10 9 10 20 0 19 41 66 75 86 20 11 95 -3 95 -18 0 -4 8 -8 18 -8 9 0 26
-7 36 -15 34 -26 46 -19 46 29 0 49 -3 52 -82 62 -72 9 -88 19 -88 54 0 17 5
30 11 30 16 0 270 -118 288 -134 9 -8 27 -19 41 -24 14 -6 44 -24 68 -42 32
-23 42 -37 40 -53 -3 -19 -9 -21 -56 -20 -28 1 -57 5 -62 8 -6 3 -10 3 -10 -2
0 -4 21 -19 47 -33 47 -24 48 -26 45 -68 -5 -68 6 -102 33 -102 14 0 25 7 27
18 8 29 68 18 65 -12 -2 -17 3 -21 27 -21 22 0 30 5 32 21 7 46 22 70 45 72
36 3 69 -7 69 -21 -1 -17 -41 -63 -64 -71 -14 -5 -17 -12 -12 -31 7 -28 -8
-34 -23 -8 -8 14 -12 15 -25 4 -12 -10 -14 -23 -10 -55 4 -22 11 -46 15 -52
13 -17 86 -36 164 -43 l69 -6 9 -39 c12 -48 107 -147 157 -163 55 -18 191 -80
204 -93 8 -9 8 -14 -2 -17 -6 -3 -10 -9 -7 -13 3 -5 19 -4 36 2 25 8 33 8 41
-3 7 -10 8 -8 3 8 -6 21 -3 22 40 18 42 -3 45 -2 40 16 -4 11 -2 19 4 19 6 0
11 -6 11 -12 0 -9 3 -8 10 2 5 8 12 11 16 8 4 -4 15 -3 26 3 22 12 58 -11 136
-85 56 -53 70 -82 65 -131 -5 -52 -16 -63 -71 -71 -26 -3 -84 -14 -130 -24
-45 -10 -91 -16 -102 -13 -17 4 -50 57 -50 80 0 12 -85 95 -157 153 -15 12
-63 13 -63 2 0 -4 13 -16 29 -25 45 -27 140 -116 156 -148 8 -15 15 -38 15
-51 -1 -18 -5 -15 -21 18 -11 23 -32 52 -46 65 l-26 24 25 -35 c30 -40 46 -90
29 -90 -6 0 -17 14 -26 30 -20 38 -26 38 -18 0 8 -43 -3 -37 -31 18 -42 82
-155 169 -207 159 l-24 -4 23 -8 c13 -4 22 -15 22 -27 0 -10 3 -17 8 -15 4 3
26 -5 49 -17 l42 -23 -25 -36 c-25 -38 -41 -44 -72 -29 -9 5 -30 15 -47 23
-16 8 -30 20 -30 27 0 17 -64 54 -82 48 -12 -5 -8 -13 16 -35 44 -41 149 -88
218 -97 65 -9 62 -8 83 -17 8 -3 65 -8 125 -10 83 -3 128 0 185 14 131 32 251
49 344 49 50 0 106 4 124 9 30 9 32 8 32 -15 0 -20 3 -23 18 -16 10 6 59 6
116 2 55 -4 106 -6 113 -3 15 6 17 39 3 48 -19 12 -10 35 16 45 19 7 31 7 40
-1 11 -9 14 -8 14 2 1 10 4 9 14 -3 7 -10 19 -18 26 -18 6 0 23 -9 36 -19 23
-18 24 -20 7 -30 -16 -9 -16 -10 4 -11 12 0 26 6 30 13 4 8 16 16 26 20 11 4
16 3 12 -3 -4 -6 8 -10 27 -10 26 0 30 3 18 10 -11 8 -9 9 10 5 18 -4 32 1 51
18 14 14 35 27 46 31 11 4 29 16 39 27 15 17 16 22 4 29 -10 6 -5 9 16 12 17
2 30 10 32 20 3 16 -33 25 -135 31 -17 1 -29 5 -27 8 2 4 -23 13 -56 20 -63
14 -74 28 -41 51 18 13 40 47 87 134 14 26 28 34 95 54 l78 22 1 879 c0 584
-3 879 -10 879 -5 0 -10 -4 -10 -9 0 -5 -12 -16 -26 -26 -20 -13 -28 -14 -40
-5 -7 7 -11 16 -8 21 7 12 -26 24 -35 13 -9 -14 -63 -36 -70 -29 -3 4 -7 11
-7 16 -1 5 -3 11 -4 14 -1 3 -3 11 -4 18 -1 12 -13 13 -76 6 -26 -3 -35 0 -35
11 0 8 -4 21 -8 28 -5 7 -3 12 4 12 8 0 8 4 -1 15 -7 9 -20 15 -29 14 -9 -1
-31 -1 -48 0 -34 1 -39 17 -19 50 7 11 4 13 -16 9 -13 -2 -29 1 -36 8 -10 10
-5 14 23 20 19 3 39 12 46 20 6 8 19 14 29 14 19 0 50 -40 50 -65 0 -8 5 -15
10 -15 19 0 25 -3 37 -19 7 -9 13 -13 13 -9 0 4 25 -6 56 -22 43 -24 63 -29
89 -24 18 3 42 1 52 -5 14 -8 9 -9 -21 -4 -29 5 -37 3 -32 -6 5 -7 14 -10 21
-7 7 2 30 0 50 -7 30 -9 38 -8 46 4 5 8 9 423 9 997 0 810 -2 988 -14 1015
-29 70 -132 131 -291 172 -67 17 -235 21 -235 5 0 -5 -12 -10 -27 -10 -35 0
-152 -59 -167 -83 -9 -15 -7 -22 9 -35 20 -17 23 -52 3 -52 -18 0 -78 -64 -78
-84 0 -23 69 -88 84 -79 6 3 8 3 4 -2 -8 -9 60 -64 80 -65 6 0 12 -6 12 -14 0
-8 15 -17 35 -20 41 -8 37 -26 -5 -26 -23 0 -28 -4 -25 -20 2 -11 0 -20 -5
-20 -5 0 -14 -18 -20 -40 -6 -21 -18 -47 -28 -56 -12 -13 -13 -19 -4 -22 6 -2
12 -12 12 -23 0 -12 10 -23 26 -29 35 -14 37 -13 31 11 -4 15 2 28 21 45 15
13 32 23 37 24 6 0 3 -5 -5 -10 -12 -8 -11 -10 5 -10 11 0 30 -7 42 -15 18
-13 22 -13 33 0 17 20 37 19 42 -3 6 -23 -14 -52 -34 -52 -26 0 -30 -40 -5
-50 17 -7 18 -9 5 -9 -10 -1 -18 -8 -18 -16 0 -13 4 -14 21 -4 15 8 19 8 15 0
-4 -6 1 -14 11 -18 30 -11 78 -55 78 -72 0 -8 11 -21 25 -28 14 -7 21 -13 16
-13 -5 0 -3 -6 3 -14 9 -11 9 -15 -1 -19 -7 -2 -10 -8 -5 -12 4 -5 13 -3 19 3
7 7 19 12 27 12 12 0 11 -3 -2 -18 -10 -10 -17 -23 -17 -29 0 -18 -122 -32
-141 -16 -8 7 -19 13 -23 13 -4 0 -16 9 -28 20 -26 24 -38 25 -38 5 0 -8 -9
-19 -20 -25 -17 -9 -26 -5 -60 31 -44 47 -47 54 -24 63 8 3 12 10 9 16 -5 9
12 13 50 13 6 0 11 16 13 36 1 19 11 45 22 56 13 14 20 35 20 61 0 50 -9 60
-27 34 -8 -11 -21 -20 -29 -20 -8 0 -14 -5 -14 -11 0 -6 -13 -24 -30 -39 -16
-15 -30 -23 -30 -18 0 7 -4 7 -12 1 -28 -22 -128 -49 -216 -59 -43 -4 -53 -3
-58 11 -4 10 -1 21 7 26 8 5 10 9 5 9 -5 0 -3 6 3 14 18 21 3 63 -30 87 -32
23 -38 39 -13 39 18 0 74 37 74 49 0 4 -6 16 -14 27 -14 18 -15 18 -25 -8 -10
-25 -13 -27 -36 -16 -26 12 -49 3 -27 -11 9 -6 10 -15 3 -33 -5 -14 -7 -36 -4
-48 4 -13 0 -26 -8 -31 -10 -6 -11 -11 -3 -16 6 -5 14 -25 18 -47 6 -32 2 -49
-27 -105 -47 -89 -106 -240 -128 -326 -34 -130 -35 -271 -2 -454 l6 -34 -89 7
c-49 3 -152 7 -229 7 -77 0 -154 5 -171 10 -20 6 -47 6 -72 1 -61 -14 -65 1
-51 180 7 101 17 141 68 300 116 358 137 514 78 592 -25 32 -57 48 -57 28 0
-4 -13 -16 -30 -25 -30 -18 -30 -18 -57 10 -33 33 -132 99 -188 124 -48 22
-175 27 -175 7 0 -10 -3 -9 -9 1 -7 11 -9 11 -14 0 -3 -8 -6 -9 -6 -3 -1 8
-14 9 -48 1 -27 -5 -57 -10 -69 -11 -11 -1 -26 -6 -33 -10 -7 -4 -15 -5 -19
-1 -15 15 111 65 167 65 36 0 39 2 50 40 7 24 22 47 39 57 57 36 81 66 93 118
15 68 7 226 -16 289 -14 42 -15 58 -6 104 6 31 11 82 11 114 0 52 -4 62 -33
95 -19 21 -45 63 -59 93 -31 67 -59 102 -117 146 -32 25 -47 31 -52 22 -4 -6
-15 -13 -24 -14 -15 -2 -15 -1 -1 15 15 16 14 19 -7 38 -22 20 -104 75 -164
109 -18 10 -33 21 -33 24 0 4 -15 32 -34 63 -30 50 -33 61 -25 90 5 18 20 44
34 57 28 27 60 104 70 172 14 92 -33 256 -80 282 -11 6 -23 16 -27 21 -4 6
-11 10 -15 11 -4 0 -15 3 -23 7 -23 9 -62 12 -95 9z m55 -26 c0 -3 -4 -8 -10
-11 -5 -3 -10 -1 -10 4 0 6 5 11 10 11 6 0 10 -2 10 -4z m-153 -32 c-3 -3 -12
-4 -19 -1 -8 3 -5 6 6 6 11 1 17 -2 13 -5z m-81 -830 c-3 -8 -10 -14 -16 -14
-14 0 -13 27 2 53 l13 22 3 -23 c2 -13 1 -30 -2 -38z m16 -48 c4 -19 1 -22
-14 -18 -21 5 -24 28 -5 35 6 3 13 6 13 6 1 1 4 -10 6 -23z m817 -250 c11 -14
6 -15 -27 -7 -4 1 8 21 12 21 2 0 9 -6 15 -14z m-529 -6 c0 -5 -7 -10 -15 -10
-8 0 -15 5 -15 10 0 6 7 10 15 10 8 0 15 -4 15 -10z m61 -67 c6 -6 8 -21 4
-33 -7 -22 -11 -22 -89 -17 -44 3 -89 8 -98 12 -21 8 -24 41 -5 49 21 9 177 0
188 -11z m-101 -102 c0 -12 -20 -25 -27 -18 -7 7 6 27 18 27 5 0 9 -4 9 -9z
m-310 -51 c-7 -4 -10 -12 -7 -17 6 -9 -17 -13 -86 -15 -16 0 -34 5 -40 11 -20
20 11 31 81 30 35 -1 58 -5 52 -9z m-183 -6 c-3 -3 -12 -4 -19 -1 -8 3 -5 6 6
6 11 1 17 -2 13 -5z m253 -564 c11 -7 7 -10 -18 -10 -20 0 -31 4 -27 10 8 13
26 13 45 0z m2440 -124 c0 -3 -4 -8 -10 -11 -5 -3 -10 -1 -10 4 0 6 5 11 10
11 6 0 10 -2 10 -4z m100 -61 c0 -17 -2 -18 -24 -9 -23 9 -20 24 4 24 11 0 20
-7 20 -15z m0 -305 c0 -5 -5 -10 -11 -10 -5 0 -7 5 -4 10 3 6 8 10 11 10 2 0
4 -4 4 -10z m47 -66 c-3 -3 -12 -4 -19 -1 -8 3 -5 6 6 6 11 1 17 -2 13 -5z
m28 -24 c3 -5 -1 -10 -9 -10 -9 0 -16 5 -16 10 0 6 4 10 9 10 6 0 13 -4 16
-10z m-45 -24 c0 -3 -4 -8 -10 -11 -5 -3 -10 -1 -10 4 0 6 5 11 10 11 6 0 10
-2 10 -4z m-60 -196 c0 -13 -11 -13 -30 0 -12 8 -11 10 8 10 12 0 22 -4 22
-10z m-120 -55 c0 -12 -29 -3 -34 10 -4 13 -2 14 14 5 11 -6 20 -13 20 -15z
m-1966 -14 c3 -5 -3 -11 -14 -14 -22 -6 -37 8 -18 16 20 8 26 8 32 -2z m1801
-21 c3 -5 -1 -10 -9 -10 -9 0 -16 5 -16 10 0 6 4 10 9 10 6 0 13 -4 16 -10z
m250 -10 c3 -5 2 -10 -4 -10 -5 0 -13 5 -16 10 -3 6 -2 10 4 10 5 0 13 -4 16
-10z m95 -70 c0 -5 -4 -10 -9 -10 -6 0 -13 5 -16 10 -3 6 1 10 9 10 9 0 16 -4
16 -10z m-383 -26 c3 -8 12 -13 19 -10 8 3 14 1 14 -4 0 -11 -21 -13 -44 -4
-18 7 -22 34 -6 34 6 0 13 -7 17 -16z m79 -131 c-8 -8 -36 10 -36 25 0 13 3
12 20 -3 11 -10 18 -20 16 -22z m-3521 -17 l60 -35 -30 -11 c-26 -10 -28 -13
-13 -21 15 -8 11 -15 -29 -56 -42 -44 -83 -116 -83 -148 0 -7 -5 -15 -10 -17
-6 -2 -12 -13 -13 -25 0 -12 -4 -20 -7 -18 -3 2 -16 -26 -30 -63 -17 -44 -26
-59 -28 -44 -2 12 6 42 17 67 11 25 16 45 11 45 -5 0 -12 -9 -15 -21 -4 -11
-9 -18 -12 -15 -3 3 -1 19 5 35 8 23 8 31 -1 31 -8 0 -8 3 -2 8 6 4 12 20 13
36 3 37 12 48 13 15 0 -16 5 -8 15 23 13 43 13 50 -1 72 -14 21 -14 28 -2 58
19 45 65 118 75 118 4 0 34 -16 67 -34z m-200 -86 c-4 -12 -9 -19 -12 -17 -3
3 -2 15 2 27 4 12 9 19 12 17 3 -3 2 -15 -2 -27z m3665 10 c0 -5 -4 -10 -10
-10 -5 0 -10 5 -10 10 0 6 5 10 10 10 6 0 10 -4 10 -10z m-1930 -24 c0 -3 -4
-8 -10 -11 -5 -3 -10 -1 -10 4 0 6 5 11 10 11 6 0 10 -2 10 -4z m-64 -21 c-36
-19 -45 -19 -20 0 10 8 26 14 34 15 8 0 2 -7 -14 -15z m2234 11 c0 -3 -4 -8
-10 -11 -5 -3 -10 -1 -10 4 0 6 5 11 10 11 6 0 10 -2 10 -4z m-2155 -84 c10
-42 -9 -47 -59 -18 -50 29 -58 52 -23 65 29 11 74 -14 82 -47z m-967 10 c53
-5 62 -11 39 -30 -13 -11 -97 5 -126 23 -17 10 -1 27 18 19 9 -3 40 -9 69 -12z
m99 -24 c-3 -8 -6 -5 -6 6 -1 11 2 17 5 13 3 -3 4 -12 1 -19z m643 2 c0 -5 -4
-10 -10 -10 -5 0 -10 5 -10 10 0 6 5 10 10 10 6 0 10 -4 10 -10z m301 -104 c0
-46 4 -58 21 -70 46 -33 13 -114 -49 -120 -37 -4 -53 15 -53 63 0 36 -3 40
-27 43 -22 2 -29 9 -31 31 -2 15 1 27 7 27 6 0 8 8 4 18 -5 14 -3 14 13 -3 12
-13 29 -19 47 -17 15 2 27 -1 27 -7 0 -6 7 -11 15 -11 8 0 15 9 15 20 0 11 -4
20 -10 20 -5 0 -10 6 -10 14 0 8 -6 17 -12 19 -8 4 -7 6 3 6 9 1 20 8 23 17
11 29 18 8 17 -50z m-180 -8 c11 -21 4 -38 -16 -38 -19 0 -56 55 -49 74 5 14
8 14 30 -1 14 -9 29 -24 35 -35z m1779 40 c22 -7 42 -18 45 -25 7 -19 -65 -17
-79 2 -9 12 -18 13 -46 5 l-35 -10 25 20 c30 23 38 24 90 8z m-1546 -43 c3 -8
1 -15 -3 -15 -5 0 -11 7 -15 15 -3 8 -1 15 3 15 5 0 11 -7 15 -15z m1542 -21
c27 -14 52 -31 56 -37 13 -22 -49 -106 -79 -107 -7 0 -13 -5 -13 -11 0 -5 -4
-7 -10 -4 -5 3 -10 -1 -10 -9 0 -9 -9 -16 -20 -16 -11 0 -23 -7 -26 -15 -4 -8
-15 -15 -25 -15 -10 0 -19 -4 -19 -9 0 -5 -15 -12 -32 -17 -32 -8 -31 -8 17
-11 33 -3 123 12 263 42 117 25 221 45 232 45 14 0 20 -7 20 -21 0 -26 36
-101 61 -128 18 -19 17 -20 -14 -30 -17 -7 -33 -8 -34 -4 -3 9 -45 8 -188 -1
-203 -13 -261 -18 -290 -27 -16 -4 -47 -9 -67 -11 -21 -1 -38 -5 -38 -8 0 -8
-134 -6 -147 3 -8 5 -13 3 -13 -4 0 -9 -3 -10 -11 -2 -12 12 -59 5 -59 -9 0
-5 -5 -6 -10 -3 -6 4 -17 1 -25 -5 -11 -9 -15 -9 -15 -1 0 6 -4 11 -10 11 -5
0 -10 -7 -10 -16 0 -9 -10 -25 -21 -35 -18 -16 -20 -21 -9 -34 11 -13 9 -19
-6 -38 -11 -12 -28 -29 -38 -37 -10 -8 -30 -25 -43 -38 -13 -12 -30 -23 -36
-25 -18 -3 -35 -21 -30 -32 6 -16 -59 -83 -87 -90 -15 -4 -20 -3 -13 2 7 5 20
27 29 48 9 22 21 43 28 47 8 6 8 8 0 8 -7 0 -25 -15 -41 -33 -16 -19 -36 -34
-44 -35 -8 0 -25 -4 -37 -8 l-24 -7 26 52 c27 53 27 58 -4 41 -11 -6 -37 -12
-60 -14 -52 -5 -53 12 -3 53 51 42 36 49 -22 10 -44 -29 -50 -31 -80 -20 -24
8 -40 8 -60 1 -39 -15 -18 -34 37 -35 45 0 63 -19 27 -28 -15 -4 -20 -11 -15
-22 4 -11 2 -14 -7 -8 -6 4 -48 8 -92 9 -44 1 -153 5 -241 9 l-162 8 -17 -26
c-9 -15 -21 -27 -26 -27 -15 0 -22 70 -9 95 9 17 9 28 1 43 -13 25 -14 45 -2
38 15 -10 39 4 44 25 3 10 1 19 -4 19 -5 0 -9 -4 -9 -10 0 -5 -8 -10 -17 -10
-13 0 -11 5 10 18 15 9 27 20 27 25 0 4 5 5 10 2 6 -3 10 -1 10 5 0 7 8 9 21
5 15 -5 19 -4 15 4 -5 7 3 11 21 12 15 0 38 2 51 3 12 2 22 -2 22 -8 0 -6 4
-5 9 3 9 14 87 32 154 35 30 1 37 -2 37 -17 0 -16 2 -17 15 -3 8 8 15 24 15
35 0 18 6 21 41 21 26 0 52 -8 71 -21 l30 -22 22 27 c11 14 58 42 103 61 73
32 97 37 214 45 126 9 135 11 213 51 97 50 120 66 211 153 69 66 107 92 155
107 41 12 55 10 106 -17z m-1696 -174 c-8 -5 -17 -7 -19 -4 -3 3 0 9 7 13 7 4
10 16 7 27 -4 12 -1 11 7 -4 9 -19 9 -25 -2 -32z m-30 -60 c0 -5 -11 -10 -24
-10 -21 0 -96 -26 -96 -33 0 -2 16 -1 35 1 39 5 39 5 24 -58 -12 -54 -36 -108
-60 -135 -10 -11 -25 -33 -33 -50 l-16 -30 0 33 c0 18 -7 47 -16 64 -14 28
-15 37 -4 67 7 20 12 55 11 79 -1 32 2 42 14 42 8 0 32 9 52 20 39 21 113 27
113 10z m148 -7 c-10 -2 -26 -2 -35 0 -10 3 -2 5 17 5 19 0 27 -2 18 -5z m-61
-9 c-3 -3 -12 -4 -19 -1 -8 3 -5 6 6 6 11 1 17 -2 13 -5z m-322 -34 c0 -21
-49 -36 -82 -24 -41 14 -39 32 4 37 59 6 78 3 78 -13z m35 -50 c0 -16 -4 -30
-8 -30 -5 0 -7 14 -4 30 2 17 6 30 8 30 2 0 4 -13 4 -30z m-120 -21 c0 -12 4
-18 11 -13 7 4 2 -7 -10 -23 -31 -41 -38 -103 -17 -136 15 -22 15 -28 2 -58
l-15 -34 6 46 c3 29 1 49 -6 53 -14 9 -14 93 0 102 7 4 9 22 6 45 -4 29 -2 39
9 39 8 0 14 -9 14 -21z m-1250 -49 c0 -5 -5 -10 -11 -10 -5 0 -7 5 -4 10 3 6
8 10 11 10 2 0 4 -4 4 -10z m1343 -36 c20 -19 37 -39 37 -43 0 -5 -11 -20 -25
-33 -24 -24 -75 -35 -75 -17 0 5 -7 9 -15 9 -9 0 -12 6 -9 15 4 8 2 15 -4 15
-7 0 -7 13 0 39 9 35 17 43 48 50 3 0 22 -15 43 -35z m-1353 -4 c0 -6 -6 -13
-14 -16 -8 -3 -16 -15 -19 -26 -3 -11 -10 -17 -16 -13 -16 10 -13 35 4 35 9 0
18 7 21 15 7 17 24 20 24 5z m1550 -130 c0 -5 8 -10 18 -11 9 0 -1 -7 -22 -16
-29 -12 -41 -13 -44 -5 -2 7 -12 12 -23 12 -21 0 -26 16 -6 23 22 10 77 7 77
-3z m-1664 -52 c-3 -13 -5 -27 -5 -33 -1 -5 -7 1 -15 15 -14 28 -12 40 10 40
9 0 12 -8 10 -22z m51 -10 c1 -12 -3 -28 -9 -35 -6 -8 -8 -17 -4 -21 4 -4 14
2 22 12 17 24 28 15 19 -13 -5 -16 -12 -20 -29 -15 -29 7 -40 -16 -24 -51 9
-19 14 -22 21 -13 6 9 7 8 3 -5 -3 -10 -6 -28 -6 -38 0 -12 -5 -17 -10 -14 -6
4 -8 15 -5 25 3 10 1 21 -4 24 -6 4 -8 -10 -7 -34 3 -33 1 -38 -11 -29 -11 9
-17 8 -28 -7 -23 -31 -19 -54 11 -54 14 0 23 -4 19 -10 -3 -5 -16 -10 -29 -10
-13 0 -23 -6 -23 -15 0 -18 9 -19 26 -2 11 10 11 8 2 -10 -6 -12 -19 -27 -29
-32 -9 -6 -11 -11 -4 -11 18 0 15 -20 -4 -20 -9 0 -18 -9 -21 -20 -3 -11 -9
-20 -14 -20 -14 0 -10 27 7 44 8 9 13 20 9 25 -3 5 -1 13 5 16 8 5 6 15 -5 31
-10 15 -11 24 -4 24 6 0 9 6 6 14 -3 7 0 22 7 32 13 20 42 111 50 157 3 15 12
34 21 43 9 9 13 24 10 35 -5 14 -1 19 12 19 12 0 19 -8 20 -22z m2437 -57 c7
-11 -22 -23 -35 -15 -5 3 -9 9 -9 15 0 12 37 12 44 0z m-2444 -35 c0 -3 -4 -8
-10 -11 -5 -3 -10 -1 -10 4 0 6 5 11 10 11 6 0 10 -2 10 -4z m2760 -9 c0 -16
-34 -67 -45 -67 -23 0 -28 21 -7 27 11 2 22 13 25 24 4 15 27 29 27 16z m-233
-54 c-8 -7 -37 9 -31 19 3 5 12 4 20 -3 8 -6 13 -14 11 -16z m-342 -1 c122
-16 130 -18 133 -40 5 -34 -12 -49 -110 -98 -91 -46 -128 -83 -128 -131 0 -26
-18 -29 -83 -14 -20 5 -39 5 -42 0 -3 -4 -16 -4 -28 0 -19 7 -112 19 -294 36
-70 7 -83 13 -83 41 0 21 5 24 43 25 23 0 53 3 67 6 14 3 42 6 62 7 21 0 38 4
38 9 0 4 7 7 15 7 8 0 15 -4 15 -10 0 -6 33 -9 79 -9 76 1 79 2 79 25 0 13 -4
24 -9 24 -5 0 -9 7 -9 15 0 8 4 15 9 15 15 0 32 56 25 83 -6 27 -5 27 42 26
27 0 108 -8 179 -17z m493 -9 c2 -8 -6 -13 -22 -13 -25 0 -33 10 -19 24 10 10
36 3 41 -11z m-188 -18 c0 -8 -9 -15 -20 -15 -11 0 -20 7 -20 15 0 8 9 15 20
15 11 0 20 -7 20 -15z m73 0 c-4 -15 -36 -12 -41 3 -3 9 3 13 19 10 13 -1 23
-7 22 -13z m-2573 -55 c-6 -12 -14 -20 -17 -17 -2 3 1 14 8 26 17 26 24 19 9
-9z m1820 15 c10 -13 10 -19 -5 -35 -23 -25 -33 -18 -27 20 5 33 13 37 32 15z
m-1850 -15 c0 -5 -4 -10 -10 -10 -5 0 -10 5 -10 10 0 6 5 10 10 10 6 0 10 -4
10 -10z m2295 -65 c-22 -14 -47 -25 -55 -25 -8 0 3 11 25 25 22 13 47 24 55
24 8 0 -3 -11 -25 -24z m-2348 -107 c-3 -8 -6 -5 -6 6 -1 11 2 17 5 13 3 -3 4
-12 1 -19z m2358 -47 c-3 -6 -16 -11 -28 -11 -21 1 -21 1 3 15 27 14 36 13 25
-4z m-115 -151 c20 -7 16 -8 -19 -7 -26 1 -46 -3 -48 -10 -3 -8 17 -11 66 -10
56 1 71 5 72 17 0 11 2 11 6 2 3 -7 2 -23 -1 -35 -5 -21 -10 -22 -78 -19 -69
3 -72 3 -53 -13 20 -16 20 -16 -2 -12 -12 3 -24 -1 -26 -8 -10 -25 10 -36 64
-34 82 2 79 4 76 -51 -2 -27 -6 -52 -10 -56 -3 -3 -34 15 -69 41 -35 26 -112
79 -172 119 l-110 71 40 6 c58 9 235 8 264 -1z m-2146 -22 c-3 -4 -9 -8 -15
-8 -5 0 -9 4 -9 8 0 5 7 9 15 9 8 0 12 -4 9 -9z m1107 -61 c-10 -9 -11 -8 -5
6 3 10 9 15 12 12 3 -3 0 -11 -7 -18z m309 -4 c0 -36 -9 -49 -43 -62 -26 -10
-27 -14 -27 -75 0 -68 -6 -76 -56 -76 -32 0 -43 29 -33 89 4 25 5 47 4 49 -7
8 -131 29 -139 25 -5 -3 -7 0 -4 8 6 18 189 64 271 68 23 1 27 -3 27 -26z
m-1533 -9 c-3 -3 -12 -4 -19 -1 -8 3 -5 6 6 6 11 1 17 -2 13 -5z m2388 -524
c3 -5 -3 -10 -14 -10 -12 0 -21 5 -21 10 0 6 6 10 14 10 8 0 18 -4 21 -10z
m40 -50 c11 18 22 10 18 -13 -4 -22 -8 -23 -45 -17 -45 9 -82 36 -57 44 8 2
21 7 29 9 8 3 23 -4 32 -14 10 -12 19 -15 23 -9z m945 -405 c7 -8 10 -19 8
-25 -3 -11 -78 38 -78 51 0 11 57 -10 70 -26z m730 -45 c0 -5 -2 -10 -4 -10
-3 0 -8 5 -11 10 -3 6 -1 10 4 10 6 0 11 -4 11 -10z m-542 -78 c10 -10 24 -16
31 -14 17 6 30 -15 24 -39 -9 -35 -43 -49 -115 -49 l-68 0 10 26 c6 14 8 29 6
33 -9 13 13 36 46 48 45 16 45 16 66 -5z m702 -16 c0 -2 -7 -7 -16 -10 -8 -3
-12 -2 -9 4 6 10 25 14 25 6z m-1490 -110 c0 -19 -30 -29 -46 -15 -22 18 -16
29 16 29 19 0 30 -5 30 -14z"/>
<path d="M8591 4374 c0 -11 3 -14 6 -6 3 7 2 16 -1 19 -3 4 -6 -2 -5 -13z"/>
<path d="M11038 3903 c-59 -31 -66 -39 -70 -69 -2 -19 -2 -34 0 -34 6 0 162
131 162 136 0 10 -30 -1 -92 -33z"/>
<path d="M10688 3803 c6 -2 18 -2 25 0 6 3 1 5 -13 5 -14 0 -19 -2 -12 -5z"/>
<path d="M11090 3720 c0 -5 9 -10 21 -10 11 0 17 5 14 10 -3 6 -13 10 -21 10
-8 0 -14 -4 -14 -10z"/>
<path d="M6372 7760 c0 -14 2 -19 5 -12 2 6 2 18 0 25 -3 6 -5 1 -5 -13z"/>
<path d="M6370 7660 c0 -5 5 -10 10 -10 6 0 10 5 10 10 0 6 -4 10 -10 10 -5 0
-10 -4 -10 -10z"/>
<path d="M6376 7348 c4 -142 11 -247 17 -253 6 -7 8 3 3 30 -3 22 -6 136 -6
253 0 132 -4 212 -10 212 -6 0 -8 -86 -4 -242z"/>
<path d="M6392 6935 c3 -114 5 -130 21 -133 15 -3 17 6 15 85 l-1 88 -6 -65
c-8 -91 -20 -62 -20 49 0 52 -3 96 -6 99 -3 3 -4 -52 -3 -123z"/>
<path d="M5363 6535 c0 -22 2 -30 4 -17 2 12 2 30 0 40 -3 9 -5 -1 -4 -23z"/>
<path d="M5081 6514 c0 -11 3 -14 6 -6 3 7 2 16 -1 19 -3 4 -6 -2 -5 -13z"/>
<path d="M11918 5879 c-10 -5 -18 -19 -18 -29 0 -11 -6 -20 -12 -21 -7 0 -1
-5 15 -11 19 -7 27 -17 27 -33 0 -13 5 -27 10 -30 6 -3 10 -15 10 -26 0 -15 5
-19 18 -15 9 3 36 10 60 16 23 6 42 15 42 19 0 10 -35 21 -67 21 -16 0 -21 4
-17 15 4 8 14 15 24 15 24 0 23 41 -1 47 -10 3 -19 13 -22 24 -6 21 -40 25
-69 8z"/>
<path d="M12088 5753 c7 -3 16 -2 19 1 4 3 -2 6 -13 5 -11 0 -14 -3 -6 -6z"/>
<path d="M9560 5608 c-16 -29 -30 -59 -30 -67 0 -17 -3 -20 49 57 29 44 37 62
27 62 -9 0 -29 -24 -46 -52z"/>
<path d="M10035 5640 c3 -5 15 -10 26 -10 10 0 19 5 19 10 0 6 -12 10 -26 10
-14 0 -23 -4 -19 -10z"/>
<path d="M2420 5596 c0 -2 7 -9 15 -16 9 -7 15 -8 15 -2 0 5 -7 12 -15 16 -8
3 -15 4 -15 2z"/>
<path d="M9631 5573 c-18 -20 -20 -25 -6 -20 9 4 19 7 21 7 2 0 4 6 4 14 0 8
6 17 13 19 6 3 7 6 1 6 -6 1 -21 -11 -33 -26z"/>
<path d="M6868 5573 c7 -3 16 -2 19 1 4 3 -2 6 -13 5 -11 0 -14 -3 -6 -6z"/>
<path d="M9535 5489 c-16 -5 -43 -21 -60 -34 -30 -25 -30 -25 -7 -31 13 -4 22
-14 22 -25 0 -11 6 -19 13 -19 20 0 37 22 37 48 0 17 8 26 30 33 17 6 30 17
30 25 0 16 -21 17 -65 3z"/>
<path d="M6315 5470 c-3 -6 1 -7 9 -4 18 7 21 14 7 14 -6 0 -13 -4 -16 -10z"/>
<path d="M6203 5448 c-11 -13 -26 -33 -32 -45 -21 -41 14 -16 38 27 25 45 24
50 -6 18z"/>
<path d="M6289 5417 c-111 -57 -179 -97 -166 -97 10 0 213 101 257 128 65 40
13 22 -91 -31z"/>
<path d="M7000 5439 c-66 -7 -206 -41 -218 -54 -4 -4 4 -4 18 -1 176 37 221
46 255 48 22 2 33 5 25 8 -8 3 -44 3 -80 -1z"/>
<path d="M6077 5343 c-25 -31 -45 -59 -43 -60 1 -2 20 6 42 17 22 12 28 18 14
14 -23 -6 -24 -6 -10 12 8 10 23 29 34 41 11 13 17 25 14 28 -3 3 -26 -20 -51
-52z"/>
<path d="M6876 5360 c-65 -16 -121 -31 -124 -34 -11 -12 33 -6 145 20 63 14
143 29 176 33 l62 8 -70 1 c-44 0 -113 -10 -189 -28z"/>
<path d="M9776 5361 c-12 -13 -14 -21 -6 -26 6 -4 14 -4 17 -1 3 3 12 1 20 -6
19 -15 25 -5 17 26 -7 31 -24 33 -48 7z"/>
<path d="M6540 5350 c-55 -8 -61 -11 -238 -98 -189 -94 -254 -134 -234 -146 4
-2 25 7 47 21 79 49 419 213 444 214 14 0 35 4 46 9 l20 9 -20 -1 c-11 0 -40
-4 -65 -8z"/>
<path d="M9340 5340 c0 -17 51 -60 63 -53 10 6 -18 33 -35 33 -4 0 -8 7 -8 15
0 8 -4 15 -10 15 -5 0 -10 -5 -10 -10z"/>
<path d="M6600 5304 c-74 -12 -111 -26 -277 -109 -105 -53 -197 -103 -204
-111 -22 -27 -2 -25 47 4 62 36 293 148 353 171 25 10 73 23 106 30 33 7 74
16 90 21 l30 8 -30 0 c-16 0 -68 -6 -115 -14z"/>
<path d="M8560 5280 c6 -11 13 -20 16 -20 2 0 0 9 -6 20 -6 11 -13 20 -16 20
-2 0 0 -9 6 -20z"/>
<path d="M9830 5269 c0 -27 -25 -68 -45 -75 -26 -8 -58 -4 -66 8 -9 14 -146
-67 -160 -95 -9 -18 -7 -18 15 6 37 37 41 34 12 -10 -35 -54 -44 -110 -20
-128 18 -14 18 -14 -2 -15 -12 0 -27 -7 -34 -15 -21 -25 61 -20 94 6 26 21 36
54 14 47 -18 -6 -39 18 -42 49 -3 28 20 63 41 63 7 0 13 5 13 10 0 6 5 10 10
10 6 0 10 -11 10 -25 l0 -24 70 37 c39 20 73 45 76 55 3 9 10 14 16 11 7 -5 9
-1 5 9 -4 11 -2 14 9 10 12 -4 14 0 8 23 -4 16 -10 36 -15 44 -7 13 -8 13 -9
-1z m-74 -119 c-15 -5 -37 -17 -47 -26 -11 -9 -22 -14 -26 -10 -13 13 40 46
72 45 l30 -1 -29 -8z"/>
<path d="M5069 5216 c10 -11 31 -15 87 -14 41 1 74 6 74 11 0 9 42 -1 50 -13
3 -4 39 -8 81 -8 66 -1 78 1 82 17 4 17 -7 18 -191 20 -174 2 -194 0 -183 -13z"/>
<path d="M5486 5215 c4 -8 10 -12 15 -9 11 6 2 24 -11 24 -5 0 -7 -7 -4 -15z"/>
<path d="M6945 5220 c-19 -8 -19 -9 2 -9 12 -1 25 4 28 9 7 12 -2 12 -30 0z"/>
<path d="M7215 5220 c-139 -16 -308 -47 -523 -96 -77 -18 -179 -56 -223 -83
-57 -35 -57 -23 -1 15 30 20 52 38 49 40 -8 9 -153 -78 -179 -107 -14 -16 -30
-29 -35 -28 -4 2 -25 -6 -45 -16 -40 -20 -41 -40 -1 -30 26 6 26 6 -6 -41
l-14 -21 -54 23 c-29 13 -58 24 -63 24 -5 0 -46 22 -92 50 -46 27 -87 50 -92
50 -6 0 -27 12 -48 26 -43 30 -67 24 -28 -7 14 -11 66 -40 115 -65 50 -25 96
-50 102 -56 7 -6 30 -16 50 -24 21 -7 37 -18 35 -25 -2 -7 4 -9 13 -5 9 3 25
1 35 -4 16 -9 17 -15 8 -40 -5 -17 -13 -30 -18 -30 -11 0 -19 37 -9 47 4 4 -4
9 -19 10 -25 2 -27 -1 -27 -37 1 -45 9 -57 28 -42 14 12 27 7 27 -10 0 -16
-90 -8 -142 13 -112 45 -189 68 -185 56 2 -6 21 -18 43 -25 21 -8 74 -27 117
-44 43 -17 96 -31 118 -31 48 0 48 -20 0 -25 -28 -3 -182 38 -260 69 -13 6
-26 7 -30 4 -11 -11 30 -33 79 -44 27 -6 72 -20 102 -31 29 -11 61 -20 71 -20
19 0 23 -15 7 -25 -5 -3 -10 -17 -10 -30 0 -13 -4 -27 -10 -30 -15 -10 -12
-23 8 -28 9 -3 4 -5 -13 -6 -48 -1 -220 25 -243 38 -14 7 -22 8 -22 2 0 -28
138 -59 268 -61 13 0 20 -4 17 -10 -9 -15 -203 -11 -250 5 -48 17 -56 13 -20
-11 18 -11 54 -19 106 -22 43 -3 79 -8 79 -13 0 -5 -7 -9 -15 -9 -21 0 -19
-20 3 -20 15 -1 15 -2 -2 -15 -11 -8 -14 -15 -8 -15 7 0 12 -9 12 -20 0 -42
-108 -46 -204 -8 -26 11 -28 14 -21 52 3 23 8 61 10 86 2 25 7 73 11 108 5 53
4 62 -10 62 -12 0 -16 -10 -17 -37 -1 -22 -3 -29 -6 -18 -9 36 -21 38 -66 6
-25 -17 -50 -31 -56 -31 -6 0 -11 -6 -11 -12 -1 -20 -36 -58 -53 -58 -11 0
-15 9 -14 28 2 29 -7 32 -70 19 -36 -7 -46 8 -13 18 27 9 86 63 77 71 -4 4
-13 2 -21 -5 -8 -7 -25 -9 -42 -5 -18 5 -25 3 -20 -4 4 -6 -2 -8 -14 -5 -11 3
-27 0 -35 -7 -9 -7 -27 -10 -44 -7 -27 6 -214 -53 -279 -87 -124 -66 -157
-191 -107 -410 24 -110 43 -156 105 -261 10 -16 39 -79 65 -140 26 -60 57
-132 71 -161 13 -28 24 -54 24 -58 0 -4 14 -37 30 -73 35 -75 50 -135 43 -164
-3 -11 -2 -19 3 -18 32 6 66 -4 87 -25 13 -12 28 -25 35 -27 8 -3 6 -12 -6
-32 l-18 -27 -58 40 c-58 41 -72 46 -78 32 -1 -5 -29 -28 -61 -52 -55 -41 -58
-44 -36 -52 14 -5 25 -5 29 2 3 5 21 13 39 16 31 6 33 6 23 -13 -6 -11 -13
-33 -15 -49 -3 -18 -10 -28 -18 -26 -8 2 -10 0 -6 -4 4 -5 -9 -18 -30 -31 -68
-41 -7 -25 85 22 54 28 113 50 153 56 35 6 67 14 71 18 4 3 9 25 12 48 4 30 2
42 -9 47 -22 8 -18 23 6 29 24 6 81 -13 62 -20 -22 -8 -14 -28 16 -39 23 -9
32 -22 45 -65 10 -30 26 -70 37 -90 24 -47 24 -47 -8 -60 l-28 -11 24 -19 c16
-13 19 -19 8 -19 -8 0 -22 -3 -30 -6 -18 -6 -57 53 -57 86 0 20 4 22 35 17 35
-6 48 6 19 17 -9 4 -14 13 -10 21 3 10 -1 15 -14 15 -27 0 -34 17 -9 23 20 5
20 7 6 22 -20 19 -76 40 -85 31 -3 -4 -2 -10 4 -14 19 -12 27 -54 13 -63 -11
-7 -10 -9 3 -9 14 0 16 -8 12 -47 -3 -26 -6 -49 -8 -51 -11 -11 -86 -14 -86
-3 0 6 -7 11 -15 11 -21 0 -18 -10 10 -42 26 -30 45 -36 45 -14 0 24 23 36 42
22 16 -11 16 -15 2 -34 -8 -12 -24 -22 -35 -22 -10 0 -19 -4 -19 -10 0 -6 9
-6 26 1 38 14 41 4 4 -11 -16 -7 -30 -16 -30 -21 0 -13 0 -13 112 41 57 27
111 50 121 50 26 0 21 -19 -9 -30 -26 -10 -28 -38 -3 -31 39 11 54 6 57 -20 3
-22 -2 -27 -29 -33 -19 -3 -38 -1 -46 5 -20 18 -23 8 -7 -29 9 -24 26 -39 59
-53 25 -11 45 -24 45 -30 0 -5 -10 -20 -23 -32 -29 -27 -52 -82 -41 -98 4 -8
3 -10 -4 -5 -7 4 -12 2 -12 -4 0 -7 -14 -25 -31 -41 -28 -26 -29 -29 -10 -29
28 0 27 -18 -1 -30 -21 -8 -21 -9 -3 -9 35 -2 1 -21 -41 -24 -36 -2 -39 0 -36
23 2 14 9 31 14 38 8 9 7 11 -6 6 -30 -12 -16 12 41 69 55 55 65 78 26 59 -10
-5 -37 -18 -60 -29 -24 -12 -43 -18 -43 -13 0 4 7 11 16 14 9 4 14 9 11 13 -4
3 -18 -2 -31 -11 -14 -9 -35 -16 -46 -16 -12 0 -19 -4 -15 -9 3 -5 -6 -26 -20
-47 -37 -54 -33 -66 28 -88 l52 -19 -117 -24 c-148 -29 -164 -35 -188 -75 -22
-36 -27 -108 -8 -108 6 0 9 -3 6 -6 -3 -3 -15 0 -26 7 -27 17 -63 -6 -86 -54
-20 -43 -20 -61 -1 -77 8 -7 15 -21 15 -31 0 -43 108 -66 168 -35 39 20 47 33
47 76 l0 35 53 3 c38 2 52 7 52 18 0 12 -9 13 -49 8 -29 -4 -51 -2 -55 4 -36
59 169 91 577 92 193 0 208 -1 205 -18 -3 -14 -20 -18 -113 -24 -134 -10 -156
-14 -149 -32 7 -19 -23 -46 -51 -46 -19 0 -35 -16 -35 -36 0 -2 58 -5 129 -6
l129 -3 -64 -109 c-36 -64 -69 -133 -75 -164 -11 -47 -17 -56 -50 -72 -41 -21
-79 -64 -79 -89 0 -36 23 -95 45 -117 19 -19 35 -24 73 -24 46 0 53 4 101 51
47 48 51 55 51 100 0 42 5 54 35 86 19 20 37 50 41 67 7 35 59 112 80 120 8 3
24 1 37 -4 29 -11 98 -24 116 -21 8 2 37 27 65 57 29 30 57 54 63 54 7 0 18
-12 25 -27 7 -16 31 -36 52 -46 33 -16 43 -17 69 -6 28 12 29 13 10 22 -20 9
-20 9 1 31 11 13 37 30 56 38 19 9 52 23 72 32 20 9 49 19 65 22 40 8 301 -85
352 -125 21 -17 48 -31 60 -31 27 0 27 -8 -3 -31 -13 -11 -28 -38 -35 -65 -10
-41 -9 -51 9 -89 19 -40 26 -45 73 -55 49 -11 111 -11 105 0 -2 3 7 21 19 41
20 32 22 46 18 142 -4 122 -19 182 -42 173 -37 -15 -66 -18 -72 -9 -3 6 -64
40 -136 77 -211 107 -262 136 -240 137 14 0 16 2 5 6 -8 3 -24 13 -35 23 -11
10 -42 29 -70 43 -58 29 -70 22 120 62 143 30 155 31 149 8 -3 -10 -5 -38 -7
-63 -2 -35 -7 -47 -25 -56 -28 -14 -42 -27 -19 -18 25 9 67 -4 67 -21 0 -9 9
-15 23 -14 13 1 16 3 6 6 -11 3 -14 12 -11 33 4 29 20 39 36 23 4 -5 11 -8 14
-8 4 -1 17 -6 30 -13 36 -20 84 12 94 62 22 106 25 175 8 207 -12 21 -16 22
-129 16 -64 -3 -176 -15 -249 -27 -74 -11 -149 -20 -169 -20 -34 0 -68 21 -55
35 4 4 -36 6 -88 4 l-95 -4 0 144 0 144 95 -2 c212 -4 460 32 617 89 138 51
332 168 367 222 13 21 12 42 -14 218 -16 107 -43 276 -59 375 -34 200 -40 362
-17 455 7 30 36 116 64 190 98 262 159 488 169 625 5 72 3 83 -16 107 -29 36
-111 74 -201 93 -92 20 -287 27 -395 15z m-1777 -629 c7 -4 12 -12 11 -17 -7
-38 48 -73 105 -66 27 3 37 1 32 -7 -10 -16 -54 -14 -112 5 -62 21 -74 32 -67
67 6 29 10 32 31 18z m672 -371 c0 -19 -5 -30 -14 -30 -8 0 -21 -3 -30 -6 -13
-5 -16 1 -16 30 0 33 2 36 30 36 27 0 30 -3 30 -30z m-677 -83 c44 -20 47 -48
6 -54 -21 -3 -28 3 -42 32 -19 39 -21 49 -9 43 4 -2 24 -12 45 -21z m672 -105
c-2 -9 -4 -20 -4 -24 -1 -4 -22 -17 -47 -30 -48 -24 -79 -58 -72 -79 3 -8 15
-1 31 17 16 17 27 23 27 15 0 -10 8 -7 25 9 21 20 25 21 31 7 3 -8 1 -25 -6
-36 -7 -14 -7 -27 -1 -38 5 -10 10 -74 12 -143 l4 -125 -24 3 c-24 4 -24 3 8
-37 37 -46 34 -49 -18 -22 -20 11 -71 36 -114 57 -43 20 -92 50 -108 66 -21
21 -29 25 -29 14 0 -22 -16 -20 -40 4 -29 29 -25 40 15 40 24 0 35 5 35 15 0
8 1 18 3 21 1 3 -32 8 -73 10 -101 7 -102 14 -2 14 61 0 82 3 82 13 0 48 86
161 146 192 22 11 54 29 73 42 37 24 51 23 46 -5z m-656 -22 c9 0 23 6 31 13
12 10 12 9 1 -5 -7 -10 -19 -37 -27 -60 l-14 -43 6 44 c5 38 4 43 -10 38 -13
-5 -16 0 -15 26 1 23 3 26 6 10 3 -13 12 -23 22 -23z m56 -1 c-4 -5 -10 -31
-15 -57 -6 -38 -8 -41 -9 -15 -1 32 14 83 24 83 4 0 3 -5 0 -11z m35 -10 c0
-6 -4 -7 -10 -4 -5 3 -10 11 -10 16 0 6 5 7 10 4 6 -3 10 -11 10 -16z m-13
-51 c-3 -7 -5 -2 -5 12 0 14 2 19 5 13 2 -7 2 -19 0 -25z m63 -2 c0 -2 -7 -7
-16 -10 -8 -3 -12 -2 -9 4 6 10 25 14 25 6z m-15 -76 c-11 -44 -13 -49 -14
-23 -1 31 16 90 23 82 3 -2 -2 -29 -9 -59z m-240 -9 c-3 -6 -11 -11 -17 -11
-6 0 -6 6 2 15 14 17 26 13 15 -4z m155 -100 c-8 -5 -35 -11 -60 -15 -39 -5
-42 -4 -23 7 12 6 39 13 60 14 25 2 33 0 23 -6z m20 -29 c0 -4 9 -8 21 -9 22
-2 49 -20 49 -34 0 -15 -40 -10 -46 6 -4 8 -14 15 -24 15 -10 0 -20 7 -24 15
-3 9 0 15 9 15 8 0 15 -4 15 -8z m238 -20 c2 -7 -2 -10 -12 -6 -9 3 -16 11
-16 16 0 13 23 5 28 -10z m-473 -552 c-3 -5 -12 -10 -18 -10 -7 0 -6 4 3 10
19 12 23 12 15 0z m850 0 c-28 -12 -47 -12 -40 0 3 6 18 10 33 9 24 0 25 -1 7
-9z m23 -88 c-1 -30 5 -49 19 -65 11 -12 26 -39 33 -60 19 -61 65 -107 106
-107 l35 0 -2 -67 c-1 -38 -4 -72 -6 -76 -3 -4 -26 8 -53 28 -38 28 -57 35
-94 35 -46 0 -47 -1 -66 -45 -11 -25 -21 -45 -22 -45 -2 0 -4 17 -4 38 -1 21
-9 51 -19 66 -14 21 -16 38 -11 88 l7 61 -45 43 c-25 23 -46 51 -46 61 1 17
60 64 125 97 36 19 45 8 43 -52z m296 -278 c3 -26 6 -81 6 -123 1 -51 5 -82
15 -95 17 -22 20 -61 5 -51 -5 3 -10 -1 -10 -9 0 -9 -8 -16 -17 -15 -11 0 -13
3 -5 6 27 11 5 58 -28 58 -13 0 -15 17 -13 105 1 58 5 120 8 138 9 48 31 40
39 -14z m-795 -236 c-15 -21 -24 -27 -27 -18 -3 7 5 22 18 32 32 26 34 22 9
-14z m-69 -43 c-24 -26 -55 -34 -47 -12 2 6 9 11 15 10 5 -1 18 7 27 17 10 11
21 18 23 15 3 -3 -5 -16 -18 -30z m1106 -37 c-3 -13 -6 -27 -6 -31 0 -5 -4 -5
-10 -2 -17 10 -12 55 6 55 12 0 15 -6 10 -22z m-236 -55 c2 -2 0 -7 -6 -11 -6
-4 -13 -15 -17 -24 -3 -10 -11 -18 -16 -18 -5 0 -8 8 -6 18 1 9 0 11 -2 5 -3
-7 -11 -13 -20 -13 -9 0 -13 6 -9 15 4 10 -1 15 -14 15 -11 0 -20 7 -20 15 0
13 9 15 53 9 28 -4 54 -9 57 -11z m-290 -4 c-222 -35 -646 -71 -629 -55 2 3
88 12 189 21 102 9 235 22 295 29 61 8 130 14 155 14 l45 -1 -55 -8z m1094
-39 c-16 -16 -30 -27 -33 -25 -6 7 40 55 52 55 5 0 -4 -13 -19 -30z m-854 -20
c0 -5 -9 -10 -19 -10 -11 0 -28 -3 -38 -7 -16 -6 -16 -5 -4 10 14 18 61 23 61
7z m-907 -7 c-7 -2 -19 -2 -25 0 -7 3 -2 5 12 5 14 0 19 -2 13 -5z m1177 -169
c77 -25 77 -26 50 -34 -48 -15 -97 -11 -104 8 -3 9 -9 23 -12 30 -7 16 11 15
66 -4z m-1370 -49 c-7 -9 -15 -13 -17 -11 -7 7 7 26 19 26 6 0 6 -6 -2 -15z
m2155 -275 c-8 -9 -15 -23 -15 -31 0 -8 -8 -23 -16 -34 -15 -19 -15 -19 -8 10
4 17 11 38 15 47 12 23 11 31 -3 22 -6 -4 -8 -3 -5 4 4 5 16 8 27 5 19 -5 19
-7 5 -23z m-1398 -26 c-3 -3 -12 -4 -19 -1 -8 3 -5 6 6 6 11 1 17 -2 13 -5z
m1350 -16 c-3 -8 -6 -5 -6 6 -1 11 2 17 5 13 3 -3 4 -12 1 -19z m-1437 -144
c0 -22 -22 -12 -31 14 -8 20 -6 21 11 12 11 -6 20 -18 20 -26z"/>
<path d="M5956 3955 c-16 -14 -25 -25 -19 -25 5 0 20 11 33 25 30 32 23 32
-14 0z"/>
<path d="M6037 3881 c-26 -38 -49 -82 -52 -98 -6 -24 -2 -22 23 17 44 68 83
142 79 147 -3 2 -25 -27 -50 -66z"/>
<path d="M5906 3898 c-14 -23 -47 -169 -45 -204 0 -10 10 24 21 76 11 52 26
107 33 123 16 33 11 36 -9 5z"/>
<path d="M6030 3810 c-12 -23 -17 -39 -11 -35 15 8 44 65 37 72 -2 3 -14 -14
-26 -37z"/>
<path d="M5894 3716 c-3 -21 -4 -39 -1 -42 2 -3 8 11 11 32 4 20 5 38 2 41 -2
3 -8 -11 -12 -31z"/>
<path d="M5972 3720 c0 -14 2 -19 5 -12 2 6 2 18 0 25 -3 6 -5 1 -5 -13z"/>
<path d="M5996 3706 c-4 -17 -3 -33 3 -39 17 -17 25 1 14 35 l-9 33 -8 -29z"/>
<path d="M8522 5190 c0 -19 2 -27 5 -17 2 9 2 25 0 35 -3 9 -5 1 -5 -18z"/>
<path d="M5525 5200 c3 -5 15 -10 26 -10 11 0 17 5 14 10 -3 6 -15 10 -26 10
-11 0 -17 -4 -14 -10z"/>
<path d="M6788 5183 c6 -2 18 -2 25 0 6 3 1 5 -13 5 -14 0 -19 -2 -12 -5z"/>
<path d="M6690 5160 c-30 -10 -50 -18 -45 -19 6 0 37 8 70 18 33 11 53 19 45
19 -8 1 -40 -7 -70 -18z"/>
<path d="M8564 5140 c1 -21 6 -30 19 -30 20 0 20 1 5 35 -15 34 -25 32 -24 -5z"/>
<path d="M9236 5142 c-8 -13 4 -71 15 -78 5 -3 7 -10 4 -15 -4 -5 -2 -9 4 -9
13 0 17 8 26 48 5 25 3 32 -9 32 -8 0 -19 7 -24 16 -6 10 -12 13 -16 6z"/>
<path d="M10385 5139 c-4 -6 -5 -12 -2 -15 2 -3 7 2 10 11 7 17 1 20 -8 4z"/>
<path d="M6608 5133 c7 -3 16 -2 19 1 4 3 -2 6 -13 5 -11 0 -14 -3 -6 -6z"/>
<path d="M8532 5115 c0 -16 2 -22 5 -12 2 9 2 23 0 30 -3 6 -5 -1 -5 -18z"/>
<path d="M6558 5113 c7 -3 16 -2 19 1 4 3 -2 6 -13 5 -11 0 -14 -3 -6 -6z"/>
<path d="M5865 5085 c17 -13 46 -32 65 -42 19 -10 68 -38 108 -61 41 -24 95
-53 120 -64 26 -11 56 -28 66 -37 18 -15 18 -15 7 7 -6 12 -35 34 -64 48 -28
15 -68 37 -88 50 -70 44 -219 124 -232 124 -6 0 2 -11 18 -25z"/>
<path d="M10350 5080 c0 -16 4 -30 8 -30 5 0 7 14 4 30 -2 17 -6 30 -8 30 -2
0 -4 -13 -4 -30z"/>
<path d="M5820 5065 c0 -11 -21 -39 -45 -63 -43 -42 -55 -62 -36 -62 5 0 11 7
14 15 4 8 21 18 39 23 18 5 32 14 31 20 -2 6 1 22 6 35 6 14 6 29 0 38 -7 11
-9 10 -9 -6z"/>
<path d="M9162 4914 c-5 -9 -22 -16 -37 -16 -18 0 -23 -3 -14 -9 8 -4 -9 -7
-39 -6 -58 3 -64 -3 -27 -27 33 -22 48 -20 73 7 12 13 45 30 72 37 58 16 65
30 15 30 -21 0 -37 -6 -43 -16z"/>
<path d="M9490 4901 c0 -5 -9 -13 -21 -16 -15 -5 -18 -10 -10 -18 8 -8 17 -6
32 10 14 13 17 23 10 27 -6 4 -11 3 -11 -3z"/>
<path d="M8710 4882 c0 -11 5 -24 10 -27 6 -4 8 -11 4 -16 -3 -5 -2 -8 3 -7 4
2 10 -1 12 -7 9 -21 27 -30 61 -32 l35 -3 -40 38 c-22 20 -50 46 -63 56 -22
19 -22 19 -22 -2z"/>
<path d="M9412 4882 c3 -40 -3 -52 -24 -53 -20 0 -18 -3 10 -17 22 -11 36 -13
40 -6 4 6 16 14 26 18 19 6 19 7 -2 22 -12 8 -22 21 -22 28 0 8 -7 16 -15 20
-10 3 -14 -1 -13 -12z"/>
<path d="M9258 4855 c-23 -31 -23 -34 4 -27 14 3 19 2 14 -6 -7 -12 42 -38 52
-28 6 7 -32 79 -44 83 -5 1 -17 -8 -26 -22z"/>
<path d="M5830 4862 c0 -5 7 -13 16 -16 10 -4 14 -1 12 6 -5 15 -28 23 -28 10z"/>
<path d="M9925 4820 c3 -5 8 -10 11 -10 2 0 4 5 4 10 0 6 -5 10 -11 10 -5 0
-7 -4 -4 -10z"/>
<path d="M5791 4796 c-14 -14 -30 -26 -36 -26 -7 0 -20 -10 -31 -21 l-19 -22
54 6 c29 3 55 8 58 10 2 3 3 22 1 42 l-3 37 -24 -26z"/>
<path d="M5830 4811 c0 -5 5 -13 10 -16 6 -3 10 -2 10 4 0 5 -4 13 -10 16 -5
3 -10 2 -10 -4z"/>
<path d="M10360 4790 c0 -13 5 -20 13 -17 6 2 12 10 12 17 0 7 -6 15 -12 18
-8 2 -13 -5 -13 -18z"/>
<path d="M10471 4684 c0 -11 3 -14 6 -6 3 7 2 16 -1 19 -3 4 -6 -2 -5 -13z"/>
<path d="M1749 4660 c-13 -10 -18 -19 -11 -20 6 0 12 4 12 8 0 5 10 14 23 20
12 6 17 11 11 11 -7 1 -22 -8 -35 -19z"/>
<path d="M8402 4620 c-5 -22 -7 -40 -5 -40 11 0 32 35 33 52 0 34 -18 26 -28
-12z"/>
<path d="M1431 4224 c-34 -39 -41 -54 -41 -88 0 -23 5 -48 11 -56 8 -11 9 -7
4 17 -5 27 -4 32 9 27 9 -3 16 -1 16 6 0 6 4 9 9 6 4 -3 17 1 27 9 10 8 14 15
9 15 -6 0 -17 -6 -24 -12 -11 -11 -13 -10 -9 2 3 8 -1 20 -9 25 -11 8 -8 18
18 53 41 56 31 54 -20 -4z"/>
<path d="M8831 4254 c0 -11 3 -14 6 -6 3 7 2 16 -1 19 -3 4 -6 -2 -5 -13z"/>
<path d="M9569 4239 c18 -17 52 -40 76 -50 52 -23 72 -17 130 35 48 42 31 47
-41 11 -63 -32 -79 -31 -134 5 -58 39 -72 38 -31 -1z"/>
<path d="M8971 4214 c0 -11 3 -14 6 -6 3 7 2 16 -1 19 -3 4 -6 -2 -5 -13z"/>
<path d="M10500 4219 c0 -5 5 -7 10 -4 6 3 10 8 10 11 0 2 -4 4 -10 4 -5 0
-10 -5 -10 -11z"/>
<path d="M1460 4209 c0 -5 -4 -8 -9 -5 -5 3 -12 -1 -15 -10 -3 -8 -2 -13 3 -9
5 3 11 -1 14 -7 5 -16 12 -10 21 20 5 13 3 22 -3 22 -6 0 -11 -5 -11 -11z"/>
<path d="M8902 4180 c0 -14 2 -19 5 -12 2 6 2 18 0 25 -3 6 -5 1 -5 -13z"/>
<path d="M9026 4184 c-4 -9 -4 -19 -1 -22 2 -3 7 3 11 12 4 9 4 19 1 22 -2 3
-7 -3 -11 -12z"/>
<path d="M8787 4130 c-4 -18 -3 -38 2 -43 11 -11 20 33 11 58 -5 15 -8 12 -13
-15z"/>
<path d="M8897 4144 c-3 -3 -3 -13 0 -21 5 -12 7 -12 14 -1 15 23 4 40 -14 22z"/>
<path d="M9030 4131 c-7 -15 -7 -21 0 -21 12 0 25 28 17 36 -3 3 -10 -4 -17
-15z"/>
<path d="M8992 4110 c0 -14 2 -19 5 -12 2 6 2 18 0 25 -3 6 -5 1 -5 -13z"/>
<path d="M8946 4112 c-3 -5 1 -9 9 -9 8 0 12 4 9 9 -3 4 -7 8 -9 8 -2 0 -6 -4
-9 -8z"/>
<path d="M9021 4084 c0 -11 3 -14 6 -6 3 7 2 16 -1 19 -3 4 -6 -2 -5 -13z"/>
<path d="M8895 4064 c-20 -17 -26 -28 -17 -31 6 -2 9 -9 6 -15 -4 -6 2 -6 14
1 24 13 38 31 23 31 -5 0 -11 -6 -14 -12 -4 -10 -7 -10 -18 0 -7 6 -9 12 -3
12 5 0 20 9 34 20 14 11 21 19 15 19 -5 0 -23 -11 -40 -25z"/>
<path d="M8949 4068 c-11 -8 -10 -9 4 -4 12 4 17 0 17 -12 1 -16 1 -16 14 0 7
10 16 15 19 11 4 -3 7 -2 7 4 0 13 -43 14 -61 1z"/>
<path d="M9000 4035 c0 -8 4 -15 10 -15 5 0 7 7 4 15 -4 8 -8 15 -10 15 -2 0
-4 -7 -4 -15z"/>
<path d="M8960 4021 c0 -5 -8 -12 -17 -14 -14 -4 -13 -5 4 -6 24 -1 39 14 23
24 -5 3 -10 2 -10 -4z"/>
<path d="M8861 3998 c-1 -9 -7 -19 -13 -21 -10 -4 -9 -6 1 -6 11 -1 11 -4 1
-16 -6 -8 -9 -19 -5 -26 6 -8 10 -7 16 2 7 11 9 10 9 -3 0 -10 4 -18 9 -18 11
0 24 31 16 38 -3 3 -5 1 -6 -4 0 -5 -6 9 -14 31 -7 22 -13 33 -14 23z"/>
<path d="M9000 4000 c0 -5 5 -10 10 -10 6 0 10 5 10 10 0 6 -4 10 -10 10 -5 0
-10 -4 -10 -10z"/>
<path d="M8880 3989 c0 -5 7 -9 15 -9 7 0 18 -8 23 -17 10 -17 52 -26 52 -11
0 4 -7 8 -15 8 -7 0 -18 6 -22 13 -9 16 -53 29 -53 16z"/>
<path d="M8980 3963 c0 -12 5 -25 10 -28 13 -8 13 15 0 35 -8 12 -10 11 -10
-7z"/>
<path d="M8485 3940 c-3 -5 -2 -10 4 -10 5 0 13 5 16 10 3 6 2 10 -4 10 -5 0
-13 -4 -16 -10z"/>
<path d="M8737 3938 c-20 -15 -39 -138 -26 -178 7 -25 9 -24 13 18 2 13 7 27
13 30 15 10 26 52 14 52 -6 0 -11 4 -11 10 0 5 7 7 15 4 16 -7 18 12 7 54 -6
20 -9 21 -25 10z"/>
<path d="M9047 3929 c7 -7 15 -10 18 -7 3 3 -2 9 -12 12 -14 6 -15 5 -6 -5z"/>
<path d="M8922 3905 c1 -17 -4 -42 -11 -55 -10 -21 -10 -22 1 -6 7 11 24 31
38 44 14 14 19 22 12 18 -8 -5 -19 -1 -27 10 -13 18 -14 17 -13 -11z"/>
<path d="M8505 3910 c-3 -5 -1 -10 4 -10 6 0 11 5 11 10 0 6 -2 10 -4 10 -3 0
-8 -4 -11 -10z"/>
<path d="M8466 3884 c-3 -9 -6 -28 -6 -43 0 -30 -37 -170 -49 -186 -5 -5 -15
-32 -24 -60 -8 -27 -25 -83 -37 -122 -12 -40 -19 -80 -16 -89 3 -9 2 -22 -2
-28 -13 -16 -23 -119 -13 -134 8 -13 51 126 55 176 0 12 4 22 8 22 3 0 4 9 1
21 -5 16 -8 18 -15 7 -7 -9 -8 -7 -3 7 4 11 11 36 16 55 8 34 8 34 5 -7 -7
-76 10 -54 27 35 10 48 17 94 17 103 0 9 7 30 15 45 8 16 15 43 15 61 0 17 5
35 10 38 6 4 7 23 4 46 -4 25 -2 44 6 54 7 9 8 15 2 15 -5 0 -13 -7 -16 -16z
m-110 -490 c-4 -9 -9 -15 -11 -12 -3 3 -3 13 1 22 4 9 9 15 11 12 3 -3 3 -13
-1 -22z"/>
<path d="M8840 3880 c0 -24 15 -27 24 -4 9 22 8 24 -9 24 -8 0 -15 -9 -15 -20z"/>
<path d="M8888 3875 c-3 -14 -1 -25 3 -25 5 0 9 4 9 9 0 5 3 16 6 25 3 9 2 16
-4 16 -5 0 -12 -11 -14 -25z"/>
<path d="M9014 3882 c4 -7 2 -12 -4 -12 -6 0 -8 -5 -4 -12 5 -8 2 -9 -9 -5
-17 7 -47 -16 -47 -36 0 -8 4 -7 9 2 8 12 12 12 26 -2 19 -20 11 -44 -10 -27
-9 8 -15 8 -20 0 -3 -6 -11 -7 -17 -4 -6 4 -8 2 -4 -4 8 -13 46 -12 63 1 8 5
10 19 7 33 -3 13 -2 24 4 24 14 0 22 39 10 47 -7 3 -8 1 -4 -5z"/>
<path d="M8486 3865 c-3 -9 -6 -22 -5 -28 0 -7 5 -1 10 12 5 13 8 26 5 28 -2
2 -6 -3 -10 -12z"/>
<path d="M8865 3831 c-3 -5 -1 -12 5 -16 5 -3 10 1 10 9 0 18 -6 21 -15 7z"/>
<path d="M8771 3803 c-1 -12 -6 -25 -11 -28 -8 -5 -7 -11 1 -21 9 -11 7 -14
-12 -14 -17 0 -20 -3 -12 -11 17 -17 47 -3 39 18 -4 9 -3 19 2 22 5 3 5 17 1
31 -6 23 -7 23 -8 3z"/>
<path d="M8886 3805 c-3 -9 -6 -22 -5 -28 0 -7 5 -1 10 12 5 13 8 26 5 28 -2
2 -6 -3 -10 -12z"/>
<path d="M8916 3805 c-9 -26 -7 -32 5 -12 6 10 9 21 6 23 -2 3 -7 -2 -11 -11z"/>
<path d="M8835 3800 c-3 -5 -1 -10 4 -10 6 0 11 5 11 10 0 6 -2 10 -4 10 -3 0
-8 -4 -11 -10z"/>
<path d="M9145 3790 c-3 -5 -1 -10 4 -10 6 0 11 5 11 10 0 6 -2 10 -4 10 -3 0
-8 -4 -11 -10z"/>
<path d="M9060 3765 c-8 -9 -8 -15 -2 -15 12 0 26 19 19 26 -2 2 -10 -2 -17
-11z"/>
<path d="M9096 3772 c-3 -6 -2 -13 4 -17 6 -4 8 -11 4 -16 -3 -5 -10 -6 -16
-3 -6 4 -9 1 -6 -6 6 -20 25 -23 31 -5 8 19 -7 62 -17 47z"/>
<path d="M8990 3750 c-9 -6 -10 -10 -3 -10 6 0 15 5 18 10 8 12 4 12 -15 0z"/>
<path d="M8814 3725 c-4 -8 -11 -12 -16 -9 -14 9 -28 -16 -27 -46 l1 -25 7 25
c5 18 15 26 34 28 21 3 26 0 21 -12 -8 -21 0 -20 21 0 15 15 15 18 -4 35 -24
23 -30 23 -37 4z"/>
<path d="M9053 3713 c3 -12 0 -24 -7 -27 -7 -3 -7 -5 2 -5 18 -1 15 -32 -5
-47 -26 -18 -11 -26 15 -8 26 18 29 60 5 89 -15 20 -15 20 -10 -2z"/>
<path d="M8741 3694 c0 -11 3 -14 6 -6 3 7 2 16 -1 19 -3 4 -6 -2 -5 -13z"/>
<path d="M9000 3700 c-11 -7 -11 -13 4 -34 16 -26 16 -26 -12 -26 -15 0 -33
-5 -40 -12 -15 -15 -16 -48 -2 -48 6 0 10 11 10 25 0 21 5 25 28 25 23 -1 24
-2 10 -11 -21 -12 -24 -31 -4 -23 11 4 24 24 44 68 3 5 -1 5 -8 1 -9 -5 -10
-2 -6 13 8 24 -4 34 -24 22z"/>
<path d="M8902 3675 c-11 -12 -10 -15 3 -15 8 0 15 7 15 15 0 18 -2 18 -18 0z"/>
<path d="M8793 3653 c-15 -32 -13 -35 10 -18 13 9 16 18 10 29 -7 12 -10 10
-20 -11z"/>
<path d="M8930 3671 c0 -14 18 -23 31 -15 8 4 7 9 -2 15 -18 11 -29 11 -29 0z"/>
<path d="M8915 3630 c3 -5 8 -10 11 -10 2 0 4 5 4 10 0 6 -5 10 -11 10 -5 0
-7 -4 -4 -10z"/>
<path d="M8666 3595 c-9 -26 -7 -32 5 -12 6 10 9 21 6 23 -2 3 -7 -2 -11 -11z"/>
<path d="M8838 3592 c-27 -5 -22 -22 6 -22 13 0 26 -7 30 -15 3 -8 11 -15 17
-15 8 0 8 4 -1 15 -6 8 -9 18 -6 23 7 11 -21 20 -46 14z"/>
<path d="M9050 3590 c0 -5 5 -10 10 -10 6 0 10 5 10 10 0 6 -4 10 -10 10 -5 0
-10 -4 -10 -10z"/>
<path d="M8686 3555 c-3 -8 -1 -15 4 -15 6 0 10 7 10 15 0 8 -2 15 -4 15 -2 0
-6 -7 -10 -15z"/>
<path d="M8646 3485 c8 -37 14 -45 14 -19 0 10 -5 26 -10 34 -8 11 -9 7 -4
-15z"/>
<path d="M8673 3470 c0 -25 2 -35 4 -22 2 12 2 32 0 45 -2 12 -4 2 -4 -23z"/>
<path d="M8982 3488 c-5 -7 -13 -24 -17 -38 -4 -14 -6 -23 -4 -20 2 3 17 20
33 38 22 23 25 32 14 32 -9 0 -20 -6 -26 -12z"/>
<path d="M9000 3410 c-8 -5 -12 -12 -9 -15 4 -3 12 1 19 10 14 17 11 19 -10 5z"/>
<path d="M9024 3389 c-4 -8 -3 -10 4 -5 8 5 12 0 12 -13 0 -33 -1 -36 -12 -33
-5 1 -8 -3 -6 -10 8 -22 31 -14 38 12 8 29 -22 71 -36 49z"/>
<path d="M9150 3381 c0 -5 7 -27 15 -50 8 -22 11 -41 8 -41 -4 0 3 -9 16 -21
12 -12 25 -18 29 -14 4 4 1 10 -5 12 -8 3 -11 15 -8 31 4 21 3 23 -3 8 -11
-24 -25 -5 -15 20 4 11 3 15 -5 11 -16 -10 -20 26 -4 38 10 8 9 11 -7 12 -12
1 -21 -2 -21 -6z"/>
<path d="M9106 3349 c-3 -16 -18 -41 -33 -55 -18 -17 -22 -24 -10 -20 9 3 17
1 17 -5 0 -7 -10 -9 -25 -5 -14 4 -25 2 -25 -4 0 -5 8 -10 18 -10 10 -1 4 -8
-18 -20 -19 -11 -30 -19 -24 -20 6 0 29 12 50 26 23 16 40 22 42 15 2 -6 10
-11 19 -11 11 0 13 8 10 33 -3 17 -8 39 -12 48 -3 9 0 23 9 32 13 12 13 16 2
20 -9 4 -16 -5 -20 -24z m7 -64 c-3 -8 -9 -15 -14 -15 -10 0 -12 24 -3 33 11
11 24 -3 17 -18z"/>
<path d="M8669 3359 c-10 -6 -7 -9 14 -9 29 0 35 5 14 13 -8 3 -20 1 -28 -4z"/>
<path d="M9137 3344 c-9 -10 -9 -46 1 -41 4 3 8 -17 8 -44 1 -27 -2 -46 -6
-44 -5 3 -13 -10 -19 -28 -9 -25 -14 -29 -21 -17 -8 13 -10 13 -10 -1 0 -20
41 -33 52 -16 4 7 3 14 -2 15 -6 2 -10 8 -10 13 0 6 4 8 9 4 6 -3 14 2 20 12
16 32 -3 165 -22 147z"/>
<path d="M8670 3320 c0 -5 7 -7 15 -4 8 4 15 8 15 10 0 2 -7 4 -15 4 -8 0 -15
-4 -15 -10z"/>
<path d="M8900 3320 c0 -5 5 -10 11 -10 5 0 7 5 4 10 -3 6 -8 10 -11 10 -2 0
-4 -4 -4 -10z"/>
<path d="M8693 3298 c-19 -25 -24 -43 -6 -22 10 12 25 24 33 27 13 5 12 6 -1
6 -9 1 -21 -5 -26 -11z"/>
<path d="M8715 3259 c-11 -16 -1 -19 13 -3 7 8 8 14 3 14 -5 0 -13 -5 -16 -11z"/>
<path d="M8973 3233 c-49 -25 -57 -71 -10 -58 19 5 20 5 5 -5 -22 -13 -23 -27
-3 -46 21 -22 49 -13 53 16 3 21 2 22 -12 11 -14 -12 -16 -11 -16 8 0 16 6 21
25 21 16 0 25 -6 25 -15 0 -8 5 -15 10 -15 6 0 10 -8 9 -17 0 -11 -3 -13 -6
-5 -8 21 -23 2 -17 -22 3 -15 -2 -28 -15 -40 -12 -11 -21 -14 -21 -8 0 6 5 14
10 17 13 8 13 25 0 25 -6 0 -15 -12 -20 -26 -11 -29 -34 -23 -25 7 4 13 2 19
-9 19 -9 0 -16 -4 -16 -9 0 -5 -7 -17 -16 -26 -9 -9 -14 -19 -10 -22 3 -4 13
2 22 13 8 10 13 13 9 7 -4 -8 0 -13 9 -13 23 0 19 -17 -5 -23 -12 -3 -18 -10
-14 -17 5 -8 10 -8 20 0 7 6 19 8 26 6 8 -3 29 14 49 39 19 24 46 46 59 50 20
5 22 8 11 15 -9 6 -18 4 -23 -3 -5 -7 -6 1 -3 20 3 19 1 33 -6 35 -19 7 2 28
28 28 15 0 24 6 24 15 0 13 -4 14 -20 5 -11 -6 -20 -7 -20 -3 0 4 -4 2 -9 -6
-6 -9 -33 -16 -73 -19 -58 -4 -62 -3 -49 12 8 9 17 13 20 9 3 -5 17 2 30 14
28 27 19 28 -26 6z m27 -193 c0 -5 -5 -10 -11 -10 -5 0 -7 5 -4 10 3 6 8 10
11 10 2 0 4 -4 4 -10z"/>
<path d="M8640 3220 c-6 -11 -8 -20 -6 -20 3 0 10 9 16 20 6 11 8 20 6 20 -3
0 -10 -9 -16 -20z"/>
<path d="M8765 3230 c-3 -5 -2 -10 4 -10 5 0 13 5 16 10 3 6 2 10 -4 10 -5 0
-13 -4 -16 -10z"/>
<path d="M8819 3139 c-12 -24 1 -39 34 -39 19 0 20 4 11 38 -8 28 -30 28 -45
1z m41 -13 c0 -11 -19 -15 -25 -6 -3 5 1 10 9 10 9 0 16 -2 16 -4z"/>
<path d="M8931 3144 c0 -11 3 -14 6 -6 3 7 2 16 -1 19 -3 4 -6 -2 -5 -13z"/>
<path d="M8602 3113 c3 -19 38 -31 38 -14 0 6 -7 8 -15 5 -11 -5 -13 -2 -9 10
3 9 1 16 -6 16 -6 0 -10 -8 -8 -17z"/>
<path d="M5081 3103 c3 -33 -1 -40 -27 -51 -26 -12 -25 -36 1 -25 8 3 23 2 33
-2 31 -14 38 -13 39 8 2 19 -32 87 -43 87 -3 0 -4 -8 -3 -17z"/>
<path d="M8910 3100 c0 -5 5 -10 10 -10 6 0 10 5 10 10 0 6 -4 10 -10 10 -5 0
-10 -4 -10 -10z"/>
<path d="M9144 3095 c-4 -8 -10 -15 -16 -15 -5 0 -6 4 -3 10 8 14 -24 1 -58
-22 -29 -21 -60 -71 -50 -82 13 -13 24 -5 18 13 -3 11 -2 22 4 25 11 7 24 -22
15 -35 -9 -15 13 -10 26 6 10 12 9 15 -5 15 -15 0 -15 3 -5 15 7 9 19 13 27
11 15 -6 66 42 58 55 -3 4 3 10 12 12 17 4 17 5 0 6 -10 0 -20 -6 -23 -14z
m-24 -26 c0 -5 -4 -8 -10 -4 -5 3 -18 -3 -30 -15 -21 -21 -30 -25 -30 -12 0 8
50 41 63 42 4 0 7 -5 7 -11z"/>
<path d="M8808 3071 c-6 -40 5 -57 22 -37 7 9 15 14 19 12 3 -2 7 7 7 21 1 16
-2 23 -11 19 -7 -2 -17 0 -23 6 -6 6 -11 -1 -14 -21z"/>
<path d="M5505 3065 c-16 -14 -33 -25 -37 -25 -10 0 -62 -49 -57 -54 2 -3 18
-7 34 -10 24 -5 26 -4 10 3 -11 5 -14 10 -7 10 7 1 26 17 43 36 17 19 40 35
51 35 10 0 17 4 14 9 -4 5 0 12 6 14 7 3 4 6 -7 6 -11 0 -33 -11 -50 -24z"/>
<path d="M9568 3063 c-10 -24 -75 -109 -115 -151 -11 -11 -9 -19 9 -45 15 -21
22 -44 21 -71 l-2 -41 20 24 c20 25 25 47 10 53 -10 3 -14 27 -12 70 1 28 39
78 59 78 6 0 16 19 23 43 6 23 13 45 15 49 2 4 0 9 -6 13 -5 3 -15 -7 -22 -22z"/>
<path d="M9185 3060 c-3 -5 -1 -10 4 -10 6 0 11 5 11 10 0 6 -2 10 -4 10 -3 0
-8 -4 -11 -10z"/>
<path d="M9230 3049 c0 -5 5 -7 10 -4 6 3 10 8 10 11 0 2 -4 4 -10 4 -5 0 -10
-5 -10 -11z"/>
<path d="M8870 3025 c0 -8 -4 -15 -10 -15 -5 0 -10 -7 -10 -15 0 -17 6 -18 35
-5 11 5 14 9 6 9 -8 1 -11 8 -8 21 3 11 1 20 -4 20 -5 0 -9 -7 -9 -15z"/>
<path d="M4990 3020 c-8 -5 -12 -12 -9 -15 4 -3 12 1 19 10 14 17 11 19 -10 5z"/>
<path d="M9141 2997 c-13 -21 -12 -21 5 -5 10 10 16 20 13 22 -3 3 -11 -5 -18
-17z"/>
<path d="M9258 3013 c7 -3 16 -2 19 1 4 3 -2 6 -13 5 -11 0 -14 -3 -6 -6z"/>
<path d="M5007 3003 c-4 -3 -2 -12 4 -20 15 -17 81 -16 144 2 32 10 37 13 15
9 -99 -16 -106 -16 -119 0 -14 17 -33 21 -44 9z"/>
<path d="M8956 2993 c-6 -14 -5 -15 5 -6 7 7 10 15 7 18 -3 3 -9 -2 -12 -12z"/>
<path d="M9210 3000 c-10 -6 -11 -10 -2 -10 6 0 12 -6 12 -14 0 -8 -6 -17 -12
-19 -8 -4 -7 -6 3 -6 17 -1 29 18 29 45 0 16 -9 18 -30 4z"/>
<path d="M8800 2990 c0 -5 5 -10 10 -10 6 0 10 5 10 10 0 6 -4 10 -10 10 -5 0
-10 -4 -10 -10z"/>
<path d="M9175 2979 c-4 -6 -5 -12 -2 -15 2 -3 7 2 10 11 7 17 1 20 -8 4z"/>
<path d="M4980 2974 c1 -20 17 -31 55 -38 l40 -6 -34 15 c-19 9 -41 20 -48 27
-7 6 -13 7 -13 2z"/>
<path d="M8848 2973 c-16 -2 -28 -8 -28 -12 0 -14 49 -9 61 5 6 8 8 13 3 13
-5 -1 -21 -4 -36 -6z"/>
<path d="M8166 2946 c11 -8 58 -24 103 -36 79 -20 84 -20 102 -4 11 9 19 20
19 24 0 14 -84 29 -165 29 -71 1 -77 -1 -59 -13z"/>
<path d="M8902 2948 c-7 -7 -12 -8 -12 -3 0 5 -7 0 -15 -11 -8 -10 -14 -26
-14 -34 0 -11 3 -9 12 5 14 23 57 32 57 11 0 -8 8 -17 17 -20 10 -4 14 -4 11
0 -4 4 -3 15 3 25 7 15 6 19 -6 19 -8 0 -15 5 -15 10 0 14 -23 13 -38 -2z"/>
<path d="M5098 2943 c6 -2 18 -2 25 0 6 3 1 5 -13 5 -14 0 -19 -2 -12 -5z"/>
<path d="M8835 2930 c-3 -5 -1 -10 4 -10 6 0 11 5 11 10 0 6 -2 10 -4 10 -3 0
-8 -4 -11 -10z"/>
<path d="M9173 2908 c7 -26 -8 -48 -32 -47 -10 0 -11 2 -3 6 6 2 12 9 12 15 0
6 -7 7 -16 4 -12 -4 -14 -1 -9 14 5 15 3 18 -9 14 -19 -7 -20 -16 -4 -32 16
-16 7 -22 -20 -15 -12 3 -22 12 -22 20 0 8 -4 11 -10 8 -5 -3 -10 -2 -10 3 0
19 -37 19 -49 1 -10 -17 -8 -19 13 -19 32 0 44 -19 22 -35 -13 -10 -14 -15 -4
-23 18 -13 78 -3 85 15 5 12 7 12 14 1 8 -11 11 -11 18 1 5 8 14 10 22 6 8 -5
11 -5 7 0 -4 4 -3 14 2 21 18 21 20 52 3 58 -12 5 -14 1 -10 -16z"/>
<path d="M5257 2908 c-2 -7 0 -25 5 -40 l9 -26 37 21 c29 17 34 18 23 4 -7 -9
-19 -17 -26 -17 -7 0 -15 -7 -19 -15 -7 -18 -46 -20 -46 -2 0 11 -34 15 -60 8
-17 -4 64 -34 106 -38 53 -6 203 7 172 14 -10 3 -18 10 -18 16 0 7 -5 6 -11
-3 -9 -12 -10 -12 -5 3 10 30 -11 54 -61 71 -56 19 -100 21 -106 4z m73 -83
c0 -8 -7 -15 -15 -15 -16 0 -20 12 -8 23 11 12 23 8 23 -8z m60 5 c0 -13 -28
-25 -38 -16 -3 4 0 11 8 16 20 13 30 12 30 0z"/>
<path d="M8886 2899 c3 -6 0 -15 -7 -20 -18 -11 -6 -21 15 -13 20 8 21 44 0
44 -8 0 -12 -5 -8 -11z"/>
<path d="M1498 2883 c6 -2 18 -2 25 0 6 3 1 5 -13 5 -14 0 -19 -2 -12 -5z"/>
<path d="M5656 2865 c-8 -9 -36 -25 -61 -36 -25 -11 -45 -22 -45 -23 0 -4 142
43 148 49 1 1 -4 7 -12 14 -11 9 -17 8 -30 -4z"/>
<path d="M8260 2875 c0 -2 15 -9 33 -15 l32 -10 -37 3 c-45 3 -48 -9 -13 -47
41 -44 54 -37 70 42 l7 32 -46 0 c-25 0 -46 -2 -46 -5z"/>
<path d="M1431 2853 c-1 -12 4 -25 9 -28 12 -7 12 2 0 30 -8 19 -9 19 -9 -2z"/>
<path d="M9015 2860 c-3 -5 -2 -10 4 -10 5 0 13 5 16 10 3 6 2 10 -4 10 -5 0
-13 -4 -16 -10z"/>
<path d="M8940 2839 c0 -5 -7 -9 -15 -9 -8 0 -15 -4 -15 -10 0 -5 11 -10 25
-10 14 0 28 -7 31 -15 9 -23 22 -18 20 8 -1 22 -46 57 -46 36z"/>
<path d="M9160 2820 c0 -5 5 -10 11 -10 5 0 7 5 4 10 -3 6 -8 10 -11 10 -2 0
-4 -4 -4 -10z"/>
<path d="M9297 2792 c-29 -31 -36 -55 -12 -46 14 6 49 64 42 71 -2 1 -16 -10
-30 -25z"/>
<path d="M5230 2770 c25 -8 97 -13 89 -6 -2 2 -29 6 -59 9 -36 4 -46 3 -30 -3z"/>
<path d="M1671 2604 c0 -11 3 -14 6 -6 3 7 2 16 -1 19 -3 4 -6 -2 -5 -13z"/>
<path d="M9427 2579 c-30 -17 -158 -59 -227 -75 l-65 -14 94 6 c96 5 214 31
206 45 -3 4 3 5 13 2 21 -5 47 21 37 37 -8 13 -35 12 -58 -1z"/>
<path d="M8431 2526 c8 -9 33 -19 55 -22 l39 -4 -41 13 c-23 8 -47 18 -55 22
-10 5 -9 3 2 -9z"/>
<path d="M1390 2520 c0 -5 5 -10 10 -10 6 0 10 5 10 10 0 6 -4 10 -10 10 -5 0
-10 -4 -10 -10z"/>
<path d="M8883 2493 c15 -2 39 -2 55 0 15 2 2 4 -28 4 -30 0 -43 -2 -27 -4z"/>
<path d="M1366 2463 c2 -42 3 -43 24 -43 11 0 20 -5 20 -12 0 -6 3 -9 6 -5 3
3 -3 19 -15 35 -12 17 -21 35 -21 41 0 6 -4 11 -8 11 -4 0 -7 -12 -6 -27z"/>
<path d="M1237 2430 c-3 -11 -1 -23 4 -26 5 -3 9 6 9 20 0 31 -6 34 -13 6z"/>
<path d="M4336 2371 c-3 -4 -40 -9 -83 -10 -43 -1 -79 -3 -80 -5 -1 -1 0 -11
3 -22 8 -32 74 -31 130 2 45 26 63 44 45 44 -5 0 -12 -4 -15 -9z"/>
<path d="M5713 2182 c-36 -4 -44 -18 -15 -26 9 -2 47 -8 85 -12 58 -5 67 -4
67 10 0 9 7 16 15 16 8 0 15 5 15 10 0 10 -83 11 -167 2z"/>
<path d="M5565 2170 c-3 -5 3 -10 14 -10 12 0 21 5 21 10 0 6 -6 10 -14 10 -8
0 -18 -4 -21 -10z"/>
<path d="M5630 2160 c0 -5 7 -10 15 -10 8 0 15 5 15 10 0 6 -7 10 -15 10 -8 0
-15 -4 -15 -10z"/>
<path d="M11301 1969 c-13 -5 -22 -12 -19 -14 6 -6 58 12 58 20 0 7 -11 5 -39
-6z"/>
<path d="M6965 1962 c13 -12 117 -43 125 -36 9 10 -33 34 -59 34 -14 0 -37 3
-51 6 -17 5 -22 3 -15 -4z"/>
<path d="M11050 1830 c0 -5 5 -10 10 -10 6 0 10 5 10 10 0 6 -4 10 -10 10 -5
0 -10 -4 -10 -10z"/>
<path d="M10950 1787 c0 -7 13 -23 30 -35 37 -27 203 -84 223 -76 8 3 18 1 22
-5 3 -6 23 -11 43 -10 32 1 28 3 -28 16 -84 20 -205 67 -252 99 -26 16 -38 20
-38 11z"/>
<path d="M11625 1689 c-16 -3 60 -7 170 -8 110 0 206 3 212 7 16 10 -341 11
-382 1z"/>
<path d="M11338 1653 c7 -3 16 -2 19 1 4 3 -2 6 -13 5 -11 0 -14 -3 -6 -6z"/>
<path d="M3854 1455 c-11 -28 4 -45 41 -45 61 0 115 39 72 52 -44 12 -107 9
-113 -7z"/>
</g>
</svg>
